<ttFont>
<head>
    <!-- Most of this table will be recalculated by the compiler -->
    <tableVersion value="1.0"/>
    <fontRevision value="2.01"/>
    <checkSumAdjustment value="0x21d952b0"/>
    <magicNumber value="0x5f0f3cf5"/>
    <flags value="00000000 00000011"/>
    <unitsPerEm value="1000"/>
    <created value="Wed Feb  7 19:23:42 2018"/>
    <modified value="Wed Feb  7 11:23:47 2018"/>
    <xMin value="-459"/>
    <yMin value="-678"/>
    <xMax value="1840"/>
    <yMax value="1016"/>
    <macStyle value="00000000 00000000"/>
    <lowestRecPPEM value="7"/>
    <fontDirectionHint value="2"/>
    <indexToLocFormat value="0"/>
    <glyphDataFormat value="0"/>
  </head>
    <TTGlyph name=".notdef" xMin="165" yMin="0" xMax="590" yMax="701">
      <contour>
        <pt x="590" y="701" on="1"/>
        <pt x="590" y="0" on="1"/>
        <pt x="165" y="0" on="1"/>
        <pt x="165" y="701" on="1"/>
      </contour>
      <contour>
        <pt x="516" y="70" on="1"/>
        <pt x="516" y="631" on="1"/>
        <pt x="239" y="631" on="1"/>
        <pt x="239" y="70" on="1"/>
      </contour>
    </TTGlyph>
    <TTGlyph name="A" xMin="8" yMin="0" xMax="466" yMax="687">
      <contour>
        <pt x="312" y="168" on="1"/>
        <pt x="162" y="168" on="1"/>
        <pt x="131" y="0" on="1"/>
        <pt x="8" y="0" on="1"/>
        <pt x="149" y="687" on="1"/>
        <pt x="327" y="687" on="1"/>
        <pt x="466" y="0" on="1"/>
        <pt x="344" y="0" on="1"/>
      </contour>
      <contour>
        <pt x="291" y="276" on="1"/>
        <pt x="235" y="572" on="1"/>
        <pt x="181" y="276" on="1"/>
      </contour>
    </TTGlyph>
    <TTGlyph name="AE" xMin="2" yMin="0" xMax="681" yMax="687">
      <contour>
        <pt x="474" y="576" on="1"/>
        <pt x="474" y="403" on="1"/>
        <pt x="653" y="403" on="1"/>
        <pt x="653" y="292" on="1"/>
        <pt x="474" y="292" on="1"/>
        <pt x="474" y="110" on="1"/>
        <pt x="681" y="110" on="1"/>
        <pt x="681" y="0" on="1"/>
        <pt x="355" y="0" on="1"/>
        <pt x="355" y="168" on="1"/>
        <pt x="191" y="168" on="1"/>
        <pt x="127" y="0" on="1"/>
        <pt x="2" y="0" on="1"/>
        <pt x="279" y="687" on="1"/>
        <pt x="681" y="687" on="1"/>
        <pt x="681" y="576" on="1"/>
      </contour>
      <contour>
        <pt x="355" y="276" on="1"/>
        <pt x="355" y="600" on="1"/>
        <pt x="232" y="276" on="1"/>
      </contour>
    </TTGlyph>
    <TTGlyph name="Aacute" xMin="8" yMin="0" xMax="466" yMax="839">
      <component glyphName="A" x="0" y="0" flags="0x0"/>
      <component glyphName="acute" x="92" y="100" flags="0x4"/>
    </TTGlyph>
    <TTGlyph name="Abreve" xMin="8" yMin="0" xMax="466" yMax="839">
      <component glyphName="A" x="0" y="0" flags="0x0"/>
      <component glyphName="breve" x="60" y="100" flags="0x4"/>
    </TTGlyph>
    <TTGlyph name="Acircumflex" xMin="8" yMin="0" xMax="466" yMax="839">
      <component glyphName="A" x="0" y="0" flags="0x0"/>
      <component glyphName="circumflex" x="66" y="100" flags="0x4"/>
    </TTGlyph>
    <TTGlyph name="Adieresis" xMin="8" yMin="0" xMax="466" yMax="832">
      <component glyphName="dieresis" x="60" y="100" flags="0x4"/>
      <component glyphName="A" x="0" y="0" flags="0x0"/>
    </TTGlyph>
    <TTGlyph name="Agrave" xMin="8" yMin="0" xMax="466" yMax="839">
      <component glyphName="A" x="0" y="0" flags="0x0"/>
      <component glyphName="grave" x="24" y="100" flags="0x4"/>
    </TTGlyph>
    <TTGlyph name="Amacron" xMin="8" yMin="0" xMax="466" yMax="817">
      <component glyphName="A" x="0" y="0" flags="0x0"/>
      <component glyphName="macron" x="60" y="100" flags="0x4"/>
    </TTGlyph>
    <TTGlyph name="Aogonek" xMin="8" yMin="-193" xMax="466" yMax="687">
      <component glyphName="A" x="0" y="0" flags="0x0"/>
      <component glyphName="ogonek" x="234" y="0" flags="0x0"/>
    </TTGlyph>
    <TTGlyph name="Aring" xMin="8" yMin="0" xMax="466" yMax="859">
      <component glyphName="A" x="0" y="0" flags="0x0"/>
      <component glyphName="ring" x="60" y="100" flags="0x4"/>
    </TTGlyph>
    <TTGlyph name="Atilde" xMin="8" yMin="0" xMax="466" yMax="835">
      <component glyphName="A" x="0" y="0" flags="0x0"/>
      <component glyphName="tilde" x="59" y="100" flags="0x4"/>
    </TTGlyph>
    <TTGlyph name="B" xMin="52" yMin="0" xMax="444" yMax="687">
      <contour>
        <pt x="444" y="325" on="0"/>
        <pt x="444" y="225" on="1"/>
        <pt x="444" y="157" on="1"/>
        <pt x="444" y="0" on="0"/>
        <pt x="276" y="0" on="1"/>
        <pt x="52" y="0" on="1"/>
        <pt x="52" y="687" on="1"/>
        <pt x="270" y="687" on="1"/>
        <pt x="438" y="687" on="0"/>
        <pt x="438" y="530" on="1"/>
        <pt x="438" y="467" on="1"/>
        <pt x="438" y="371" on="0"/>
        <pt x="366" y="347" on="1"/>
      </contour>
      <contour>
        <pt x="179" y="579" on="1"/>
        <pt x="179" y="402" on="1"/>
        <pt x="251" y="402" on="1"/>
        <pt x="282" y="402" on="0"/>
        <pt x="312" y="430" on="0"/>
        <pt x="312" y="460" on="1"/>
        <pt x="312" y="522" on="1"/>
        <pt x="312" y="552" on="0"/>
        <pt x="282" y="579" on="0"/>
        <pt x="251" y="579" on="1"/>
      </contour>
      <contour>
        <pt x="318" y="232" on="1"/>
        <pt x="318" y="262" on="0"/>
        <pt x="288" y="290" on="0"/>
        <pt x="257" y="290" on="1"/>
        <pt x="179" y="290" on="1"/>
        <pt x="179" y="107" on="1"/>
        <pt x="257" y="107" on="1"/>
        <pt x="288" y="107" on="0"/>
        <pt x="318" y="135" on="0"/>
        <pt x="318" y="165" on="1"/>
      </contour>
    </TTGlyph>
    <TTGlyph name="C" xMin="42" yMin="-5" xMax="378" yMax="692">
      <contour>
        <pt x="42" y="607" on="0"/>
        <pt x="147" y="692" on="0"/>
        <pt x="252" y="692" on="1"/>
        <pt x="321" y="692" on="0"/>
        <pt x="375" y="677" on="1"/>
        <pt x="375" y="560" on="1"/>
        <pt x="321" y="577" on="0"/>
        <pt x="254" y="577" on="1"/>
        <pt x="208" y="577" on="0"/>
        <pt x="170" y="548" on="0"/>
        <pt x="170" y="519" on="1"/>
        <pt x="170" y="167" on="1"/>
        <pt x="170" y="139" on="0"/>
        <pt x="208" y="110" on="0"/>
        <pt x="254" y="110" on="1"/>
        <pt x="330" y="110" on="0"/>
        <pt x="378" y="125" on="1"/>
        <pt x="378" y="10" on="1"/>
        <pt x="355" y="4" on="0"/>
        <pt x="286" y="-5" on="0"/>
        <pt x="251" y="-5" on="1"/>
        <pt x="145" y="-5" on="0"/>
        <pt x="42" y="78" on="0"/>
        <pt x="42" y="155" on="1"/>
        <pt x="42" y="531" on="1"/>
      </contour>
    </TTGlyph>
    <TTGlyph name="Cacute" xMin="42" yMin="-5" xMax="378" yMax="839">
      <component glyphName="C" x="0" y="0" flags="0x0"/>
      <component glyphName="acute" x="101" y="100" flags="0x4"/>
    </TTGlyph>
    <TTGlyph name="Ccaron" xMin="42" yMin="-5" xMax="378" yMax="839">
      <component glyphName="C" x="0" y="0" flags="0x0"/>
      <component glyphName="caron" x="64" y="100" flags="0x4"/>
    </TTGlyph>
    <TTGlyph name="Ccedilla" xMin="42" yMin="-188" xMax="378" yMax="692">
      <component glyphName="C" x="0" y="0" flags="0x0"/>
      <component glyphName="cedilla" x="60" y="0" flags="0x0"/>
    </TTGlyph>
    <TTGlyph name="D" xMin="52" yMin="0" xMax="443" yMax="687">
      <contour>
        <pt x="356" y="687" on="0"/>
        <pt x="443" y="608" on="0"/>
        <pt x="443" y="534" on="1"/>
        <pt x="443" y="160" on="1"/>
        <pt x="443" y="84" on="0"/>
        <pt x="365" y="0" on="0"/>
        <pt x="283" y="0" on="1"/>
        <pt x="52" y="0" on="1"/>
        <pt x="52" y="687" on="1"/>
        <pt x="276" y="687" on="1"/>
      </contour>
      <contour>
        <pt x="316" y="554" on="0"/>
        <pt x="291" y="582" on="0"/>
        <pt x="259" y="582" on="1"/>
        <pt x="179" y="582" on="1"/>
        <pt x="179" y="110" on="1"/>
        <pt x="259" y="110" on="1"/>
        <pt x="291" y="110" on="0"/>
        <pt x="316" y="141" on="0"/>
        <pt x="316" y="169" on="1"/>
        <pt x="316" y="529" on="1"/>
      </contour>
    </TTGlyph>
    <TTGlyph name="Dcaron" xMin="52" yMin="0" xMax="443" yMax="839">
      <component glyphName="D" x="0" y="0" flags="0x0"/>
      <component glyphName="caron" x="57" y="100" flags="0x4"/>
    </TTGlyph>
    <TTGlyph name="Dcroat" xMin="-3" yMin="0" xMax="451" yMax="687">
      <contour>
        <pt x="364" y="687" on="0"/>
        <pt x="451" y="608" on="0"/>
        <pt x="451" y="534" on="1"/>
        <pt x="451" y="160" on="1"/>
        <pt x="451" y="84" on="0"/>
        <pt x="373" y="0" on="0"/>
        <pt x="291" y="0" on="1"/>
        <pt x="60" y="0" on="1"/>
        <pt x="60" y="286" on="1"/>
        <pt x="-3" y="286" on="1"/>
        <pt x="-3" y="392" on="1"/>
        <pt x="60" y="392" on="1"/>
        <pt x="60" y="687" on="1"/>
        <pt x="284" y="687" on="1"/>
      </contour>
      <contour>
        <pt x="324" y="529" on="1"/>
        <pt x="324" y="554" on="0"/>
        <pt x="299" y="582" on="0"/>
        <pt x="267" y="582" on="1"/>
        <pt x="187" y="582" on="1"/>
        <pt x="187" y="392" on="1"/>
        <pt x="256" y="392" on="1"/>
        <pt x="256" y="286" on="1"/>
        <pt x="187" y="286" on="1"/>
        <pt x="187" y="110" on="1"/>
        <pt x="267" y="110" on="1"/>
        <pt x="299" y="110" on="0"/>
        <pt x="324" y="141" on="0"/>
        <pt x="324" y="169" on="1"/>
      </contour>
    </TTGlyph>
    <TTGlyph name="E" xMin="52" yMin="0" xMax="386" yMax="687">
      <contour>
        <pt x="386" y="576" on="1"/>
        <pt x="179" y="576" on="1"/>
        <pt x="179" y="403" on="1"/>
        <pt x="358" y="403" on="1"/>
        <pt x="358" y="292" on="1"/>
        <pt x="179" y="292" on="1"/>
        <pt x="179" y="110" on="1"/>
        <pt x="386" y="110" on="1"/>
        <pt x="386" y="0" on="1"/>
        <pt x="52" y="0" on="1"/>
        <pt x="52" y="687" on="1"/>
        <pt x="386" y="687" on="1"/>
      </contour>
    </TTGlyph>
    <TTGlyph name="Eacute" xMin="52" yMin="0" xMax="386" yMax="839">
      <component glyphName="E" x="0" y="0" flags="0x0"/>
      <component glyphName="acute" x="76" y="100" flags="0x4"/>
    </TTGlyph>
    <TTGlyph name="Ecaron" xMin="52" yMin="0" xMax="386" yMax="839">
      <component glyphName="E" x="0" y="0" flags="0x0"/>
      <component glyphName="caron" x="41" y="100" flags="0x4"/>
    </TTGlyph>
    <TTGlyph name="Ecircumflex" xMin="52" yMin="0" xMax="386" yMax="839">
      <component glyphName="E" x="0" y="0" flags="0x0"/>
      <component glyphName="circumflex" x="38" y="100" flags="0x4"/>
    </TTGlyph>
    <TTGlyph name="Edieresis" xMin="52" yMin="0" xMax="386" yMax="832">
      <component glyphName="E" x="0" y="0" flags="0x0"/>
      <component glyphName="dieresis" x="45" y="100" flags="0x4"/>
    </TTGlyph>
    <TTGlyph name="Edotaccent" xMin="52" yMin="0" xMax="386" yMax="839">
      <component glyphName="E" x="0" y="0" flags="0x0"/>
      <component glyphName="dotaccent" x="46" y="100" flags="0x4"/>
    </TTGlyph>
    <TTGlyph name="Egrave" xMin="52" yMin="0" xMax="386" yMax="839">
      <component glyphName="E" x="0" y="0" flags="0x0"/>
      <component glyphName="grave" x="10" y="100" flags="0x4"/>
    </TTGlyph>
    <TTGlyph name="Emacron" xMin="52" yMin="0" xMax="386" yMax="817">
      <component glyphName="E" x="0" y="0" flags="0x0"/>
      <component glyphName="macron" x="41" y="100" flags="0x4"/>
    </TTGlyph>
    <TTGlyph name="Eogonek" xMin="52" yMin="-193" xMax="386" yMax="687">
      <component glyphName="E" x="0" y="0" flags="0x0"/>
      <component glyphName="ogonek" x="153" y="0" flags="0x0"/>
    </TTGlyph>
    <TTGlyph name="Eth" xMin="-7" yMin="0" xMax="451" yMax="687">
      <contour>
        <pt x="364" y="687" on="0"/>
        <pt x="451" y="608" on="0"/>
        <pt x="451" y="534" on="1"/>
        <pt x="451" y="160" on="1"/>
        <pt x="451" y="84" on="0"/>
        <pt x="373" y="0" on="0"/>
        <pt x="291" y="0" on="1"/>
        <pt x="60" y="0" on="1"/>
        <pt x="60" y="285" on="1"/>
        <pt x="-7" y="285" on="1"/>
        <pt x="-7" y="391" on="1"/>
        <pt x="60" y="391" on="1"/>
        <pt x="60" y="687" on="1"/>
        <pt x="284" y="687" on="1"/>
      </contour>
      <contour>
        <pt x="324" y="529" on="1"/>
        <pt x="324" y="554" on="0"/>
        <pt x="299" y="582" on="0"/>
        <pt x="267" y="582" on="1"/>
        <pt x="187" y="582" on="1"/>
        <pt x="187" y="391" on="1"/>
        <pt x="258" y="391" on="1"/>
        <pt x="258" y="285" on="1"/>
        <pt x="187" y="285" on="1"/>
        <pt x="187" y="110" on="1"/>
        <pt x="267" y="110" on="1"/>
        <pt x="299" y="110" on="0"/>
        <pt x="324" y="141" on="0"/>
        <pt x="324" y="169" on="1"/>
      </contour>
    </TTGlyph>
    <TTGlyph name="Euro" xMin="18" yMin="-5" xMax="406" yMax="692">
      <contour>
        <pt x="358" y="110" on="0"/>
        <pt x="406" y="125" on="1"/>
        <pt x="406" y="10" on="1"/>
        <pt x="383" y="4" on="0"/>
        <pt x="314" y="-5" on="0"/>
        <pt x="279" y="-5" on="1"/>
        <pt x="173" y="-5" on="0"/>
        <pt x="70" y="78" on="0"/>
        <pt x="70" y="155" on="1"/>
        <pt x="70" y="236" on="1"/>
        <pt x="18" y="236" on="1"/>
        <pt x="18" y="321" on="1"/>
        <pt x="70" y="321" on="1"/>
        <pt x="70" y="373" on="1"/>
        <pt x="18" y="373" on="1"/>
        <pt x="18" y="457" on="1"/>
        <pt x="70" y="457" on="1"/>
        <pt x="70" y="531" on="1"/>
        <pt x="70" y="607" on="0"/>
        <pt x="175" y="692" on="0"/>
        <pt x="280" y="692" on="1"/>
        <pt x="349" y="692" on="0"/>
        <pt x="403" y="677" on="1"/>
        <pt x="403" y="560" on="1"/>
        <pt x="349" y="577" on="0"/>
        <pt x="282" y="577" on="1"/>
        <pt x="236" y="577" on="0"/>
        <pt x="198" y="548" on="0"/>
        <pt x="198" y="519" on="1"/>
        <pt x="198" y="457" on="1"/>
        <pt x="315" y="457" on="1"/>
        <pt x="315" y="373" on="1"/>
        <pt x="198" y="373" on="1"/>
        <pt x="198" y="321" on="1"/>
        <pt x="315" y="321" on="1"/>
        <pt x="315" y="236" on="1"/>
        <pt x="198" y="236" on="1"/>
        <pt x="198" y="167" on="1"/>
        <pt x="198" y="139" on="0"/>
        <pt x="236" y="110" on="0"/>
        <pt x="282" y="110" on="1"/>
      </contour>
    </TTGlyph>
    <TTGlyph name="F" xMin="52" yMin="0" xMax="377" yMax="687">
      <contour>
        <pt x="377" y="576" on="1"/>
        <pt x="180" y="576" on="1"/>
        <pt x="180" y="381" on="1"/>
        <pt x="364" y="381" on="1"/>
        <pt x="364" y="268" on="1"/>
        <pt x="180" y="268" on="1"/>
        <pt x="180" y="0" on="1"/>
        <pt x="52" y="0" on="1"/>
        <pt x="52" y="687" on="1"/>
        <pt x="377" y="687" on="1"/>
      </contour>
    </TTGlyph>
    <TTGlyph name="G" xMin="42" yMin="-5" xMax="423" yMax="692">
      <contour>
        <pt x="42" y="603" on="0"/>
        <pt x="154" y="692" on="0"/>
        <pt x="261" y="692" on="1"/>
        <pt x="300" y="692" on="0"/>
        <pt x="373" y="681" on="0"/>
        <pt x="397" y="673" on="1"/>
        <pt x="397" y="553" on="1"/>
        <pt x="370" y="563" on="0"/>
        <pt x="299" y="575" on="0"/>
        <pt x="263" y="575" on="1"/>
        <pt x="215" y="575" on="0"/>
        <pt x="170" y="542" on="0"/>
        <pt x="170" y="513" on="1"/>
        <pt x="170" y="168" on="1"/>
        <pt x="170" y="138" on="0"/>
        <pt x="206" y="109" on="0"/>
        <pt x="247" y="109" on="1"/>
        <pt x="263" y="109" on="0"/>
        <pt x="292" y="117" on="0"/>
        <pt x="299" y="121" on="1"/>
        <pt x="299" y="360" on="1"/>
        <pt x="423" y="360" on="1"/>
        <pt x="423" y="36" on="1"/>
        <pt x="389" y="17" on="0"/>
        <pt x="311" y="-5" on="0"/>
        <pt x="249" y="-5" on="1"/>
        <pt x="147" y="-5" on="0"/>
        <pt x="42" y="77" on="0"/>
        <pt x="42" y="155" on="1"/>
        <pt x="42" y="527" on="1"/>
      </contour>
    </TTGlyph>
    <TTGlyph name="Gbreve" xMin="42" yMin="-5" xMax="423" yMax="839">
      <component glyphName="G" x="0" y="0" flags="0x0"/>
      <component glyphName="breve" x="70" y="100" flags="0x4"/>
    </TTGlyph>
    <TTGlyph name="H" xMin="52" yMin="0" xMax="469" yMax="687">
      <contour>
        <pt x="469" y="687" on="1"/>
        <pt x="469" y="0" on="1"/>
        <pt x="341" y="0" on="1"/>
        <pt x="341" y="281" on="1"/>
        <pt x="180" y="281" on="1"/>
        <pt x="180" y="0" on="1"/>
        <pt x="52" y="0" on="1"/>
        <pt x="52" y="687" on="1"/>
        <pt x="180" y="687" on="1"/>
        <pt x="180" y="394" on="1"/>
        <pt x="341" y="394" on="1"/>
        <pt x="341" y="687" on="1"/>
      </contour>
    </TTGlyph>
    <TTGlyph name="I" xMin="52" yMin="0" xMax="180" yMax="687">
      <contour>
        <pt x="180" y="0" on="1"/>
        <pt x="52" y="0" on="1"/>
        <pt x="52" y="687" on="1"/>
        <pt x="180" y="687" on="1"/>
      </contour>
    </TTGlyph>
    <TTGlyph name="Iacute" xMin="52" yMin="0" xMax="218" yMax="839">
      <component glyphName="I" x="0" y="0" flags="0x0"/>
      <component glyphName="acute" x="-27" y="100" flags="0x4"/>
    </TTGlyph>
    <TTGlyph name="Icircumflex" xMin="14" yMin="0" xMax="221" yMax="839">
      <component glyphName="I" x="0" y="0" flags="0x0"/>
      <component glyphName="circumflex" x="-57" y="100" flags="0x4"/>
    </TTGlyph>
    <TTGlyph name="Idieresis" xMin="-17" yMin="0" xMax="248" yMax="832">
      <component glyphName="I" x="0" y="0" flags="0x0"/>
      <component glyphName="dieresis" x="-60" y="100" flags="0x4"/>
    </TTGlyph>
    <TTGlyph name="Idotaccent" xMin="52" yMin="0" xMax="180" yMax="839">
      <component glyphName="I" x="0" y="0" flags="0x0"/>
      <component glyphName="dotaccent" x="-60" y="100" flags="0x4"/>
    </TTGlyph>
    <TTGlyph name="Igrave" xMin="14" yMin="0" xMax="180" yMax="839">
      <component glyphName="I" x="0" y="0" flags="0x0"/>
      <component glyphName="grave" x="-91" y="100" flags="0x4"/>
    </TTGlyph>
    <TTGlyph name="Imacron" xMin="-8" yMin="0" xMax="246" yMax="817">
      <component glyphName="I" x="0" y="0" flags="0x0"/>
      <component glyphName="macron" x="-56" y="100" flags="0x4"/>
    </TTGlyph>
    <TTGlyph name="Iogonek" xMin="52" yMin="-193" xMax="180" yMax="687">
      <component glyphName="I" x="0" y="0" flags="0x0"/>
      <component glyphName="ogonek" x="-52" y="0" flags="0x0"/>
    </TTGlyph>
    <TTGlyph name="J" xMin="-15" yMin="-149" xMax="184" yMax="687">
      <contour>
        <pt x="184" y="205" on="1"/>
        <pt x="184" y="124" on="0"/>
        <pt x="170" y="20" on="0"/>
        <pt x="150" y="-46" on="1"/>
        <pt x="119" y="-149" on="1"/>
        <pt x="-15" y="-149" on="1"/>
        <pt x="15" y="-45" on="1"/>
        <pt x="37" y="31" on="0"/>
        <pt x="56" y="137" on="0"/>
        <pt x="56" y="204" on="1"/>
        <pt x="56" y="687" on="1"/>
        <pt x="184" y="687" on="1"/>
      </contour>
    </TTGlyph>
    <TTGlyph name="K" xMin="52" yMin="0" xMax="462" yMax="687">
      <contour>
        <pt x="179" y="0" on="1"/>
        <pt x="52" y="0" on="1"/>
        <pt x="52" y="687" on="1"/>
        <pt x="179" y="687" on="1"/>
      </contour>
      <contour>
        <pt x="320" y="352" on="1"/>
        <pt x="462" y="0" on="1"/>
        <pt x="321" y="0" on="1"/>
        <pt x="187" y="350" on="1"/>
        <pt x="315" y="687" on="1"/>
        <pt x="451" y="687" on="1"/>
      </contour>
    </TTGlyph>
    <TTGlyph name="L" xMin="52" yMin="0" xMax="371" yMax="687">
      <contour>
        <pt x="180" y="107" on="1"/>
        <pt x="371" y="107" on="1"/>
        <pt x="371" y="0" on="1"/>
        <pt x="52" y="0" on="1"/>
        <pt x="52" y="687" on="1"/>
        <pt x="180" y="687" on="1"/>
      </contour>
    </TTGlyph>
    <TTGlyph name="Lacute" xMin="52" yMin="0" xMax="371" yMax="839">
      <component glyphName="L" x="0" y="0" flags="0x0"/>
      <component glyphName="acute" x="-27" y="100" flags="0x4"/>
    </TTGlyph>
    <TTGlyph name="Lcaron" xMin="52" yMin="0" xMax="371" yMax="739">
      <contour>
        <pt x="316" y="739" on="0"/>
        <pt x="316" y="709" on="1"/>
        <pt x="316" y="687" on="0"/>
        <pt x="279" y="618" on="0"/>
        <pt x="261" y="593" on="1"/>
        <pt x="217" y="593" on="1"/>
        <pt x="243" y="739" on="1"/>
        <pt x="283" y="739" on="1"/>
      </contour>
      <contour>
        <pt x="180" y="107" on="1"/>
        <pt x="371" y="107" on="1"/>
        <pt x="371" y="0" on="1"/>
        <pt x="52" y="0" on="1"/>
        <pt x="52" y="687" on="1"/>
        <pt x="180" y="687" on="1"/>
      </contour>
    </TTGlyph>
    <TTGlyph name="Lslash" xMin="5" yMin="0" xMax="379" yMax="687">
      <contour>
        <pt x="379" y="107" on="1"/>
        <pt x="379" y="0" on="1"/>
        <pt x="60" y="0" on="1"/>
        <pt x="60" y="268" on="1"/>
        <pt x="5" y="244" on="1"/>
        <pt x="5" y="331" on="1"/>
        <pt x="60" y="355" on="1"/>
        <pt x="60" y="687" on="1"/>
        <pt x="188" y="687" on="1"/>
        <pt x="188" y="411" on="1"/>
        <pt x="277" y="450" on="1"/>
        <pt x="277" y="362" on="1"/>
        <pt x="188" y="323" on="1"/>
        <pt x="188" y="107" on="1"/>
      </contour>
    </TTGlyph>
    <TTGlyph name="M" xMin="52" yMin="0" xMax="586" yMax="687">
      <contour>
        <pt x="586" y="0" on="1"/>
        <pt x="463" y="0" on="1"/>
        <pt x="463" y="274" on="1"/>
        <pt x="463" y="324" on="0"/>
        <pt x="470" y="414" on="0"/>
        <pt x="478" y="470" on="0"/>
        <pt x="479" y="477" on="1"/>
        <pt x="371" y="177" on="1"/>
        <pt x="266" y="177" on="1"/>
        <pt x="158" y="477" on="1"/>
        <pt x="159" y="470" on="0"/>
        <pt x="167" y="413" on="0"/>
        <pt x="174" y="323" on="0"/>
        <pt x="174" y="274" on="1"/>
        <pt x="174" y="0" on="1"/>
        <pt x="52" y="0" on="1"/>
        <pt x="52" y="687" on="1"/>
        <pt x="186" y="687" on="1"/>
        <pt x="318" y="313" on="1"/>
        <pt x="451" y="687" on="1"/>
        <pt x="586" y="687" on="1"/>
      </contour>
    </TTGlyph>
    <TTGlyph name="N" xMin="52" yMin="0" xMax="471" yMax="687">
      <contour>
        <pt x="471" y="0" on="1"/>
        <pt x="345" y="0" on="1"/>
        <pt x="239" y="270" on="1"/>
        <pt x="198" y="375" on="0"/>
        <pt x="164" y="477" on="1"/>
        <pt x="157" y="497" on="1"/>
        <pt x="158" y="491" on="0"/>
        <pt x="177" y="367" on="0"/>
        <pt x="177" y="229" on="1"/>
        <pt x="177" y="0" on="1"/>
        <pt x="52" y="0" on="1"/>
        <pt x="52" y="687" on="1"/>
        <pt x="181" y="687" on="1"/>
        <pt x="285" y="421" on="1"/>
        <pt x="319" y="334" on="0"/>
        <pt x="355" y="224" on="0"/>
        <pt x="358" y="215" on="1"/>
        <pt x="365" y="194" on="1"/>
        <pt x="365" y="199" on="0"/>
        <pt x="362" y="217" on="1"/>
        <pt x="355" y="271" on="0"/>
        <pt x="345" y="381" on="0"/>
        <pt x="345" y="465" on="1"/>
        <pt x="345" y="687" on="1"/>
        <pt x="471" y="687" on="1"/>
      </contour>
    </TTGlyph>
    <TTGlyph name="Nacute" xMin="52" yMin="0" xMax="471" yMax="839">
      <component glyphName="N" x="0" y="0" flags="0x0"/>
      <component glyphName="acute" x="111" y="100" flags="0x4"/>
    </TTGlyph>
    <TTGlyph name="Ncaron" xMin="52" yMin="0" xMax="471" yMax="839">
      <component glyphName="N" x="0" y="0" flags="0x0"/>
      <component glyphName="caron" x="81" y="100" flags="0x4"/>
    </TTGlyph>
    <TTGlyph name="Ntilde" xMin="52" yMin="0" xMax="471" yMax="835">
      <component glyphName="N" x="0" y="0" flags="0x0"/>
      <component glyphName="tilde" x="93" y="100" flags="0x4"/>
    </TTGlyph>
    <TTGlyph name="O" xMin="42" yMin="-10" xMax="438" yMax="697">
      <contour>
        <pt x="42" y="603" on="0"/>
        <pt x="142" y="697" on="0"/>
        <pt x="239" y="697" on="1"/>
        <pt x="336" y="697" on="0"/>
        <pt x="438" y="603" on="0"/>
        <pt x="438" y="524" on="1"/>
        <pt x="438" y="163" on="1"/>
        <pt x="438" y="84" on="0"/>
        <pt x="336" y="-10" on="0"/>
        <pt x="239" y="-10" on="1"/>
        <pt x="142" y="-10" on="0"/>
        <pt x="42" y="84" on="0"/>
        <pt x="42" y="163" on="1"/>
        <pt x="42" y="524" on="1"/>
      </contour>
      <contour>
        <pt x="311" y="547" on="0"/>
        <pt x="276" y="581" on="0"/>
        <pt x="239" y="581" on="1"/>
        <pt x="169" y="581" on="0"/>
        <pt x="169" y="518" on="1"/>
        <pt x="169" y="169" on="1"/>
        <pt x="169" y="106" on="0"/>
        <pt x="239" y="106" on="1"/>
        <pt x="311" y="106" on="0"/>
        <pt x="311" y="169" on="1"/>
        <pt x="311" y="518" on="1"/>
      </contour>
    </TTGlyph>
    <TTGlyph name="OE" xMin="62" yMin="0" xMax="672" yMax="687">
      <contour>
        <pt x="465" y="576" on="1"/>
        <pt x="465" y="403" on="1"/>
        <pt x="644" y="403" on="1"/>
        <pt x="644" y="292" on="1"/>
        <pt x="465" y="292" on="1"/>
        <pt x="465" y="110" on="1"/>
        <pt x="672" y="110" on="1"/>
        <pt x="672" y="0" on="1"/>
        <pt x="222" y="0" on="1"/>
        <pt x="140" y="0" on="0"/>
        <pt x="62" y="84" on="0"/>
        <pt x="62" y="160" on="1"/>
        <pt x="62" y="534" on="1"/>
        <pt x="62" y="608" on="0"/>
        <pt x="149" y="687" on="0"/>
        <pt x="229" y="687" on="1"/>
        <pt x="672" y="687" on="1"/>
        <pt x="672" y="576" on="1"/>
      </contour>
      <contour>
        <pt x="338" y="110" on="1"/>
        <pt x="338" y="582" on="1"/>
        <pt x="246" y="582" on="1"/>
        <pt x="214" y="582" on="0"/>
        <pt x="189" y="554" on="0"/>
        <pt x="189" y="529" on="1"/>
        <pt x="189" y="169" on="1"/>
        <pt x="189" y="141" on="0"/>
        <pt x="214" y="110" on="0"/>
        <pt x="246" y="110" on="1"/>
      </contour>
    </TTGlyph>
    <TTGlyph name="Oacute" xMin="42" yMin="-10" xMax="438" yMax="839">
      <component glyphName="O" x="0" y="0" flags="0x0"/>
      <component glyphName="acute" x="106" y="100" flags="0x4"/>
    </TTGlyph>
    <TTGlyph name="Ocircumflex" xMin="42" yMin="-10" xMax="438" yMax="839">
      <component glyphName="O" x="0" y="0" flags="0x0"/>
      <component glyphName="circumflex" x="66" y="100" flags="0x4"/>
    </TTGlyph>
    <TTGlyph name="Odieresis" xMin="42" yMin="-10" xMax="438" yMax="832">
      <component glyphName="O" x="0" y="0" flags="0x0"/>
      <component glyphName="dieresis" x="64" y="100" flags="0x4"/>
    </TTGlyph>
    <TTGlyph name="Ograve" xMin="42" yMin="-10" xMax="438" yMax="839">
      <component glyphName="O" x="0" y="0" flags="0x0"/>
      <component glyphName="grave" x="26" y="100" flags="0x4"/>
    </TTGlyph>
    <TTGlyph name="Ohungarumlaut" xMin="42" yMin="-10" xMax="438" yMax="839">
      <component glyphName="O" x="0" y="0" flags="0x0"/>
      <component glyphName="hungarumlaut" x="97" y="100" flags="0x4"/>
    </TTGlyph>
    <TTGlyph name="Omacron" xMin="42" yMin="-10" xMax="438" yMax="817">
      <component glyphName="O" x="0" y="0" flags="0x0"/>
      <component glyphName="macron" x="66" y="100" flags="0x4"/>
    </TTGlyph>
    <TTGlyph name="Oslash" xMin="38" yMin="-10" xMax="442" yMax="697">
      <contour>
        <pt x="411" y="622" on="1"/>
        <pt x="438" y="582" on="0"/>
        <pt x="438" y="524" on="1"/>
        <pt x="438" y="163" on="1"/>
        <pt x="438" y="84" on="0"/>
        <pt x="336" y="-10" on="0"/>
        <pt x="239" y="-10" on="1"/>
        <pt x="171" y="-10" on="0"/>
        <pt x="124" y="15" on="1"/>
        <pt x="117" y="0" on="1"/>
        <pt x="38" y="0" on="1"/>
        <pt x="69" y="65" on="1"/>
        <pt x="42" y="106" on="0"/>
        <pt x="42" y="163" on="1"/>
        <pt x="42" y="524" on="1"/>
        <pt x="42" y="603" on="0"/>
        <pt x="142" y="697" on="0"/>
        <pt x="239" y="697" on="1"/>
        <pt x="308" y="697" on="0"/>
        <pt x="355" y="672" on="1"/>
        <pt x="362" y="687" on="1"/>
        <pt x="442" y="687" on="1"/>
      </contour>
      <contour>
        <pt x="169" y="278" on="1"/>
        <pt x="300" y="556" on="1"/>
        <pt x="283" y="581" on="0"/>
        <pt x="239" y="581" on="1"/>
        <pt x="169" y="581" on="0"/>
        <pt x="169" y="518" on="1"/>
      </contour>
      <contour>
        <pt x="311" y="410" on="1"/>
        <pt x="179" y="131" on="1"/>
        <pt x="195" y="106" on="0"/>
        <pt x="239" y="106" on="1"/>
        <pt x="311" y="106" on="0"/>
        <pt x="311" y="169" on="1"/>
      </contour>
    </TTGlyph>
    <TTGlyph name="Otilde" xMin="42" yMin="-10" xMax="438" yMax="835">
      <component glyphName="O" x="0" y="0" flags="0x0"/>
      <component glyphName="tilde" x="63" y="100" flags="0x4"/>
    </TTGlyph>
    <TTGlyph name="P" xMin="52" yMin="0" xMax="430" yMax="687">
      <contour>
        <pt x="341" y="687" on="0"/>
        <pt x="430" y="608" on="0"/>
        <pt x="430" y="534" on="1"/>
        <pt x="430" y="362" on="1"/>
        <pt x="430" y="288" on="0"/>
        <pt x="341" y="209" on="0"/>
        <pt x="260" y="209" on="1"/>
        <pt x="180" y="209" on="1"/>
        <pt x="180" y="0" on="1"/>
        <pt x="52" y="0" on="1"/>
        <pt x="52" y="687" on="1"/>
        <pt x="260" y="687" on="1"/>
      </contour>
      <contour>
        <pt x="303" y="549" on="0"/>
        <pt x="275" y="576" on="0"/>
        <pt x="245" y="576" on="1"/>
        <pt x="180" y="576" on="1"/>
        <pt x="180" y="319" on="1"/>
        <pt x="245" y="319" on="1"/>
        <pt x="275" y="319" on="0"/>
        <pt x="303" y="347" on="0"/>
        <pt x="303" y="376" on="1"/>
        <pt x="303" y="520" on="1"/>
      </contour>
    </TTGlyph>
    <TTGlyph name="Q" xMin="42" yMin="-91" xMax="489" yMax="697">
      <contour>
        <pt x="338" y="-91" on="1"/>
        <pt x="261" y="-9" on="1"/>
        <pt x="254" y="-10" on="0"/>
        <pt x="239" y="-10" on="1"/>
        <pt x="142" y="-10" on="0"/>
        <pt x="42" y="84" on="0"/>
        <pt x="42" y="163" on="1"/>
        <pt x="42" y="524" on="1"/>
        <pt x="42" y="603" on="0"/>
        <pt x="142" y="697" on="0"/>
        <pt x="239" y="697" on="1"/>
        <pt x="336" y="697" on="0"/>
        <pt x="438" y="603" on="0"/>
        <pt x="438" y="524" on="1"/>
        <pt x="438" y="163" on="1"/>
        <pt x="438" y="120" on="0"/>
        <pt x="406" y="50" on="0"/>
        <pt x="375" y="28" on="1"/>
        <pt x="489" y="-91" on="1"/>
      </contour>
      <contour>
        <pt x="169" y="169" on="1"/>
        <pt x="169" y="106" on="0"/>
        <pt x="239" y="106" on="1"/>
        <pt x="311" y="106" on="0"/>
        <pt x="311" y="169" on="1"/>
        <pt x="311" y="518" on="1"/>
        <pt x="311" y="547" on="0"/>
        <pt x="276" y="581" on="0"/>
        <pt x="239" y="581" on="1"/>
        <pt x="169" y="581" on="0"/>
        <pt x="169" y="518" on="1"/>
      </contour>
    </TTGlyph>
    <TTGlyph name="R" xMin="52" yMin="0" xMax="455" yMax="687">
      <contour>
        <pt x="316" y="0" on="1"/>
        <pt x="221" y="256" on="1"/>
        <pt x="179" y="256" on="1"/>
        <pt x="179" y="0" on="1"/>
        <pt x="52" y="0" on="1"/>
        <pt x="52" y="687" on="1"/>
        <pt x="260" y="687" on="1"/>
        <pt x="341" y="687" on="0"/>
        <pt x="430" y="608" on="0"/>
        <pt x="430" y="534" on="1"/>
        <pt x="430" y="415" on="1"/>
        <pt x="430" y="357" on="0"/>
        <pt x="390" y="283" on="0"/>
        <pt x="347" y="267" on="1"/>
        <pt x="455" y="0" on="1"/>
      </contour>
      <contour>
        <pt x="179" y="358" on="1"/>
        <pt x="247" y="358" on="1"/>
        <pt x="277" y="358" on="0"/>
        <pt x="303" y="386" on="0"/>
        <pt x="303" y="417" on="1"/>
        <pt x="303" y="524" on="1"/>
        <pt x="303" y="553" on="0"/>
        <pt x="276" y="578" on="0"/>
        <pt x="247" y="578" on="1"/>
        <pt x="179" y="578" on="1"/>
      </contour>
    </TTGlyph>
    <TTGlyph name="Racute" xMin="52" yMin="0" xMax="455" yMax="839">
      <component glyphName="R" x="0" y="0" flags="0x0"/>
      <component glyphName="acute" x="85" y="100" flags="0x4"/>
    </TTGlyph>
    <TTGlyph name="Rcaron" xMin="52" yMin="0" xMax="455" yMax="839">
      <component glyphName="R" x="0" y="0" flags="0x0"/>
      <component glyphName="caron" x="50" y="100" flags="0x4"/>
    </TTGlyph>
    <TTGlyph name="S" xMin="22" yMin="-5" xMax="402" yMax="692">
      <contour>
        <pt x="22" y="608" on="0"/>
        <pt x="124" y="692" on="0"/>
        <pt x="228" y="692" on="1"/>
        <pt x="274" y="692" on="0"/>
        <pt x="346" y="680" on="0"/>
        <pt x="366" y="672" on="1"/>
        <pt x="366" y="550" on="1"/>
        <pt x="309" y="574" on="0"/>
        <pt x="231" y="574" on="1"/>
        <pt x="187" y="574" on="0"/>
        <pt x="152" y="545" on="0"/>
        <pt x="152" y="517" on="1"/>
        <pt x="152" y="493" on="1"/>
        <pt x="152" y="463" on="0"/>
        <pt x="174" y="433" on="0"/>
        <pt x="206" y="415" on="1"/>
        <pt x="320" y="350" on="1"/>
        <pt x="362" y="328" on="0"/>
        <pt x="402" y="264" on="0"/>
        <pt x="402" y="216" on="1"/>
        <pt x="402" y="156" on="1"/>
        <pt x="402" y="79" on="0"/>
        <pt x="290" y="-5" on="0"/>
        <pt x="179" y="-5" on="1"/>
        <pt x="133" y="-5" on="0"/>
        <pt x="50" y="9" on="0"/>
        <pt x="30" y="17" on="1"/>
        <pt x="30" y="140" on="1"/>
        <pt x="58" y="129" on="0"/>
        <pt x="137" y="113" on="0"/>
        <pt x="178" y="113" on="1"/>
        <pt x="227" y="113" on="0"/>
        <pt x="274" y="145" on="0"/>
        <pt x="274" y="172" on="1"/>
        <pt x="274" y="195" on="1"/>
        <pt x="274" y="220" on="0"/>
        <pt x="254" y="248" on="0"/>
        <pt x="226" y="263" on="1"/>
        <pt x="116" y="322" on="1"/>
        <pt x="71" y="348" on="0"/>
        <pt x="22" y="419" on="0"/>
        <pt x="22" y="471" on="1"/>
        <pt x="22" y="532" on="1"/>
      </contour>
    </TTGlyph>
    <TTGlyph name="Sacute" xMin="22" yMin="-5" xMax="402" yMax="839">
      <component glyphName="S" x="0" y="0" flags="0x0"/>
      <component glyphName="acute" x="74" y="100" flags="0x4"/>
    </TTGlyph>
    <TTGlyph name="Scaron" xMin="22" yMin="-5" xMax="402" yMax="839">
      <component glyphName="S" x="0" y="0" flags="0x0"/>
      <component glyphName="caron" x="35" y="100" flags="0x4"/>
    </TTGlyph>
    <TTGlyph name="T" xMin="6" yMin="0" xMax="388" yMax="687">
      <contour>
        <pt x="388" y="576" on="1"/>
        <pt x="261" y="576" on="1"/>
        <pt x="261" y="0" on="1"/>
        <pt x="133" y="0" on="1"/>
        <pt x="133" y="576" on="1"/>
        <pt x="6" y="576" on="1"/>
        <pt x="6" y="687" on="1"/>
        <pt x="388" y="687" on="1"/>
      </contour>
    </TTGlyph>
    <TTGlyph name="Tcaron" xMin="6" yMin="0" xMax="388" yMax="839">
      <component glyphName="T" x="0" y="0" flags="0x0"/>
      <component glyphName="caron" x="21" y="100" flags="0x4"/>
    </TTGlyph>
    <TTGlyph name="Thorn" xMin="62" yMin="0" xMax="431" yMax="687">
      <contour>
        <pt x="341" y="579" on="0"/>
        <pt x="431" y="499" on="0"/>
        <pt x="431" y="425" on="1"/>
        <pt x="431" y="262" on="1"/>
        <pt x="431" y="188" on="0"/>
        <pt x="341" y="109" on="0"/>
        <pt x="260" y="109" on="1"/>
        <pt x="184" y="109" on="1"/>
        <pt x="184" y="0" on="1"/>
        <pt x="62" y="0" on="1"/>
        <pt x="62" y="687" on="1"/>
        <pt x="184" y="687" on="1"/>
        <pt x="184" y="579" on="1"/>
        <pt x="260" y="579" on="1"/>
      </contour>
      <contour>
        <pt x="309" y="413" on="1"/>
        <pt x="309" y="442" on="0"/>
        <pt x="281" y="470" on="0"/>
        <pt x="250" y="470" on="1"/>
        <pt x="184" y="470" on="1"/>
        <pt x="184" y="218" on="1"/>
        <pt x="250" y="218" on="1"/>
        <pt x="281" y="218" on="0"/>
        <pt x="309" y="246" on="0"/>
        <pt x="309" y="274" on="1"/>
      </contour>
    </TTGlyph>
    <TTGlyph name="U" xMin="47" yMin="-10" xMax="440" yMax="687">
      <contour>
        <pt x="440" y="163" on="1"/>
        <pt x="440" y="84" on="0"/>
        <pt x="340" y="-10" on="0"/>
        <pt x="243" y="-10" on="1"/>
        <pt x="146" y="-10" on="0"/>
        <pt x="47" y="84" on="0"/>
        <pt x="47" y="163" on="1"/>
        <pt x="47" y="687" on="1"/>
        <pt x="174" y="687" on="1"/>
        <pt x="174" y="169" on="1"/>
        <pt x="174" y="106" on="0"/>
        <pt x="243" y="106" on="1"/>
        <pt x="313" y="106" on="0"/>
        <pt x="313" y="169" on="1"/>
        <pt x="313" y="687" on="1"/>
        <pt x="440" y="687" on="1"/>
      </contour>
    </TTGlyph>
    <TTGlyph name="Uacute" xMin="47" yMin="-10" xMax="440" yMax="839">
      <component glyphName="U" x="0" y="0" flags="0x0"/>
      <component glyphName="acute" x="103" y="100" flags="0x4"/>
    </TTGlyph>
    <TTGlyph name="Ucircumflex" xMin="47" yMin="-10" xMax="440" yMax="839">
      <component glyphName="U" x="0" y="0" flags="0x0"/>
      <component glyphName="circumflex" x="68" y="100" flags="0x4"/>
    </TTGlyph>
    <TTGlyph name="Udieresis" xMin="47" yMin="-10" xMax="440" yMax="832">
      <component glyphName="U" x="0" y="0" flags="0x0"/>
      <component glyphName="dieresis" x="67" y="100" flags="0x4"/>
    </TTGlyph>
    <TTGlyph name="Ugrave" xMin="47" yMin="-10" xMax="440" yMax="839">
      <component glyphName="U" x="0" y="0" flags="0x0"/>
      <component glyphName="grave" x="34" y="100" flags="0x4"/>
    </TTGlyph>
    <TTGlyph name="Uhungarumlaut" xMin="47" yMin="-10" xMax="440" yMax="839">
      <component glyphName="hungarumlaut" x="96" y="100" flags="0x4"/>
      <component glyphName="U" x="0" y="0" flags="0x0"/>
    </TTGlyph>
    <TTGlyph name="Umacron" xMin="47" yMin="-10" xMax="440" yMax="817">
      <component glyphName="U" x="0" y="0" flags="0x0"/>
      <component glyphName="macron" x="68" y="100" flags="0x4"/>
    </TTGlyph>
    <TTGlyph name="Uogonek" xMin="47" yMin="-183" xMax="440" yMax="687">
      <component glyphName="U" x="0" y="0" flags="0x0"/>
      <component glyphName="ogonek" x="111" y="10" flags="0x4"/>
    </TTGlyph>
    <TTGlyph name="Uring" xMin="47" yMin="-10" xMax="440" yMax="859">
      <component glyphName="U" x="0" y="0" flags="0x0"/>
      <component glyphName="ring" x="69" y="100" flags="0x4"/>
    </TTGlyph>
    <TTGlyph name="V" xMin="7" yMin="0" xMax="459" yMax="687">
      <contour>
        <pt x="322" y="0" on="1"/>
        <pt x="145" y="0" on="1"/>
        <pt x="7" y="687" on="1"/>
        <pt x="137" y="687" on="1"/>
        <pt x="194" y="382" on="1"/>
        <pt x="209" y="300" on="0"/>
        <pt x="226" y="171" on="1"/>
        <pt x="235" y="112" on="1"/>
        <pt x="244" y="176" on="1"/>
        <pt x="262" y="313" on="0"/>
        <pt x="274" y="381" on="1"/>
        <pt x="327" y="687" on="1"/>
        <pt x="459" y="687" on="1"/>
      </contour>
    </TTGlyph>
    <TTGlyph name="W" xMin="10" yMin="0" xMax="588" yMax="687">
      <contour>
        <pt x="490" y="0" on="1"/>
        <pt x="371" y="0" on="1"/>
        <pt x="325" y="292" on="1"/>
        <pt x="316" y="349" on="0"/>
        <pt x="303" y="474" on="0"/>
        <pt x="301" y="493" on="1"/>
        <pt x="300" y="474" on="0"/>
        <pt x="287" y="349" on="0"/>
        <pt x="278" y="292" on="1"/>
        <pt x="231" y="0" on="1"/>
        <pt x="105" y="0" on="1"/>
        <pt x="10" y="687" on="1"/>
        <pt x="122" y="687" on="1"/>
        <pt x="164" y="409" on="1"/>
        <pt x="172" y="351" on="0"/>
        <pt x="182" y="237" on="0"/>
        <pt x="183" y="221" on="1"/>
        <pt x="185" y="237" on="0"/>
        <pt x="197" y="341" on="0"/>
        <pt x="206" y="409" on="1"/>
        <pt x="245" y="687" on="1"/>
        <pt x="356" y="687" on="1"/>
        <pt x="393" y="409" on="1"/>
        <pt x="415" y="227" on="1"/>
        <pt x="416" y="244" on="0"/>
        <pt x="427" y="358" on="0"/>
        <pt x="434" y="409" on="1"/>
        <pt x="477" y="687" on="1"/>
        <pt x="588" y="687" on="1"/>
      </contour>
    </TTGlyph>
    <TTGlyph name="X" xMin="7" yMin="0" xMax="439" yMax="687">
      <contour>
        <pt x="290" y="342" on="1"/>
        <pt x="439" y="0" on="1"/>
        <pt x="300" y="0" on="1"/>
        <pt x="225" y="208" on="1"/>
        <pt x="145" y="0" on="1"/>
        <pt x="7" y="0" on="1"/>
        <pt x="155" y="342" on="1"/>
        <pt x="7" y="687" on="1"/>
        <pt x="145" y="687" on="1"/>
        <pt x="225" y="477" on="1"/>
        <pt x="301" y="687" on="1"/>
        <pt x="439" y="687" on="1"/>
      </contour>
    </TTGlyph>
    <TTGlyph name="Y" xMin="1" yMin="0" xMax="460" yMax="687">
      <contour>
        <pt x="295" y="218" on="1"/>
        <pt x="295" y="0" on="1"/>
        <pt x="166" y="0" on="1"/>
        <pt x="166" y="218" on="1"/>
        <pt x="1" y="687" on="1"/>
        <pt x="132" y="687" on="1"/>
        <pt x="175" y="559" on="1"/>
        <pt x="212" y="444" on="0"/>
        <pt x="232" y="353" on="1"/>
        <pt x="252" y="440" on="0"/>
        <pt x="290" y="561" on="1"/>
        <pt x="332" y="687" on="1"/>
        <pt x="460" y="687" on="1"/>
      </contour>
    </TTGlyph>
    <TTGlyph name="Yacute" xMin="1" yMin="0" xMax="460" yMax="840">
      <component glyphName="Y" x="0" y="0" flags="0x0"/>
      <component glyphName="acute" x="89" y="101" flags="0x4"/>
    </TTGlyph>
    <TTGlyph name="Ydieresis" xMin="1" yMin="0" xMax="460" yMax="832">
      <component glyphName="dieresis" x="56" y="100" flags="0x4"/>
      <component glyphName="Y" x="0" y="0" flags="0x0"/>
    </TTGlyph>
    <TTGlyph name="Z" xMin="22" yMin="0" xMax="389" yMax="687">
      <contour>
        <pt x="387" y="583" on="1"/>
        <pt x="155" y="108" on="1"/>
        <pt x="389" y="108" on="1"/>
        <pt x="389" y="0" on="1"/>
        <pt x="22" y="0" on="1"/>
        <pt x="22" y="108" on="1"/>
        <pt x="250" y="579" on="1"/>
        <pt x="27" y="579" on="1"/>
        <pt x="27" y="687" on="1"/>
        <pt x="387" y="687" on="1"/>
      </contour>
    </TTGlyph>
    <TTGlyph name="Zacute" xMin="22" yMin="0" xMax="389" yMax="839">
      <component glyphName="Z" x="0" y="0" flags="0x0"/>
      <component glyphName="acute" x="64" y="100" flags="0x4"/>
    </TTGlyph>
    <TTGlyph name="Zcaron" xMin="22" yMin="0" xMax="389" yMax="839">
      <component glyphName="Z" x="0" y="0" flags="0x0"/>
      <component glyphName="caron" x="29" y="100" flags="0x4"/>
    </TTGlyph>
    <TTGlyph name="Zdotaccent" xMin="22" yMin="0" xMax="389" yMax="839">
      <component glyphName="Z" x="0" y="0" flags="0x0"/>
      <component glyphName="dotaccent" x="33" y="100" flags="0x4"/>
    </TTGlyph>
    <TTGlyph name="a" xMin="23" yMin="-2" xMax="387" yMax="589">
      <contour>
        <pt x="75" y="578" on="0"/>
        <pt x="154" y="589" on="0"/>
        <pt x="200" y="589" on="1"/>
        <pt x="301" y="589" on="0"/>
        <pt x="387" y="505" on="0"/>
        <pt x="387" y="420" on="1"/>
        <pt x="387" y="0" on="1"/>
        <pt x="267" y="0" on="1"/>
        <pt x="267" y="42" on="1"/>
        <pt x="231" y="-2" on="0"/>
        <pt x="159" y="-2" on="1"/>
        <pt x="88" y="-2" on="0"/>
        <pt x="23" y="67" on="0"/>
        <pt x="23" y="140" on="1"/>
        <pt x="23" y="174" on="1"/>
        <pt x="23" y="237" on="0"/>
        <pt x="81" y="307" on="0"/>
        <pt x="147" y="325" on="1"/>
        <pt x="265" y="356" on="1"/>
        <pt x="265" y="420" on="1"/>
        <pt x="264" y="451" on="0"/>
        <pt x="231" y="477" on="0"/>
        <pt x="187" y="477" on="1"/>
        <pt x="148" y="477" on="0"/>
        <pt x="72" y="463" on="0"/>
        <pt x="53" y="456" on="1"/>
        <pt x="53" y="570" on="1"/>
      </contour>
      <contour>
        <pt x="198" y="235" on="1"/>
        <pt x="167" y="226" on="0"/>
        <pt x="148" y="199" on="0"/>
        <pt x="148" y="168" on="1"/>
        <pt x="148" y="140" on="1"/>
        <pt x="148" y="116" on="0"/>
        <pt x="170" y="93" on="0"/>
        <pt x="196" y="93" on="1"/>
        <pt x="215" y="93" on="0"/>
        <pt x="252" y="104" on="0"/>
        <pt x="264" y="112" on="1"/>
        <pt x="264" y="252" on="1"/>
      </contour>
    </TTGlyph>
    <TTGlyph name="aacute" xMin="23" yMin="-2" xMax="387" yMax="739">
      <component glyphName="a" x="0" y="0" flags="0x0"/>
      <component glyphName="acute" x="66" y="0" flags="0x0"/>
    </TTGlyph>
    <TTGlyph name="abreve" xMin="23" yMin="-2" xMax="387" yMax="739">
      <component glyphName="a" x="0" y="0" flags="0x0"/>
      <component glyphName="breve" x="37" y="0" flags="0x0"/>
    </TTGlyph>
    <TTGlyph name="acircumflex" xMin="23" yMin="-2" xMax="387" yMax="739">
      <component glyphName="a" x="0" y="0" flags="0x0"/>
      <component glyphName="circumflex" x="40" y="0" flags="0x0"/>
    </TTGlyph>
    <TTGlyph name="acute" xMin="105" yMin="626" xMax="245" yMax="739">
      <contour>
        <pt x="174" y="626" on="1"/>
        <pt x="105" y="626" on="1"/>
        <pt x="148" y="739" on="1"/>
        <pt x="245" y="739" on="1"/>
      </contour>
    </TTGlyph>
    <TTGlyph name="adieresis" xMin="23" yMin="-2" xMax="387" yMax="732">
      <component glyphName="a" x="0" y="0" flags="0x0"/>
      <component glyphName="dieresis" x="35" y="0" flags="0x0"/>
    </TTGlyph>
    <TTGlyph name="ae" xMin="27" yMin="-6" xMax="622" yMax="594">
      <contour>
        <pt x="369" y="594" on="0"/>
        <pt x="445" y="594" on="1"/>
        <pt x="536" y="594" on="0"/>
        <pt x="622" y="509" on="0"/>
        <pt x="622" y="434" on="1"/>
        <pt x="622" y="240" on="1"/>
        <pt x="385" y="240" on="1"/>
        <pt x="385" y="171" on="1"/>
        <pt x="385" y="135" on="0"/>
        <pt x="429" y="106" on="0"/>
        <pt x="477" y="106" on="1"/>
        <pt x="537" y="106" on="0"/>
        <pt x="607" y="125" on="1"/>
        <pt x="607" y="12" on="1"/>
        <pt x="570" y="3" on="0"/>
        <pt x="516" y="-6" on="0"/>
        <pt x="466" y="-6" on="1"/>
        <pt x="373" y="-6" on="0"/>
        <pt x="323" y="30" on="1"/>
        <pt x="272" y="-4" on="0"/>
        <pt x="175" y="-4" on="1"/>
        <pt x="102" y="-4" on="0"/>
        <pt x="27" y="68" on="0"/>
        <pt x="27" y="139" on="1"/>
        <pt x="27" y="174" on="1"/>
        <pt x="27" y="237" on="0"/>
        <pt x="83" y="306" on="0"/>
        <pt x="147" y="326" on="1"/>
        <pt x="264" y="362" on="1"/>
        <pt x="263" y="427" on="1"/>
        <pt x="263" y="451" on="0"/>
        <pt x="230" y="477" on="0"/>
        <pt x="187" y="477" on="1"/>
        <pt x="149" y="477" on="0"/>
        <pt x="73" y="463" on="0"/>
        <pt x="53" y="455" on="1"/>
        <pt x="53" y="568" on="1"/>
        <pt x="73" y="576" on="0"/>
        <pt x="152" y="589" on="0"/>
        <pt x="197" y="589" on="1"/>
        <pt x="278" y="589" on="0"/>
        <pt x="321" y="558" on="1"/>
      </contour>
      <contour>
        <pt x="503" y="459" on="0"/>
        <pt x="474" y="487" on="0"/>
        <pt x="445" y="487" on="1"/>
        <pt x="416" y="487" on="0"/>
        <pt x="385" y="459" on="0"/>
        <pt x="385" y="433" on="1"/>
        <pt x="385" y="339" on="1"/>
        <pt x="503" y="339" on="1"/>
        <pt x="503" y="433" on="1"/>
      </contour>
      <contour>
        <pt x="198" y="235" on="1"/>
        <pt x="167" y="227" on="0"/>
        <pt x="148" y="199" on="0"/>
        <pt x="148" y="168" on="1"/>
        <pt x="148" y="140" on="1"/>
        <pt x="148" y="93" on="0"/>
        <pt x="196" y="93" on="1"/>
        <pt x="237" y="93" on="0"/>
        <pt x="266" y="112" on="1"/>
        <pt x="266" y="254" on="1"/>
      </contour>
    </TTGlyph>
    <TTGlyph name="agrave" xMin="23" yMin="-2" xMax="387" yMax="739">
      <component glyphName="a" x="0" y="0" flags="0x0"/>
      <component glyphName="grave" x="1" y="0" flags="0x0"/>
    </TTGlyph>
    <TTGlyph name="amacron" xMin="23" yMin="-2" xMax="387" yMax="717">
      <component glyphName="a" x="0" y="0" flags="0x0"/>
      <component glyphName="macron" x="43" y="0" flags="0x0"/>
    </TTGlyph>
    <TTGlyph name="ampersand" xMin="53" yMin="-7" xMax="481" yMax="693">
      <contour>
        <pt x="481" y="301" on="1"/>
        <pt x="433" y="301" on="1"/>
        <pt x="433" y="166" on="1"/>
        <pt x="433" y="86" on="0"/>
        <pt x="341" y="-7" on="0"/>
        <pt x="245" y="-7" on="1"/>
        <pt x="148" y="-7" on="0"/>
        <pt x="53" y="86" on="0"/>
        <pt x="53" y="166" on="1"/>
        <pt x="53" y="247" on="1"/>
        <pt x="53" y="337" on="0"/>
        <pt x="125" y="359" on="1"/>
        <pt x="92" y="371" on="0"/>
        <pt x="55" y="428" on="0"/>
        <pt x="55" y="472" on="1"/>
        <pt x="55" y="531" on="1"/>
        <pt x="55" y="607" on="0"/>
        <pt x="162" y="693" on="0"/>
        <pt x="270" y="693" on="1"/>
        <pt x="347" y="693" on="0"/>
        <pt x="397" y="677" on="1"/>
        <pt x="397" y="558" on="1"/>
        <pt x="350" y="576" on="0"/>
        <pt x="273" y="576" on="1"/>
        <pt x="221" y="576" on="0"/>
        <pt x="182" y="547" on="0"/>
        <pt x="182" y="517" on="1"/>
        <pt x="182" y="474" on="1"/>
        <pt x="182" y="441" on="0"/>
        <pt x="209" y="410" on="0"/>
        <pt x="242" y="410" on="1"/>
        <pt x="311" y="410" on="1"/>
        <pt x="311" y="474" on="1"/>
        <pt x="433" y="474" on="1"/>
        <pt x="433" y="410" on="1"/>
        <pt x="481" y="410" on="1"/>
      </contour>
      <contour>
        <pt x="311" y="301" on="1"/>
        <pt x="243" y="301" on="1"/>
        <pt x="209" y="301" on="0"/>
        <pt x="180" y="270" on="0"/>
        <pt x="180" y="239" on="1"/>
        <pt x="180" y="169" on="1"/>
        <pt x="180" y="138" on="0"/>
        <pt x="210" y="105" on="0"/>
        <pt x="245" y="105" on="1"/>
        <pt x="281" y="105" on="0"/>
        <pt x="311" y="138" on="0"/>
        <pt x="311" y="169" on="1"/>
      </contour>
    </TTGlyph>
    <TTGlyph name="aogonek" xMin="23" yMin="-193" xMax="387" yMax="589">
      <component glyphName="a" x="0" y="0" flags="0x0"/>
      <component glyphName="ogonek" x="153" y="0" flags="0x0"/>
    </TTGlyph>
    <TTGlyph name="apostrophemod" xMin="26" yMin="493" xMax="166" yMax="727">
      <component glyphName="quoteright" x="0" y="0" flags="0x0"/>
    </TTGlyph>
    <TTGlyph name="approxequal" xMin="30" yMin="141" xMax="546" yMax="535">
      <contour>
        <pt x="542" y="518" on="0"/>
        <pt x="546" y="489" on="0"/>
        <pt x="546" y="471" on="1"/>
        <pt x="546" y="409" on="0"/>
        <pt x="480" y="348" on="0"/>
        <pt x="427" y="348" on="1"/>
        <pt x="392" y="348" on="0"/>
        <pt x="350" y="362" on="1"/>
        <pt x="224" y="407" on="1"/>
        <pt x="202" y="416" on="0"/>
        <pt x="184" y="416" on="1"/>
        <pt x="145" y="416" on="0"/>
        <pt x="145" y="377" on="1"/>
        <pt x="145" y="372" on="0"/>
        <pt x="147" y="360" on="1"/>
        <pt x="34" y="360" on="1"/>
        <pt x="33" y="364" on="0"/>
        <pt x="30" y="395" on="0"/>
        <pt x="30" y="412" on="1"/>
        <pt x="30" y="474" on="0"/>
        <pt x="95" y="535" on="0"/>
        <pt x="148" y="535" on="1"/>
        <pt x="186" y="535" on="0"/>
        <pt x="226" y="520" on="1"/>
        <pt x="352" y="475" on="1"/>
        <pt x="379" y="466" on="0"/>
        <pt x="392" y="466" on="1"/>
        <pt x="431" y="466" on="0"/>
        <pt x="431" y="505" on="1"/>
        <pt x="431" y="510" on="0"/>
        <pt x="429" y="522" on="1"/>
        <pt x="541" y="522" on="1"/>
      </contour>
      <contour>
        <pt x="542" y="311" on="0"/>
        <pt x="546" y="282" on="0"/>
        <pt x="546" y="264" on="1"/>
        <pt x="546" y="202" on="0"/>
        <pt x="480" y="141" on="0"/>
        <pt x="427" y="141" on="1"/>
        <pt x="392" y="141" on="0"/>
        <pt x="350" y="155" on="1"/>
        <pt x="224" y="200" on="1"/>
        <pt x="202" y="209" on="0"/>
        <pt x="184" y="209" on="1"/>
        <pt x="145" y="209" on="0"/>
        <pt x="145" y="170" on="1"/>
        <pt x="145" y="165" on="0"/>
        <pt x="147" y="153" on="1"/>
        <pt x="34" y="153" on="1"/>
        <pt x="33" y="157" on="0"/>
        <pt x="30" y="188" on="0"/>
        <pt x="30" y="205" on="1"/>
        <pt x="30" y="267" on="0"/>
        <pt x="95" y="328" on="0"/>
        <pt x="148" y="328" on="1"/>
        <pt x="186" y="328" on="0"/>
        <pt x="226" y="313" on="1"/>
        <pt x="352" y="268" on="1"/>
        <pt x="379" y="259" on="0"/>
        <pt x="392" y="259" on="1"/>
        <pt x="431" y="259" on="0"/>
        <pt x="431" y="298" on="1"/>
        <pt x="431" y="303" on="0"/>
        <pt x="429" y="315" on="1"/>
        <pt x="541" y="315" on="1"/>
      </contour>
    </TTGlyph>
    <TTGlyph name="aring" xMin="23" yMin="-2" xMax="387" yMax="759">
      <component glyphName="a" x="0" y="0" flags="0x0"/>
      <component glyphName="ring" x="34" y="0" flags="0x0"/>
    </TTGlyph>
    <TTGlyph name="asciicircum" xMin="1" yMin="394" xMax="402" yMax="716">
      <contour>
        <pt x="276" y="394" on="1"/>
        <pt x="201" y="633" on="1"/>
        <pt x="126" y="394" on="1"/>
        <pt x="1" y="394" on="1"/>
        <pt x="129" y="716" on="1"/>
        <pt x="275" y="716" on="1"/>
        <pt x="402" y="394" on="1"/>
      </contour>
    </TTGlyph>
    <TTGlyph name="asciitilde" xMin="25" yMin="254" xMax="541" yMax="441">
      <contour>
        <pt x="537" y="424" on="0"/>
        <pt x="541" y="395" on="0"/>
        <pt x="541" y="377" on="1"/>
        <pt x="541" y="315" on="0"/>
        <pt x="475" y="254" on="0"/>
        <pt x="422" y="254" on="1"/>
        <pt x="385" y="254" on="0"/>
        <pt x="345" y="268" on="1"/>
        <pt x="219" y="314" on="1"/>
        <pt x="192" y="323" on="0"/>
        <pt x="179" y="323" on="1"/>
        <pt x="160" y="323" on="0"/>
        <pt x="139" y="304" on="0"/>
        <pt x="139" y="284" on="1"/>
        <pt x="139" y="279" on="0"/>
        <pt x="141" y="267" on="1"/>
        <pt x="29" y="267" on="1"/>
        <pt x="28" y="271" on="0"/>
        <pt x="25" y="301" on="0"/>
        <pt x="25" y="318" on="1"/>
        <pt x="25" y="380" on="0"/>
        <pt x="90" y="441" on="0"/>
        <pt x="143" y="441" on="1"/>
        <pt x="180" y="441" on="0"/>
        <pt x="220" y="427" on="1"/>
        <pt x="347" y="381" on="1"/>
        <pt x="374" y="372" on="0"/>
        <pt x="387" y="372" on="1"/>
        <pt x="426" y="372" on="0"/>
        <pt x="426" y="411" on="1"/>
        <pt x="426" y="416" on="0"/>
        <pt x="424" y="428" on="1"/>
        <pt x="536" y="428" on="1"/>
      </contour>
    </TTGlyph>
    <TTGlyph name="asterisk" xMin="36" yMin="380" xMax="502" yMax="823">
      <contour>
        <pt x="375" y="550" on="0"/>
        <pt x="394" y="523" on="1"/>
        <pt x="449" y="449" on="1"/>
        <pt x="354" y="380" on="1"/>
        <pt x="299" y="454" on="1"/>
        <pt x="280" y="479" on="0"/>
        <pt x="269" y="509" on="1"/>
        <pt x="259" y="482" on="0"/>
        <pt x="238" y="454" on="1"/>
        <pt x="184" y="380" on="1"/>
        <pt x="89" y="449" on="1"/>
        <pt x="143" y="524" on="1"/>
        <pt x="163" y="550" on="0"/>
        <pt x="186" y="570" on="1"/>
        <pt x="158" y="572" on="0"/>
        <pt x="124" y="583" on="1"/>
        <pt x="36" y="611" on="1"/>
        <pt x="72" y="722" on="1"/>
        <pt x="160" y="694" on="1"/>
        <pt x="194" y="683" on="0"/>
        <pt x="217" y="668" on="1"/>
        <pt x="210" y="696" on="0"/>
        <pt x="210" y="730" on="1"/>
        <pt x="210" y="823" on="1"/>
        <pt x="327" y="823" on="1"/>
        <pt x="327" y="730" on="1"/>
        <pt x="327" y="697" on="0"/>
        <pt x="320" y="667" on="1"/>
        <pt x="343" y="682" on="0"/>
        <pt x="378" y="693" on="1"/>
        <pt x="466" y="723" on="1"/>
        <pt x="502" y="611" on="1"/>
        <pt x="414" y="582" on="1"/>
        <pt x="382" y="572" on="0"/>
        <pt x="351" y="570" on="1"/>
      </contour>
    </TTGlyph>
    <TTGlyph name="at" xMin="63" yMin="-131" xMax="845" yMax="696">
      <contour>
        <pt x="607" y="696" on="0"/>
        <pt x="778" y="597" on="0"/>
        <pt x="845" y="419" on="0"/>
        <pt x="845" y="286" on="1"/>
        <pt x="845" y="138" on="0"/>
        <pt x="747" y="13" on="0"/>
        <pt x="652" y="13" on="1"/>
        <pt x="606" y="13" on="0"/>
        <pt x="538" y="43" on="0"/>
        <pt x="519" y="72" on="1"/>
        <pt x="483" y="51" on="0"/>
        <pt x="421" y="51" on="1"/>
        <pt x="307" y="51" on="0"/>
        <pt x="307" y="164" on="1"/>
        <pt x="307" y="188" on="1"/>
        <pt x="307" y="236" on="0"/>
        <pt x="351" y="293" on="0"/>
        <pt x="397" y="310" on="1"/>
        <pt x="495" y="344" on="1"/>
        <pt x="495" y="402" on="1"/>
        <pt x="495" y="423" on="0"/>
        <pt x="476" y="443" on="0"/>
        <pt x="447" y="443" on="1"/>
        <pt x="389" y="443" on="0"/>
        <pt x="326" y="424" on="1"/>
        <pt x="326" y="509" on="1"/>
        <pt x="348" y="516" on="0"/>
        <pt x="413" y="526" on="0"/>
        <pt x="447" y="526" on="1"/>
        <pt x="522" y="526" on="0"/>
        <pt x="592" y="467" on="0"/>
        <pt x="592" y="407" on="1"/>
        <pt x="592" y="176" on="1"/>
        <pt x="592" y="139" on="0"/>
        <pt x="623" y="107" on="0"/>
        <pt x="659" y="107" on="1"/>
        <pt x="688" y="107" on="0"/>
        <pt x="723" y="138" on="0"/>
        <pt x="739" y="216" on="0"/>
        <pt x="739" y="286" on="1"/>
        <pt x="739" y="394" on="0"/>
        <pt x="702" y="523" on="0"/>
        <pt x="579" y="597" on="0"/>
        <pt x="456" y="597" on="1"/>
        <pt x="334" y="597" on="0"/>
        <pt x="210" y="520" on="0"/>
        <pt x="171" y="388" on="0"/>
        <pt x="171" y="282" on="1"/>
        <pt x="171" y="175" on="0"/>
        <pt x="211" y="44" on="0"/>
        <pt x="335" y="-32" on="0"/>
        <pt x="456" y="-32" on="1"/>
        <pt x="546" y="-32" on="1"/>
        <pt x="546" y="-131" on="1"/>
        <pt x="455" y="-131" on="1"/>
        <pt x="305" y="-131" on="0"/>
        <pt x="132" y="-30" on="0"/>
        <pt x="63" y="150" on="0"/>
        <pt x="63" y="282" on="1"/>
        <pt x="63" y="412" on="0"/>
        <pt x="134" y="594" on="0"/>
        <pt x="307" y="696" on="0"/>
        <pt x="456" y="696" on="1"/>
      </contour>
      <contour>
        <pt x="495" y="258" on="1"/>
        <pt x="443" y="241" on="1"/>
        <pt x="421" y="233" on="0"/>
        <pt x="405" y="213" on="0"/>
        <pt x="405" y="191" on="1"/>
        <pt x="405" y="165" on="1"/>
        <pt x="405" y="147" on="0"/>
        <pt x="422" y="132" on="0"/>
        <pt x="444" y="132" on="1"/>
        <pt x="461" y="132" on="0"/>
        <pt x="495" y="145" on="0"/>
        <pt x="495" y="146" on="1"/>
      </contour>
    </TTGlyph>
    <TTGlyph name="atilde" xMin="23" yMin="-2" xMax="387" yMax="735">
      <component glyphName="a" x="0" y="0" flags="0x0"/>
      <component glyphName="tilde" x="37" y="0" flags="0x0"/>
    </TTGlyph>
    <TTGlyph name="b" xMin="52" yMin="0" xMax="417" yMax="739">
      <contour>
        <pt x="179" y="569" on="1"/>
        <pt x="229" y="587" on="0"/>
        <pt x="288" y="587" on="1"/>
        <pt x="346" y="587" on="0"/>
        <pt x="417" y="522" on="0"/>
        <pt x="417" y="459" on="1"/>
        <pt x="417" y="147" on="1"/>
        <pt x="417" y="73" on="0"/>
        <pt x="334" y="0" on="0"/>
        <pt x="265" y="0" on="1"/>
        <pt x="52" y="0" on="1"/>
        <pt x="52" y="739" on="1"/>
        <pt x="179" y="739" on="1"/>
      </contour>
      <contour>
        <pt x="287" y="469" on="0"/>
        <pt x="245" y="469" on="1"/>
        <pt x="210" y="469" on="0"/>
        <pt x="180" y="454" on="1"/>
        <pt x="180" y="117" on="1"/>
        <pt x="232" y="117" on="1"/>
        <pt x="287" y="117" on="0"/>
        <pt x="287" y="166" on="1"/>
        <pt x="287" y="430" on="1"/>
      </contour>
    </TTGlyph>
    <TTGlyph name="backslash" xMin="37" yMin="-169" xMax="425" yMax="845">
      <contour>
        <pt x="425" y="-169" on="1"/>
        <pt x="307" y="-169" on="1"/>
        <pt x="37" y="845" on="1"/>
        <pt x="154" y="845" on="1"/>
      </contour>
    </TTGlyph>
    <TTGlyph name="bar" xMin="65" yMin="-179" xMax="152" yMax="858">
      <contour>
        <pt x="152" y="-179" on="1"/>
        <pt x="65" y="-179" on="1"/>
        <pt x="65" y="858" on="1"/>
        <pt x="152" y="858" on="1"/>
      </contour>
    </TTGlyph>
    <TTGlyph name="braceleft" xMin="55" yMin="-166" xMax="329" yMax="832">
      <contour>
        <pt x="241" y="416" on="0"/>
        <pt x="202" y="343" on="0"/>
        <pt x="150" y="334" on="1"/>
        <pt x="202" y="325" on="0"/>
        <pt x="241" y="257" on="0"/>
        <pt x="241" y="191" on="1"/>
        <pt x="241" y="-10" on="1"/>
        <pt x="241" y="-57" on="0"/>
        <pt x="293" y="-57" on="1"/>
        <pt x="329" y="-57" on="1"/>
        <pt x="329" y="-166" on="1"/>
        <pt x="284" y="-166" on="1"/>
        <pt x="211" y="-166" on="0"/>
        <pt x="131" y="-79" on="0"/>
        <pt x="131" y="-5" on="1"/>
        <pt x="131" y="216" on="1"/>
        <pt x="131" y="247" on="0"/>
        <pt x="94" y="279" on="0"/>
        <pt x="60" y="279" on="1"/>
        <pt x="55" y="279" on="1"/>
        <pt x="55" y="388" on="1"/>
        <pt x="60" y="388" on="1"/>
        <pt x="94" y="388" on="0"/>
        <pt x="131" y="420" on="0"/>
        <pt x="131" y="450" on="1"/>
        <pt x="131" y="670" on="1"/>
        <pt x="131" y="744" on="0"/>
        <pt x="211" y="832" on="0"/>
        <pt x="284" y="832" on="1"/>
        <pt x="329" y="832" on="1"/>
        <pt x="329" y="723" on="1"/>
        <pt x="293" y="723" on="1"/>
        <pt x="241" y="723" on="0"/>
        <pt x="241" y="676" on="1"/>
        <pt x="241" y="483" on="1"/>
      </contour>
    </TTGlyph>
    <TTGlyph name="braceright" xMin="61" yMin="-166" xMax="334" yMax="832">
      <contour>
        <pt x="334" y="279" on="1"/>
        <pt x="330" y="279" on="1"/>
        <pt x="296" y="279" on="0"/>
        <pt x="259" y="247" on="0"/>
        <pt x="259" y="216" on="1"/>
        <pt x="259" y="-5" on="1"/>
        <pt x="259" y="-79" on="0"/>
        <pt x="179" y="-166" on="0"/>
        <pt x="106" y="-166" on="1"/>
        <pt x="61" y="-166" on="1"/>
        <pt x="61" y="-57" on="1"/>
        <pt x="97" y="-57" on="1"/>
        <pt x="148" y="-57" on="0"/>
        <pt x="148" y="-10" on="1"/>
        <pt x="148" y="191" on="1"/>
        <pt x="148" y="257" on="0"/>
        <pt x="187" y="325" on="0"/>
        <pt x="239" y="334" on="1"/>
        <pt x="187" y="343" on="0"/>
        <pt x="148" y="416" on="0"/>
        <pt x="148" y="483" on="1"/>
        <pt x="148" y="676" on="1"/>
        <pt x="148" y="723" on="0"/>
        <pt x="97" y="723" on="1"/>
        <pt x="61" y="723" on="1"/>
        <pt x="61" y="832" on="1"/>
        <pt x="106" y="832" on="1"/>
        <pt x="179" y="832" on="0"/>
        <pt x="259" y="744" on="0"/>
        <pt x="259" y="670" on="1"/>
        <pt x="259" y="450" on="1"/>
        <pt x="259" y="420" on="0"/>
        <pt x="296" y="388" on="0"/>
        <pt x="330" y="388" on="1"/>
        <pt x="334" y="388" on="1"/>
      </contour>
    </TTGlyph>
    <TTGlyph name="bracketleft" xMin="86" yMin="-169" xMax="311" yMax="845">
      <contour>
        <pt x="311" y="-68" on="1"/>
        <pt x="311" y="-169" on="1"/>
        <pt x="86" y="-169" on="1"/>
        <pt x="86" y="845" on="1"/>
        <pt x="311" y="845" on="1"/>
        <pt x="311" y="746" on="1"/>
        <pt x="190" y="746" on="1"/>
        <pt x="190" y="-68" on="1"/>
      </contour>
    </TTGlyph>
    <TTGlyph name="bracketright" xMin="40" yMin="-169" xMax="264" yMax="845">
      <contour>
        <pt x="264" y="845" on="1"/>
        <pt x="264" y="-169" on="1"/>
        <pt x="40" y="-169" on="1"/>
        <pt x="40" y="-68" on="1"/>
        <pt x="161" y="-68" on="1"/>
        <pt x="161" y="746" on="1"/>
        <pt x="40" y="746" on="1"/>
        <pt x="40" y="845" on="1"/>
      </contour>
    </TTGlyph>
    <TTGlyph name="breve" xMin="58" yMin="626" xMax="292" yMax="739">
      <contour>
        <pt x="292" y="689" on="0"/>
        <pt x="226" y="626" on="0"/>
        <pt x="175" y="626" on="1"/>
        <pt x="123" y="626" on="0"/>
        <pt x="58" y="689" on="0"/>
        <pt x="58" y="739" on="1"/>
        <pt x="127" y="739" on="1"/>
        <pt x="127" y="716" on="0"/>
        <pt x="152" y="688" on="0"/>
        <pt x="175" y="688" on="1"/>
        <pt x="198" y="688" on="0"/>
        <pt x="223" y="716" on="0"/>
        <pt x="223" y="739" on="1"/>
        <pt x="292" y="739" on="1"/>
      </contour>
    </TTGlyph>
    <TTGlyph name="brokenbar" xMin="65" yMin="-179" xMax="152" yMax="858">
      <contour>
        <pt x="152" y="471" on="1"/>
        <pt x="65" y="471" on="1"/>
        <pt x="65" y="858" on="1"/>
        <pt x="152" y="858" on="1"/>
      </contour>
      <contour>
        <pt x="152" y="-179" on="1"/>
        <pt x="65" y="-179" on="1"/>
        <pt x="65" y="208" on="1"/>
        <pt x="152" y="208" on="1"/>
      </contour>
    </TTGlyph>
    <TTGlyph name="bullet" xMin="35" yMin="242" xMax="219" yMax="426">
      <contour>
        <pt x="35" y="426" on="0"/>
        <pt x="127" y="426" on="1"/>
        <pt x="219" y="426" on="0"/>
        <pt x="219" y="334" on="1"/>
        <pt x="219" y="242" on="0"/>
        <pt x="127" y="242" on="1"/>
        <pt x="35" y="242" on="0"/>
        <pt x="35" y="334" on="1"/>
      </contour>
    </TTGlyph>
    <TTGlyph name="c" xMin="42" yMin="-5" xMax="350" yMax="589">
      <contour>
        <pt x="42" y="505" on="0"/>
        <pt x="136" y="589" on="0"/>
        <pt x="230" y="589" on="1"/>
        <pt x="271" y="589" on="0"/>
        <pt x="324" y="582" on="0"/>
        <pt x="349" y="574" on="1"/>
        <pt x="349" y="457" on="1"/>
        <pt x="294" y="472" on="0"/>
        <pt x="250" y="472" on="1"/>
        <pt x="207" y="472" on="0"/>
        <pt x="170" y="446" on="0"/>
        <pt x="170" y="414" on="1"/>
        <pt x="170" y="170" on="1"/>
        <pt x="170" y="138" on="0"/>
        <pt x="206" y="112" on="0"/>
        <pt x="250" y="112" on="1"/>
        <pt x="300" y="112" on="0"/>
        <pt x="350" y="128" on="1"/>
        <pt x="350" y="10" on="1"/>
        <pt x="324" y="2" on="0"/>
        <pt x="270" y="-5" on="0"/>
        <pt x="230" y="-5" on="1"/>
        <pt x="42" y="-5" on="0"/>
        <pt x="42" y="160" on="1"/>
        <pt x="42" y="424" on="1"/>
      </contour>
    </TTGlyph>
    <TTGlyph name="cacute" xMin="42" yMin="-5" xMax="350" yMax="739">
      <component glyphName="c" x="0" y="0" flags="0x0"/>
      <component glyphName="acute" x="87" y="0" flags="0x0"/>
    </TTGlyph>
    <TTGlyph name="caron" xMin="71" yMin="626" xMax="278" yMax="739">
      <contour>
        <pt x="278" y="739" on="1"/>
        <pt x="221" y="626" on="1"/>
        <pt x="128" y="626" on="1"/>
        <pt x="71" y="739" on="1"/>
        <pt x="135" y="739" on="1"/>
        <pt x="175" y="683" on="1"/>
        <pt x="214" y="739" on="1"/>
      </contour>
    </TTGlyph>
    <TTGlyph name="ccaron" xMin="42" yMin="-5" xMax="350" yMax="739">
      <component glyphName="c" x="0" y="0" flags="0x0"/>
      <component glyphName="caron" x="52" y="0" flags="0x0"/>
    </TTGlyph>
    <TTGlyph name="ccedilla" xMin="42" yMin="-188" xMax="350" yMax="589">
      <component glyphName="c" x="0" y="0" flags="0x0"/>
      <component glyphName="cedilla" x="41" y="0" flags="0x0"/>
    </TTGlyph>
    <TTGlyph name="cedilla" xMin="100" yMin="-188" xMax="249" yMax="6">
      <contour>
        <pt x="188" y="-39" on="1"/>
        <pt x="211" y="-41" on="0"/>
        <pt x="249" y="-74" on="0"/>
        <pt x="249" y="-106" on="1"/>
        <pt x="249" y="-144" on="0"/>
        <pt x="195" y="-188" on="0"/>
        <pt x="151" y="-188" on="1"/>
        <pt x="126" y="-188" on="0"/>
        <pt x="100" y="-182" on="1"/>
        <pt x="100" y="-124" on="1"/>
        <pt x="113" y="-129" on="0"/>
        <pt x="137" y="-129" on="1"/>
        <pt x="154" y="-129" on="0"/>
        <pt x="174" y="-115" on="0"/>
        <pt x="174" y="-102" on="1"/>
        <pt x="174" y="-75" on="0"/>
        <pt x="136" y="-75" on="1"/>
        <pt x="124" y="-75" on="1"/>
        <pt x="142" y="6" on="1"/>
        <pt x="198" y="6" on="1"/>
      </contour>
    </TTGlyph>
    <TTGlyph name="cent" xMin="46" yMin="-70" xMax="354" yMax="655">
      <contour>
        <pt x="354" y="10" on="1"/>
        <pt x="319" y="-1" on="0"/>
        <pt x="285" y="-3" on="1"/>
        <pt x="285" y="-70" on="1"/>
        <pt x="167" y="-70" on="1"/>
        <pt x="167" y="1" on="1"/>
        <pt x="46" y="28" on="0"/>
        <pt x="46" y="160" on="1"/>
        <pt x="46" y="424" on="1"/>
        <pt x="46" y="558" on="0"/>
        <pt x="171" y="583" on="1"/>
        <pt x="171" y="655" on="1"/>
        <pt x="289" y="655" on="1"/>
        <pt x="289" y="587" on="1"/>
        <pt x="325" y="583" on="0"/>
        <pt x="353" y="574" on="1"/>
        <pt x="353" y="457" on="1"/>
        <pt x="298" y="472" on="0"/>
        <pt x="254" y="472" on="1"/>
        <pt x="211" y="472" on="0"/>
        <pt x="174" y="446" on="0"/>
        <pt x="174" y="414" on="1"/>
        <pt x="174" y="170" on="1"/>
        <pt x="174" y="138" on="0"/>
        <pt x="210" y="112" on="0"/>
        <pt x="254" y="112" on="1"/>
        <pt x="304" y="112" on="0"/>
        <pt x="354" y="128" on="1"/>
      </contour>
    </TTGlyph>
    <TTGlyph name="circumflex" xMin="71" yMin="626" xMax="278" yMax="739">
      <contour>
        <pt x="214" y="626" on="1"/>
        <pt x="175" y="682" on="1"/>
        <pt x="135" y="626" on="1"/>
        <pt x="71" y="626" on="1"/>
        <pt x="128" y="739" on="1"/>
        <pt x="221" y="739" on="1"/>
        <pt x="278" y="626" on="1"/>
      </contour>
    </TTGlyph>
    <TTGlyph name="colon" xMin="36" yMin="-9" xMax="180" yMax="480">
      <contour>
        <pt x="36" y="480" on="0"/>
        <pt x="108" y="480" on="1"/>
        <pt x="180" y="480" on="0"/>
        <pt x="180" y="410" on="1"/>
        <pt x="180" y="342" on="0"/>
        <pt x="108" y="342" on="1"/>
        <pt x="36" y="342" on="0"/>
        <pt x="36" y="410" on="1"/>
      </contour>
      <contour>
        <pt x="36" y="129" on="0"/>
        <pt x="108" y="129" on="1"/>
        <pt x="180" y="129" on="0"/>
        <pt x="180" y="60" on="1"/>
        <pt x="180" y="-9" on="0"/>
        <pt x="108" y="-9" on="1"/>
        <pt x="36" y="-9" on="0"/>
        <pt x="36" y="60" on="1"/>
      </contour>
    </TTGlyph>
    <TTGlyph name="comma" xMin="12" yMin="-131" xMax="176" yMax="128">
      <contour>
        <pt x="176" y="128" on="0"/>
        <pt x="176" y="78" on="1"/>
        <pt x="176" y="40" on="0"/>
        <pt x="112" y="-87" on="0"/>
        <pt x="81" y="-131" on="1"/>
        <pt x="12" y="-131" on="1"/>
        <pt x="57" y="128" on="1"/>
        <pt x="121" y="128" on="1"/>
      </contour>
    </TTGlyph>
    <TTGlyph name="copyright" xMin="38" yMin="0" xMax="663" yMax="665">
      <contour>
        <pt x="38" y="436" on="0"/>
        <pt x="92" y="582" on="0"/>
        <pt x="230" y="665" on="0"/>
        <pt x="351" y="665" on="1"/>
        <pt x="474" y="665" on="0"/>
        <pt x="611" y="583" on="0"/>
        <pt x="663" y="439" on="0"/>
        <pt x="663" y="332" on="1"/>
        <pt x="663" y="173" on="0"/>
        <pt x="527" y="0" on="0"/>
        <pt x="351" y="0" on="1"/>
        <pt x="229" y="0" on="0"/>
        <pt x="91" y="82" on="0"/>
        <pt x="38" y="227" on="0"/>
        <pt x="38" y="332" on="1"/>
      </contour>
      <contour>
        <pt x="569" y="418" on="0"/>
        <pt x="544" y="517" on="0"/>
        <pt x="449" y="575" on="0"/>
        <pt x="351" y="575" on="1"/>
        <pt x="254" y="575" on="0"/>
        <pt x="159" y="516" on="0"/>
        <pt x="132" y="416" on="0"/>
        <pt x="132" y="332" on="1"/>
        <pt x="132" y="248" on="0"/>
        <pt x="159" y="148" on="0"/>
        <pt x="254" y="89" on="0"/>
        <pt x="351" y="89" on="1"/>
        <pt x="446" y="89" on="0"/>
        <pt x="540" y="149" on="0"/>
        <pt x="569" y="250" on="0"/>
        <pt x="569" y="332" on="1"/>
      </contour>
      <contour>
        <pt x="226" y="451" on="0"/>
        <pt x="290" y="512" on="0"/>
        <pt x="361" y="512" on="1"/>
        <pt x="389" y="512" on="0"/>
        <pt x="430" y="505" on="0"/>
        <pt x="437" y="502" on="1"/>
        <pt x="437" y="423" on="1"/>
        <pt x="393" y="431" on="0"/>
        <pt x="362" y="431" on="1"/>
        <pt x="332" y="431" on="0"/>
        <pt x="315" y="411" on="0"/>
        <pt x="315" y="390" on="1"/>
        <pt x="315" y="276" on="1"/>
        <pt x="315" y="255" on="0"/>
        <pt x="332" y="235" on="0"/>
        <pt x="362" y="235" on="1"/>
        <pt x="398" y="235" on="0"/>
        <pt x="438" y="242" on="1"/>
        <pt x="438" y="164" on="1"/>
        <pt x="437" y="164" on="0"/>
        <pt x="398" y="154" on="0"/>
        <pt x="361" y="154" on="1"/>
        <pt x="290" y="154" on="0"/>
        <pt x="226" y="215" on="0"/>
        <pt x="226" y="274" on="1"/>
        <pt x="226" y="392" on="1"/>
      </contour>
    </TTGlyph>
    <TTGlyph name="currency" xMin="13" yMin="85" xMax="452" yMax="602">
      <contour>
        <pt x="421" y="243" on="0"/>
        <pt x="403" y="205" on="1"/>
        <pt x="451" y="158" on="1"/>
        <pt x="377" y="85" on="1"/>
        <pt x="326" y="136" on="1"/>
        <pt x="290" y="120" on="0"/>
        <pt x="232" y="120" on="1"/>
        <pt x="179" y="120" on="0"/>
        <pt x="137" y="136" on="1"/>
        <pt x="86" y="85" on="1"/>
        <pt x="13" y="158" on="1"/>
        <pt x="61" y="205" on="1"/>
        <pt x="43" y="243" on="0"/>
        <pt x="43" y="291" on="1"/>
        <pt x="43" y="396" on="1"/>
        <pt x="43" y="445" on="0"/>
        <pt x="61" y="482" on="1"/>
        <pt x="14" y="528" on="1"/>
        <pt x="87" y="602" on="1"/>
        <pt x="138" y="551" on="1"/>
        <pt x="177" y="566" on="0"/>
        <pt x="232" y="566" on="1"/>
        <pt x="289" y="566" on="0"/>
        <pt x="327" y="550" on="1"/>
        <pt x="378" y="602" on="1"/>
        <pt x="452" y="528" on="1"/>
        <pt x="404" y="481" on="1"/>
        <pt x="421" y="446" on="0"/>
        <pt x="421" y="396" on="1"/>
        <pt x="421" y="291" on="1"/>
      </contour>
      <contour>
        <pt x="166" y="231" on="0"/>
        <pt x="232" y="231" on="1"/>
        <pt x="267" y="231" on="0"/>
        <pt x="298" y="264" on="0"/>
        <pt x="298" y="295" on="1"/>
        <pt x="298" y="392" on="1"/>
        <pt x="298" y="423" on="0"/>
        <pt x="267" y="455" on="0"/>
        <pt x="232" y="455" on="1"/>
        <pt x="197" y="455" on="0"/>
        <pt x="166" y="423" on="0"/>
        <pt x="166" y="392" on="1"/>
        <pt x="166" y="295" on="1"/>
      </contour>
    </TTGlyph>
    <TTGlyph name="d" xMin="42" yMin="-4" xMax="406" yMax="739">
      <contour>
        <pt x="406" y="0" on="1"/>
        <pt x="281" y="0" on="1"/>
        <pt x="281" y="39" on="1"/>
        <pt x="266" y="23" on="0"/>
        <pt x="213" y="-4" on="0"/>
        <pt x="174" y="-4" on="1"/>
        <pt x="109" y="-4" on="0"/>
        <pt x="42" y="68" on="0"/>
        <pt x="42" y="134" on="1"/>
        <pt x="42" y="413" on="1"/>
        <pt x="42" y="493" on="0"/>
        <pt x="132" y="584" on="0"/>
        <pt x="219" y="584" on="1"/>
        <pt x="277" y="584" on="1"/>
        <pt x="277" y="739" on="1"/>
        <pt x="406" y="739" on="1"/>
      </contour>
      <contour>
        <pt x="231" y="470" on="1"/>
        <pt x="170" y="470" on="0"/>
        <pt x="170" y="409" on="1"/>
        <pt x="170" y="155" on="1"/>
        <pt x="170" y="112" on="0"/>
        <pt x="213" y="112" on="1"/>
        <pt x="232" y="112" on="0"/>
        <pt x="269" y="123" on="0"/>
        <pt x="278" y="131" on="1"/>
        <pt x="278" y="470" on="1"/>
      </contour>
    </TTGlyph>
    <TTGlyph name="dagger" xMin="28" yMin="-30" xMax="355" yMax="817">
      <contour>
        <pt x="250" y="770" on="0"/>
        <pt x="243" y="670" on="0"/>
        <pt x="241" y="656" on="1"/>
        <pt x="250" y="658" on="0"/>
        <pt x="316" y="665" on="0"/>
        <pt x="355" y="665" on="1"/>
        <pt x="355" y="566" on="1"/>
        <pt x="316" y="566" on="0"/>
        <pt x="250" y="573" on="0"/>
        <pt x="241" y="574" on="1"/>
        <pt x="243" y="559" on="0"/>
        <pt x="250" y="452" on="0"/>
        <pt x="250" y="391" on="1"/>
        <pt x="250" y="-30" on="1"/>
        <pt x="132" y="-30" on="1"/>
        <pt x="132" y="391" on="1"/>
        <pt x="132" y="452" on="0"/>
        <pt x="139" y="559" on="0"/>
        <pt x="141" y="574" on="1"/>
        <pt x="132" y="573" on="0"/>
        <pt x="67" y="566" on="0"/>
        <pt x="28" y="566" on="1"/>
        <pt x="28" y="665" on="1"/>
        <pt x="67" y="665" on="0"/>
        <pt x="132" y="658" on="0"/>
        <pt x="141" y="656" on="1"/>
        <pt x="139" y="670" on="0"/>
        <pt x="132" y="770" on="0"/>
        <pt x="132" y="817" on="1"/>
        <pt x="250" y="817" on="1"/>
      </contour>
    </TTGlyph>
    <TTGlyph name="daggerdbl" xMin="27" yMin="-30" xMax="354" yMax="817">
      <contour>
        <pt x="249" y="770" on="0"/>
        <pt x="242" y="670" on="0"/>
        <pt x="241" y="656" on="1"/>
        <pt x="250" y="658" on="0"/>
        <pt x="315" y="665" on="0"/>
        <pt x="354" y="665" on="1"/>
        <pt x="354" y="566" on="1"/>
        <pt x="315" y="566" on="0"/>
        <pt x="250" y="573" on="0"/>
        <pt x="241" y="574" on="1"/>
        <pt x="243" y="492" on="0"/>
        <pt x="243" y="396" on="1"/>
        <pt x="243" y="303" on="0"/>
        <pt x="241" y="213" on="1"/>
        <pt x="250" y="215" on="0"/>
        <pt x="315" y="222" on="0"/>
        <pt x="354" y="222" on="1"/>
        <pt x="354" y="123" on="1"/>
        <pt x="315" y="123" on="0"/>
        <pt x="250" y="130" on="0"/>
        <pt x="241" y="131" on="1"/>
        <pt x="242" y="126" on="0"/>
        <pt x="245" y="90" on="0"/>
        <pt x="249" y="17" on="0"/>
        <pt x="249" y="-30" on="1"/>
        <pt x="132" y="-30" on="1"/>
        <pt x="132" y="17" on="0"/>
        <pt x="136" y="90" on="0"/>
        <pt x="139" y="126" on="0"/>
        <pt x="140" y="131" on="1"/>
        <pt x="131" y="130" on="0"/>
        <pt x="66" y="123" on="0"/>
        <pt x="27" y="123" on="1"/>
        <pt x="27" y="222" on="1"/>
        <pt x="66" y="222" on="0"/>
        <pt x="131" y="215" on="0"/>
        <pt x="140" y="213" on="1"/>
        <pt x="139" y="258" on="0"/>
        <pt x="139" y="395" on="1"/>
        <pt x="139" y="532" on="0"/>
        <pt x="140" y="574" on="1"/>
        <pt x="131" y="573" on="0"/>
        <pt x="66" y="566" on="0"/>
        <pt x="27" y="566" on="1"/>
        <pt x="27" y="665" on="1"/>
        <pt x="66" y="665" on="0"/>
        <pt x="131" y="658" on="0"/>
        <pt x="140" y="656" on="1"/>
        <pt x="139" y="670" on="0"/>
        <pt x="132" y="770" on="0"/>
        <pt x="132" y="817" on="1"/>
        <pt x="249" y="817" on="1"/>
      </contour>
    </TTGlyph>
    <TTGlyph name="danda" xMin="142" yMin="0" xMax="260" yMax="665">
      <contour>
        <pt x="260" y="665" on="1"/>
        <pt x="260" y="0" on="1"/>
        <pt x="142" y="0" on="1"/>
        <pt x="142" y="665" on="1"/>
      </contour>
    </TTGlyph>
    <TTGlyph name="dcaron" xMin="42" yMin="-4" xMax="543" yMax="739">
      <contour>
        <pt x="406" y="0" on="1"/>
        <pt x="281" y="0" on="1"/>
        <pt x="281" y="39" on="1"/>
        <pt x="266" y="23" on="0"/>
        <pt x="213" y="-4" on="0"/>
        <pt x="174" y="-4" on="1"/>
        <pt x="109" y="-4" on="0"/>
        <pt x="42" y="68" on="0"/>
        <pt x="42" y="134" on="1"/>
        <pt x="42" y="413" on="1"/>
        <pt x="42" y="493" on="0"/>
        <pt x="132" y="584" on="0"/>
        <pt x="219" y="584" on="1"/>
        <pt x="277" y="584" on="1"/>
        <pt x="277" y="739" on="1"/>
        <pt x="406" y="739" on="1"/>
      </contour>
      <contour>
        <pt x="543" y="739" on="0"/>
        <pt x="543" y="709" on="1"/>
        <pt x="543" y="687" on="0"/>
        <pt x="508" y="620" on="0"/>
        <pt x="489" y="593" on="1"/>
        <pt x="444" y="593" on="1"/>
        <pt x="470" y="739" on="1"/>
        <pt x="511" y="739" on="1"/>
      </contour>
      <contour>
        <pt x="231" y="470" on="1"/>
        <pt x="170" y="470" on="0"/>
        <pt x="170" y="409" on="1"/>
        <pt x="170" y="155" on="1"/>
        <pt x="170" y="112" on="0"/>
        <pt x="213" y="112" on="1"/>
        <pt x="232" y="112" on="0"/>
        <pt x="269" y="123" on="0"/>
        <pt x="278" y="131" on="1"/>
        <pt x="278" y="470" on="1"/>
      </contour>
    </TTGlyph>
    <TTGlyph name="dcroat" xMin="44" yMin="-4" xMax="448" yMax="739">
      <contour>
        <pt x="448" y="633" on="1"/>
        <pt x="408" y="633" on="1"/>
        <pt x="408" y="0" on="1"/>
        <pt x="283" y="0" on="1"/>
        <pt x="283" y="39" on="1"/>
        <pt x="268" y="23" on="0"/>
        <pt x="215" y="-4" on="0"/>
        <pt x="176" y="-4" on="1"/>
        <pt x="111" y="-4" on="0"/>
        <pt x="44" y="68" on="0"/>
        <pt x="44" y="134" on="1"/>
        <pt x="44" y="413" on="1"/>
        <pt x="44" y="493" on="0"/>
        <pt x="134" y="584" on="0"/>
        <pt x="221" y="584" on="1"/>
        <pt x="279" y="584" on="1"/>
        <pt x="279" y="633" on="1"/>
        <pt x="153" y="633" on="1"/>
        <pt x="153" y="692" on="1"/>
        <pt x="279" y="692" on="1"/>
        <pt x="279" y="739" on="1"/>
        <pt x="408" y="739" on="1"/>
        <pt x="408" y="692" on="1"/>
        <pt x="448" y="692" on="1"/>
      </contour>
      <contour>
        <pt x="280" y="470" on="1"/>
        <pt x="233" y="470" on="1"/>
        <pt x="172" y="470" on="0"/>
        <pt x="172" y="409" on="1"/>
        <pt x="172" y="155" on="1"/>
        <pt x="172" y="112" on="0"/>
        <pt x="215" y="112" on="1"/>
        <pt x="234" y="112" on="0"/>
        <pt x="271" y="123" on="0"/>
        <pt x="280" y="131" on="1"/>
      </contour>
    </TTGlyph>
    <TTGlyph name="degree" xMin="45" yMin="496" xMax="376" yMax="838">
      <contour>
        <pt x="45" y="746" on="0"/>
        <pt x="125" y="838" on="0"/>
        <pt x="210" y="838" on="1"/>
        <pt x="295" y="838" on="0"/>
        <pt x="376" y="746" on="0"/>
        <pt x="376" y="667" on="1"/>
        <pt x="376" y="588" on="0"/>
        <pt x="295" y="496" on="0"/>
        <pt x="210" y="496" on="1"/>
        <pt x="125" y="496" on="0"/>
        <pt x="45" y="588" on="0"/>
        <pt x="45" y="667" on="1"/>
      </contour>
      <contour>
        <pt x="271" y="704" on="0"/>
        <pt x="244" y="742" on="0"/>
        <pt x="210" y="742" on="1"/>
        <pt x="176" y="742" on="0"/>
        <pt x="150" y="704" on="0"/>
        <pt x="150" y="667" on="1"/>
        <pt x="150" y="629" on="0"/>
        <pt x="176" y="592" on="0"/>
        <pt x="210" y="592" on="1"/>
        <pt x="244" y="592" on="0"/>
        <pt x="271" y="630" on="0"/>
        <pt x="271" y="667" on="1"/>
      </contour>
    </TTGlyph>
    <TTGlyph name="dieresis" xMin="43" yMin="633" xMax="308" yMax="732">
      <contour>
        <pt x="43" y="706" on="0"/>
        <pt x="67" y="732" on="0"/>
        <pt x="95" y="732" on="1"/>
        <pt x="147" y="732" on="0"/>
        <pt x="147" y="682" on="1"/>
        <pt x="147" y="633" on="0"/>
        <pt x="95" y="633" on="1"/>
        <pt x="67" y="633" on="0"/>
        <pt x="43" y="658" on="0"/>
        <pt x="43" y="682" on="1"/>
      </contour>
      <contour>
        <pt x="203" y="706" on="0"/>
        <pt x="227" y="732" on="0"/>
        <pt x="255" y="732" on="1"/>
        <pt x="308" y="732" on="0"/>
        <pt x="308" y="682" on="1"/>
        <pt x="308" y="633" on="0"/>
        <pt x="255" y="633" on="1"/>
        <pt x="227" y="633" on="0"/>
        <pt x="203" y="658" on="0"/>
        <pt x="203" y="682" on="1"/>
      </contour>
    </TTGlyph>
    <TTGlyph name="divide" xMin="41" yMin="92" xMax="438" yMax="566">
      <contour>
        <pt x="174" y="566" on="0"/>
        <pt x="239" y="566" on="1"/>
        <pt x="305" y="566" on="0"/>
        <pt x="305" y="500" on="1"/>
        <pt x="305" y="435" on="0"/>
        <pt x="239" y="435" on="1"/>
        <pt x="174" y="435" on="0"/>
        <pt x="174" y="500" on="1"/>
      </contour>
      <contour>
        <pt x="438" y="274" on="1"/>
        <pt x="41" y="274" on="1"/>
        <pt x="41" y="383" on="1"/>
        <pt x="438" y="383" on="1"/>
      </contour>
      <contour>
        <pt x="174" y="223" on="0"/>
        <pt x="239" y="223" on="1"/>
        <pt x="305" y="223" on="0"/>
        <pt x="305" y="157" on="1"/>
        <pt x="305" y="92" on="0"/>
        <pt x="240" y="92" on="1"/>
        <pt x="174" y="92" on="0"/>
        <pt x="174" y="157" on="1"/>
      </contour>
    </TTGlyph>
    <TTGlyph name="dollar" xMin="22" yMin="-59" xMax="402" yMax="744">
      <contour>
        <pt x="362" y="328" on="0"/>
        <pt x="402" y="264" on="0"/>
        <pt x="402" y="216" on="1"/>
        <pt x="402" y="156" on="1"/>
        <pt x="402" y="95" on="0"/>
        <pt x="332" y="17" on="0"/>
        <pt x="263" y="3" on="1"/>
        <pt x="263" y="-59" on="1"/>
        <pt x="143" y="-59" on="1"/>
        <pt x="143" y="-4" on="1"/>
        <pt x="106" y="-1" on="0"/>
        <pt x="44" y="11" on="0"/>
        <pt x="30" y="17" on="1"/>
        <pt x="30" y="140" on="1"/>
        <pt x="58" y="129" on="0"/>
        <pt x="137" y="113" on="0"/>
        <pt x="178" y="113" on="1"/>
        <pt x="227" y="113" on="0"/>
        <pt x="274" y="145" on="0"/>
        <pt x="274" y="172" on="1"/>
        <pt x="274" y="195" on="1"/>
        <pt x="274" y="220" on="0"/>
        <pt x="254" y="248" on="0"/>
        <pt x="226" y="263" on="1"/>
        <pt x="116" y="322" on="1"/>
        <pt x="71" y="348" on="0"/>
        <pt x="22" y="419" on="0"/>
        <pt x="22" y="471" on="1"/>
        <pt x="22" y="532" on="1"/>
        <pt x="22" y="592" on="0"/>
        <pt x="86" y="671" on="0"/>
        <pt x="151" y="685" on="1"/>
        <pt x="151" y="744" on="1"/>
        <pt x="270" y="744" on="1"/>
        <pt x="270" y="690" on="1"/>
        <pt x="328" y="686" on="0"/>
        <pt x="366" y="672" on="1"/>
        <pt x="366" y="550" on="1"/>
        <pt x="309" y="574" on="0"/>
        <pt x="231" y="574" on="1"/>
        <pt x="187" y="574" on="0"/>
        <pt x="152" y="545" on="0"/>
        <pt x="152" y="517" on="1"/>
        <pt x="152" y="493" on="1"/>
        <pt x="152" y="463" on="0"/>
        <pt x="174" y="433" on="0"/>
        <pt x="206" y="415" on="1"/>
        <pt x="320" y="350" on="1"/>
      </contour>
    </TTGlyph>
    <TTGlyph name="dotaccent" xMin="122" yMin="640" xMax="227" yMax="739">
      <contour>
        <pt x="122" y="713" on="0"/>
        <pt x="146" y="739" on="0"/>
        <pt x="175" y="739" on="1"/>
        <pt x="227" y="739" on="0"/>
        <pt x="227" y="689" on="1"/>
        <pt x="227" y="640" on="0"/>
        <pt x="175" y="640" on="1"/>
        <pt x="146" y="640" on="0"/>
        <pt x="122" y="665" on="0"/>
        <pt x="122" y="689" on="1"/>
      </contour>
    </TTGlyph>
    <TTGlyph name="dotlessi" xMin="52" yMin="0" xMax="180" yMax="571">
      <contour>
        <pt x="180" y="0" on="1"/>
        <pt x="52" y="0" on="1"/>
        <pt x="52" y="571" on="1"/>
        <pt x="180" y="571" on="1"/>
      </contour>
    </TTGlyph>
    <TTGlyph name="dottedcircle" xMin="44" yMin="30" xMax="616" yMax="604">
      <contour>
        <pt x="257" y="580" on="0"/>
        <pt x="282" y="604" on="0"/>
        <pt x="301" y="604" on="1"/>
        <pt x="321" y="604" on="0"/>
        <pt x="345" y="580" on="0"/>
        <pt x="345" y="560" on="1"/>
        <pt x="345" y="541" on="0"/>
        <pt x="321" y="516" on="0"/>
        <pt x="301" y="516" on="1"/>
        <pt x="282" y="516" on="0"/>
        <pt x="257" y="541" on="0"/>
        <pt x="257" y="560" on="1"/>
      </contour>
      <contour>
        <pt x="383" y="565" on="0"/>
        <pt x="409" y="590" on="0"/>
        <pt x="428" y="590" on="1"/>
        <pt x="447" y="590" on="0"/>
        <pt x="471" y="565" on="0"/>
        <pt x="471" y="545" on="1"/>
        <pt x="471" y="527" on="0"/>
        <pt x="446" y="501" on="0"/>
        <pt x="428" y="501" on="1"/>
        <pt x="409" y="501" on="0"/>
        <pt x="383" y="527" on="0"/>
        <pt x="383" y="545" on="1"/>
      </contour>
      <contour>
        <pt x="139" y="536" on="0"/>
        <pt x="164" y="561" on="0"/>
        <pt x="183" y="561" on="1"/>
        <pt x="202" y="561" on="0"/>
        <pt x="227" y="536" on="0"/>
        <pt x="227" y="517" on="1"/>
        <pt x="227" y="497" on="0"/>
        <pt x="202" y="472" on="0"/>
        <pt x="183" y="472" on="1"/>
        <pt x="164" y="472" on="0"/>
        <pt x="139" y="497" on="0"/>
        <pt x="139" y="517" on="1"/>
      </contour>
      <contour>
        <pt x="478" y="496" on="0"/>
        <pt x="503" y="522" on="0"/>
        <pt x="522" y="522" on="1"/>
        <pt x="541" y="522" on="0"/>
        <pt x="566" y="497" on="0"/>
        <pt x="566" y="477" on="1"/>
        <pt x="566" y="458" on="0"/>
        <pt x="541" y="433" on="0"/>
        <pt x="522" y="433" on="1"/>
        <pt x="503" y="433" on="0"/>
        <pt x="478" y="458" on="0"/>
        <pt x="478" y="477" on="1"/>
      </contour>
      <contour>
        <pt x="57" y="426" on="0"/>
        <pt x="83" y="451" on="0"/>
        <pt x="103" y="451" on="1"/>
        <pt x="121" y="451" on="0"/>
        <pt x="147" y="426" on="0"/>
        <pt x="147" y="407" on="1"/>
        <pt x="147" y="388" on="0"/>
        <pt x="121" y="363" on="0"/>
        <pt x="103" y="363" on="1"/>
        <pt x="83" y="363" on="0"/>
        <pt x="57" y="388" on="0"/>
        <pt x="57" y="407" on="1"/>
      </contour>
      <contour>
        <pt x="528" y="379" on="0"/>
        <pt x="553" y="403" on="0"/>
        <pt x="572" y="403" on="1"/>
        <pt x="591" y="403" on="0"/>
        <pt x="616" y="378" on="0"/>
        <pt x="616" y="359" on="1"/>
        <pt x="616" y="340" on="0"/>
        <pt x="591" y="315" on="0"/>
        <pt x="572" y="315" on="1"/>
        <pt x="553" y="315" on="0"/>
        <pt x="528" y="340" on="0"/>
        <pt x="528" y="359" on="1"/>
      </contour>
      <contour>
        <pt x="44" y="300" on="0"/>
        <pt x="69" y="326" on="0"/>
        <pt x="88" y="326" on="1"/>
        <pt x="107" y="326" on="0"/>
        <pt x="132" y="301" on="0"/>
        <pt x="132" y="281" on="1"/>
        <pt x="132" y="262" on="0"/>
        <pt x="107" y="238" on="0"/>
        <pt x="88" y="238" on="1"/>
        <pt x="69" y="238" on="0"/>
        <pt x="44" y="262" on="0"/>
        <pt x="44" y="281" on="1"/>
      </contour>
      <contour>
        <pt x="518" y="245" on="0"/>
        <pt x="544" y="270" on="0"/>
        <pt x="563" y="270" on="1"/>
        <pt x="581" y="270" on="0"/>
        <pt x="606" y="244" on="0"/>
        <pt x="606" y="225" on="1"/>
        <pt x="606" y="206" on="0"/>
        <pt x="581" y="181" on="0"/>
        <pt x="563" y="181" on="1"/>
        <pt x="544" y="181" on="0"/>
        <pt x="518" y="206" on="0"/>
        <pt x="518" y="225" on="1"/>
      </contour>
      <contour>
        <pt x="96" y="184" on="0"/>
        <pt x="121" y="209" on="0"/>
        <pt x="140" y="209" on="1"/>
        <pt x="159" y="209" on="0"/>
        <pt x="184" y="184" on="0"/>
        <pt x="184" y="165" on="1"/>
        <pt x="184" y="146" on="0"/>
        <pt x="159" y="121" on="0"/>
        <pt x="140" y="121" on="1"/>
        <pt x="121" y="121" on="0"/>
        <pt x="96" y="146" on="0"/>
        <pt x="96" y="165" on="1"/>
      </contour>
      <contour>
        <pt x="445" y="146" on="0"/>
        <pt x="470" y="171" on="0"/>
        <pt x="489" y="171" on="1"/>
        <pt x="508" y="171" on="0"/>
        <pt x="534" y="146" on="0"/>
        <pt x="534" y="127" on="1"/>
        <pt x="534" y="108" on="0"/>
        <pt x="508" y="83" on="0"/>
        <pt x="489" y="83" on="1"/>
        <pt x="470" y="83" on="0"/>
        <pt x="445" y="108" on="0"/>
        <pt x="445" y="127" on="1"/>
      </contour>
      <contour>
        <pt x="197" y="108" on="0"/>
        <pt x="223" y="134" on="0"/>
        <pt x="242" y="134" on="1"/>
        <pt x="261" y="134" on="0"/>
        <pt x="286" y="108" on="0"/>
        <pt x="286" y="90" on="1"/>
        <pt x="286" y="70" on="0"/>
        <pt x="261" y="44" on="0"/>
        <pt x="242" y="44" on="1"/>
        <pt x="223" y="44" on="0"/>
        <pt x="197" y="70" on="0"/>
        <pt x="197" y="90" on="1"/>
      </contour>
      <contour>
        <pt x="324" y="94" on="0"/>
        <pt x="349" y="118" on="0"/>
        <pt x="368" y="118" on="1"/>
        <pt x="388" y="118" on="0"/>
        <pt x="413" y="93" on="0"/>
        <pt x="413" y="74" on="1"/>
        <pt x="413" y="55" on="0"/>
        <pt x="388" y="30" on="0"/>
        <pt x="368" y="30" on="1"/>
        <pt x="349" y="30" on="0"/>
        <pt x="324" y="55" on="0"/>
        <pt x="324" y="74" on="1"/>
      </contour>
    </TTGlyph>
    <TTGlyph name="doubledanda" xMin="62" yMin="0" xMax="392" yMax="665">
      <contour>
        <pt x="180" y="665" on="1"/>
        <pt x="180" y="0" on="1"/>
        <pt x="62" y="0" on="1"/>
        <pt x="62" y="665" on="1"/>
      </contour>
      <contour>
        <pt x="392" y="665" on="1"/>
        <pt x="392" y="0" on="1"/>
        <pt x="274" y="0" on="1"/>
        <pt x="274" y="665" on="1"/>
      </contour>
    </TTGlyph>
    <TTGlyph name="dvA" xMin="40" yMin="0" xMax="630" yMax="670">
      <contour>
        <pt x="630" y="665" on="1"/>
        <pt x="630" y="566" on="1"/>
        <pt x="544" y="566" on="1"/>
        <pt x="544" y="0" on="1"/>
        <pt x="426" y="0" on="1"/>
        <pt x="426" y="213" on="1"/>
        <pt x="342" y="213" on="1"/>
        <pt x="342" y="196" on="1"/>
        <pt x="340" y="36" on="0"/>
        <pt x="147" y="36" on="1"/>
        <pt x="118" y="36" on="0"/>
        <pt x="59" y="43" on="0"/>
        <pt x="40" y="49" on="1"/>
        <pt x="40" y="157" on="1"/>
        <pt x="64" y="151" on="0"/>
        <pt x="123" y="143" on="0"/>
        <pt x="146" y="143" on="1"/>
        <pt x="188" y="143" on="0"/>
        <pt x="225" y="172" on="0"/>
        <pt x="226" y="201" on="1"/>
        <pt x="226" y="251" on="1"/>
        <pt x="226" y="280" on="0"/>
        <pt x="198" y="308" on="0"/>
        <pt x="164" y="308" on="1"/>
        <pt x="105" y="308" on="1"/>
        <pt x="105" y="417" on="1"/>
        <pt x="164" y="417" on="1"/>
        <pt x="198" y="417" on="0"/>
        <pt x="226" y="444" on="0"/>
        <pt x="226" y="472" on="1"/>
        <pt x="226" y="505" on="1"/>
        <pt x="226" y="534" on="0"/>
        <pt x="189" y="562" on="0"/>
        <pt x="147" y="562" on="1"/>
        <pt x="99" y="562" on="0"/>
        <pt x="53" y="549" on="1"/>
        <pt x="53" y="657" on="1"/>
        <pt x="92" y="670" on="0"/>
        <pt x="147" y="670" on="1"/>
        <pt x="342" y="670" on="0"/>
        <pt x="342" y="509" on="1"/>
        <pt x="342" y="472" on="1"/>
        <pt x="342" y="389" on="0"/>
        <pt x="296" y="363" on="1"/>
        <pt x="321" y="348" on="0"/>
        <pt x="332" y="315" on="1"/>
        <pt x="426" y="315" on="1"/>
        <pt x="426" y="665" on="1"/>
      </contour>
    </TTGlyph>
    <TTGlyph name="dvAA" xMin="47" yMin="0" xMax="857" yMax="670">
      <component glyphName="dvA" x="7" y="0" flags="0x0"/>
      <component glyphName="dvmAA" x="602" y="0" flags="0x0"/>
    </TTGlyph>
    <TTGlyph name="dvAI" xMin="-35" yMin="-5" xMax="472" yMax="895">
      <contour>
        <pt x="472" y="665" on="1"/>
        <pt x="472" y="566" on="1"/>
        <pt x="395" y="566" on="1"/>
        <pt x="395" y="402" on="1"/>
        <pt x="395" y="327" on="0"/>
        <pt x="328" y="253" on="0"/>
        <pt x="246" y="253" on="1"/>
        <pt x="239" y="253" on="0"/>
        <pt x="225" y="255" on="1"/>
        <pt x="225" y="364" on="1"/>
        <pt x="237" y="364" on="1"/>
        <pt x="261" y="364" on="0"/>
        <pt x="277" y="383" on="0"/>
        <pt x="277" y="409" on="1"/>
        <pt x="277" y="566" on="1"/>
        <pt x="167" y="566" on="1"/>
        <pt x="167" y="171" on="1"/>
        <pt x="167" y="137" on="0"/>
        <pt x="203" y="104" on="0"/>
        <pt x="248" y="104" on="1"/>
        <pt x="308" y="104" on="0"/>
        <pt x="371" y="122" on="1"/>
        <pt x="371" y="15" on="1"/>
        <pt x="315" y="-5" on="0"/>
        <pt x="244" y="-5" on="1"/>
        <pt x="142" y="-5" on="0"/>
        <pt x="49" y="80" on="0"/>
        <pt x="49" y="167" on="1"/>
        <pt x="49" y="566" on="1"/>
        <pt x="-35" y="566" on="1"/>
        <pt x="-35" y="665" on="1"/>
        <pt x="271" y="665" on="1"/>
        <pt x="107" y="895" on="1"/>
        <pt x="238" y="895" on="1"/>
        <pt x="392" y="665" on="1"/>
      </contour>
    </TTGlyph>
    <TTGlyph name="dvAU" xMin="47" yMin="0" xMax="857" yMax="895">
      <component glyphName="dvA" x="7" y="0" flags="0x0"/>
      <component glyphName="dvmAU" x="602" y="0" flags="0x0"/>
    </TTGlyph>
    <TTGlyph name="dvAbbreviationsign" xMin="45" yMin="159" xMax="376" yMax="495">
      <contour>
        <pt x="45" y="405" on="0"/>
        <pt x="125" y="495" on="0"/>
        <pt x="210" y="495" on="1"/>
        <pt x="295" y="495" on="0"/>
        <pt x="376" y="405" on="0"/>
        <pt x="376" y="327" on="1"/>
        <pt x="376" y="249" on="0"/>
        <pt x="295" y="159" on="0"/>
        <pt x="210" y="159" on="1"/>
        <pt x="125" y="159" on="0"/>
        <pt x="45" y="248" on="0"/>
        <pt x="45" y="327" on="1"/>
      </contour>
      <contour>
        <pt x="150" y="289" on="0"/>
        <pt x="176" y="255" on="0"/>
        <pt x="210" y="255" on="1"/>
        <pt x="244" y="255" on="0"/>
        <pt x="271" y="290" on="0"/>
        <pt x="271" y="326" on="1"/>
        <pt x="271" y="363" on="0"/>
        <pt x="244" y="398" on="0"/>
        <pt x="210" y="398" on="1"/>
        <pt x="176" y="398" on="0"/>
        <pt x="150" y="363" on="0"/>
        <pt x="150" y="326" on="1"/>
      </contour>
    </TTGlyph>
    <TTGlyph name="dvAcandra" xMin="40" yMin="0" xMax="682" yMax="886">
      <component glyphName="dvA" x="0" y="0" flags="0x0"/>
      <component glyphName="dvmEcandra" x="596" y="0" flags="0x0"/>
    </TTGlyph>
    <TTGlyph name="dvAnusvara" xMin="-175" yMin="727" xMax="-45" yMax="858">
      <contour>
        <pt x="-175" y="858" on="0"/>
        <pt x="-110" y="858" on="1"/>
        <pt x="-45" y="858" on="0"/>
        <pt x="-45" y="792" on="1"/>
        <pt x="-45" y="727" on="0"/>
        <pt x="-110" y="727" on="1"/>
        <pt x="-175" y="727" on="0"/>
        <pt x="-175" y="792" on="1"/>
      </contour>
    </TTGlyph>
    <TTGlyph name="dvAnusvara.amI" xMin="39" yMin="730" xMax="169" yMax="861">
      <component glyphName="dvAnusvara" x="214" y="3" flags="0x4"/>
    </TTGlyph>
    <TTGlyph name="dvAvagraha" xMin="32" yMin="-5" xMax="392" yMax="665">
      <contour>
        <pt x="392" y="78" on="0"/>
        <pt x="309" y="-5" on="0"/>
        <pt x="220" y="-5" on="1"/>
        <pt x="206" y="-5" on="1"/>
        <pt x="116" y="-5" on="0"/>
        <pt x="32" y="78" on="0"/>
        <pt x="32" y="159" on="1"/>
        <pt x="32" y="217" on="1"/>
        <pt x="150" y="217" on="1"/>
        <pt x="150" y="155" on="1"/>
        <pt x="150" y="132" on="0"/>
        <pt x="175" y="105" on="0"/>
        <pt x="209" y="105" on="1"/>
        <pt x="215" y="105" on="1"/>
        <pt x="249" y="105" on="0"/>
        <pt x="274" y="132" on="0"/>
        <pt x="274" y="155" on="1"/>
        <pt x="274" y="195" on="1"/>
        <pt x="274" y="222" on="0"/>
        <pt x="258" y="253" on="0"/>
        <pt x="234" y="268" on="1"/>
        <pt x="106" y="353" on="1"/>
        <pt x="32" y="402" on="0"/>
        <pt x="32" y="490" on="1"/>
        <pt x="32" y="516" on="1"/>
        <pt x="32" y="590" on="0"/>
        <pt x="107" y="665" on="0"/>
        <pt x="193" y="665" on="1"/>
        <pt x="368" y="665" on="1"/>
        <pt x="368" y="555" on="1"/>
        <pt x="201" y="555" on="1"/>
        <pt x="170" y="555" on="0"/>
        <pt x="150" y="532" on="0"/>
        <pt x="150" y="510" on="1"/>
        <pt x="150" y="495" on="1"/>
        <pt x="150" y="471" on="0"/>
        <pt x="168" y="442" on="0"/>
        <pt x="191" y="426" on="1"/>
        <pt x="315" y="344" on="1"/>
        <pt x="362" y="313" on="0"/>
        <pt x="392" y="246" on="0"/>
        <pt x="392" y="192" on="1"/>
        <pt x="392" y="159" on="1"/>
      </contour>
    </TTGlyph>
    <TTGlyph name="dvB" xMin="-35" yMin="58" xMax="421" yMax="665">
      <contour>
        <pt x="421" y="566" on="1"/>
        <pt x="-35" y="566" on="1"/>
        <pt x="-35" y="665" on="1"/>
        <pt x="421" y="665" on="1"/>
      </contour>
      <contour>
        <pt x="35" y="424" on="0"/>
        <pt x="121" y="506" on="0"/>
        <pt x="222" y="506" on="1"/>
        <pt x="315" y="506" on="0"/>
        <pt x="405" y="424" on="0"/>
        <pt x="405" y="342" on="1"/>
        <pt x="405" y="222" on="1"/>
        <pt x="405" y="140" on="0"/>
        <pt x="315" y="58" on="0"/>
        <pt x="222" y="58" on="1"/>
        <pt x="125" y="58" on="0"/>
        <pt x="35" y="141" on="0"/>
        <pt x="35" y="222" on="1"/>
        <pt x="35" y="342" on="1"/>
      </contour>
      <contour>
        <pt x="300" y="372" on="0"/>
        <pt x="265" y="408" on="0"/>
        <pt x="224" y="408" on="1"/>
        <pt x="178" y="408" on="0"/>
        <pt x="161" y="385" on="1"/>
        <pt x="300" y="251" on="1"/>
        <pt x="300" y="337" on="1"/>
      </contour>
      <contour>
        <pt x="147" y="191" on="0"/>
        <pt x="182" y="156" on="0"/>
        <pt x="224" y="156" on="1"/>
        <pt x="270" y="156" on="0"/>
        <pt x="287" y="178" on="1"/>
        <pt x="147" y="313" on="1"/>
        <pt x="147" y="226" on="1"/>
      </contour>
    </TTGlyph>
    <TTGlyph name="dvBA" xMin="-35" yMin="0" xMax="491" yMax="665">
      <contour>
        <pt x="491" y="665" on="1"/>
        <pt x="491" y="566" on="1"/>
        <pt x="405" y="566" on="1"/>
        <pt x="405" y="0" on="1"/>
        <pt x="293" y="0" on="1"/>
        <pt x="293" y="67" on="1"/>
        <pt x="266" y="58" on="0"/>
        <pt x="217" y="58" on="1"/>
        <pt x="126" y="58" on="0"/>
        <pt x="35" y="130" on="0"/>
        <pt x="35" y="215" on="1"/>
        <pt x="35" y="349" on="1"/>
        <pt x="35" y="434" on="0"/>
        <pt x="122" y="506" on="0"/>
        <pt x="212" y="506" on="1"/>
        <pt x="261" y="506" on="0"/>
        <pt x="293" y="494" on="1"/>
        <pt x="293" y="566" on="1"/>
        <pt x="-35" y="566" on="1"/>
        <pt x="-35" y="665" on="1"/>
      </contour>
      <contour>
        <pt x="176" y="408" on="0"/>
        <pt x="158" y="384" on="1"/>
        <pt x="293" y="260" on="1"/>
        <pt x="293" y="396" on="1"/>
        <pt x="257" y="408" on="0"/>
        <pt x="224" y="408" on="1"/>
      </contour>
      <contour>
        <pt x="252" y="156" on="0"/>
        <pt x="290" y="162" on="0"/>
        <pt x="293" y="163" on="1"/>
        <pt x="293" y="173" on="1"/>
        <pt x="147" y="310" on="1"/>
        <pt x="147" y="220" on="1"/>
        <pt x="147" y="156" on="0"/>
        <pt x="224" y="156" on="1"/>
      </contour>
    </TTGlyph>
    <TTGlyph name="dvBH" xMin="38" yMin="56" xMax="509" yMax="670">
      <contour>
        <pt x="363" y="323" on="1"/>
        <pt x="363" y="200" on="1"/>
        <pt x="363" y="56" on="0"/>
        <pt x="201" y="56" on="1"/>
        <pt x="38" y="56" on="0"/>
        <pt x="38" y="200" on="1"/>
        <pt x="38" y="281" on="1"/>
        <pt x="38" y="423" on="0"/>
        <pt x="201" y="423" on="1"/>
        <pt x="250" y="423" on="1"/>
        <pt x="250" y="514" on="1"/>
        <pt x="250" y="538" on="0"/>
        <pt x="232" y="561" on="0"/>
        <pt x="204" y="561" on="1"/>
        <pt x="176" y="561" on="0"/>
        <pt x="158" y="538" on="0"/>
        <pt x="158" y="514" on="1"/>
        <pt x="158" y="502" on="0"/>
        <pt x="161" y="479" on="0"/>
        <pt x="162" y="476" on="1"/>
        <pt x="44" y="476" on="1"/>
        <pt x="43" y="479" on="0"/>
        <pt x="40" y="504" on="0"/>
        <pt x="40" y="517" on="1"/>
        <pt x="40" y="670" on="0"/>
        <pt x="204" y="670" on="1"/>
        <pt x="368" y="670" on="0"/>
        <pt x="368" y="517" on="1"/>
        <pt x="368" y="423" on="1"/>
        <pt x="509" y="423" on="1"/>
        <pt x="509" y="323" on="1"/>
      </contour>
      <contour>
        <pt x="201" y="323" on="1"/>
        <pt x="172" y="323" on="0"/>
        <pt x="152" y="301" on="0"/>
        <pt x="152" y="277" on="1"/>
        <pt x="152" y="203" on="1"/>
        <pt x="152" y="180" on="0"/>
        <pt x="172" y="157" on="0"/>
        <pt x="201" y="157" on="1"/>
        <pt x="230" y="157" on="0"/>
        <pt x="250" y="180" on="0"/>
        <pt x="250" y="203" on="1"/>
        <pt x="250" y="323" on="1"/>
      </contour>
    </TTGlyph>
    <TTGlyph name="dvBHA" xMin="39" yMin="0" xMax="666" yMax="670">
      <contour>
        <pt x="251" y="538" on="0"/>
        <pt x="233" y="561" on="0"/>
        <pt x="205" y="561" on="1"/>
        <pt x="177" y="561" on="0"/>
        <pt x="159" y="538" on="0"/>
        <pt x="159" y="514" on="1"/>
        <pt x="159" y="503" on="0"/>
        <pt x="162" y="479" on="0"/>
        <pt x="163" y="476" on="1"/>
        <pt x="45" y="476" on="1"/>
        <pt x="44" y="480" on="0"/>
        <pt x="41" y="506" on="0"/>
        <pt x="41" y="517" on="1"/>
        <pt x="41" y="670" on="0"/>
        <pt x="205" y="670" on="1"/>
        <pt x="369" y="670" on="0"/>
        <pt x="369" y="517" on="1"/>
        <pt x="369" y="423" on="1"/>
        <pt x="461" y="423" on="1"/>
        <pt x="461" y="665" on="1"/>
        <pt x="666" y="665" on="1"/>
        <pt x="666" y="566" on="1"/>
        <pt x="580" y="566" on="1"/>
        <pt x="580" y="0" on="1"/>
        <pt x="461" y="0" on="1"/>
        <pt x="461" y="323" on="1"/>
        <pt x="364" y="323" on="1"/>
        <pt x="364" y="200" on="1"/>
        <pt x="364" y="56" on="0"/>
        <pt x="202" y="56" on="1"/>
        <pt x="39" y="56" on="0"/>
        <pt x="39" y="200" on="1"/>
        <pt x="39" y="281" on="1"/>
        <pt x="39" y="423" on="0"/>
        <pt x="202" y="423" on="1"/>
        <pt x="251" y="423" on="1"/>
        <pt x="251" y="514" on="1"/>
      </contour>
      <contour>
        <pt x="202" y="323" on="1"/>
        <pt x="173" y="323" on="0"/>
        <pt x="153" y="301" on="0"/>
        <pt x="153" y="277" on="1"/>
        <pt x="153" y="203" on="1"/>
        <pt x="153" y="180" on="0"/>
        <pt x="173" y="157" on="0"/>
        <pt x="202" y="157" on="1"/>
        <pt x="231" y="157" on="0"/>
        <pt x="251" y="180" on="0"/>
        <pt x="251" y="203" on="1"/>
        <pt x="251" y="323" on="1"/>
      </contour>
    </TTGlyph>
    <TTGlyph name="dvBH_LA" xMin="38" yMin="0" xMax="1096" yMax="670">
      <contour>
        <pt x="1096" y="665" on="1"/>
        <pt x="1096" y="566" on="1"/>
        <pt x="1009" y="566" on="1"/>
        <pt x="1009" y="0" on="1"/>
        <pt x="891" y="0" on="1"/>
        <pt x="891" y="373" on="1"/>
        <pt x="886" y="376" on="0"/>
        <pt x="861" y="381" on="0"/>
        <pt x="846" y="381" on="1"/>
        <pt x="792" y="381" on="0"/>
        <pt x="792" y="333" on="1"/>
        <pt x="792" y="211" on="1"/>
        <pt x="674" y="211" on="1"/>
        <pt x="674" y="333" on="1"/>
        <pt x="674" y="356" on="0"/>
        <pt x="653" y="381" on="0"/>
        <pt x="624" y="381" on="1"/>
        <pt x="595" y="381" on="0"/>
        <pt x="575" y="356" on="0"/>
        <pt x="575" y="332" on="1"/>
        <pt x="575" y="178" on="1"/>
        <pt x="575" y="144" on="0"/>
        <pt x="608" y="109" on="0"/>
        <pt x="655" y="109" on="1"/>
        <pt x="689" y="109" on="0"/>
        <pt x="713" y="112" on="1"/>
        <pt x="713" y="4" on="1"/>
        <pt x="681" y="0" on="0"/>
        <pt x="649" y="0" on="1"/>
        <pt x="548" y="0" on="0"/>
        <pt x="457" y="86" on="0"/>
        <pt x="457" y="174" on="1"/>
        <pt x="457" y="323" on="1"/>
        <pt x="363" y="323" on="1"/>
        <pt x="363" y="200" on="1"/>
        <pt x="363" y="56" on="0"/>
        <pt x="201" y="56" on="1"/>
        <pt x="38" y="56" on="0"/>
        <pt x="38" y="200" on="1"/>
        <pt x="38" y="281" on="1"/>
        <pt x="38" y="423" on="0"/>
        <pt x="201" y="423" on="1"/>
        <pt x="250" y="423" on="1"/>
        <pt x="250" y="514" on="1"/>
        <pt x="250" y="538" on="0"/>
        <pt x="232" y="561" on="0"/>
        <pt x="204" y="561" on="1"/>
        <pt x="176" y="561" on="0"/>
        <pt x="158" y="538" on="0"/>
        <pt x="158" y="514" on="1"/>
        <pt x="158" y="502" on="0"/>
        <pt x="161" y="479" on="0"/>
        <pt x="162" y="476" on="1"/>
        <pt x="44" y="476" on="1"/>
        <pt x="43" y="479" on="0"/>
        <pt x="40" y="504" on="0"/>
        <pt x="40" y="517" on="1"/>
        <pt x="40" y="670" on="0"/>
        <pt x="204" y="670" on="1"/>
        <pt x="368" y="670" on="0"/>
        <pt x="368" y="517" on="1"/>
        <pt x="368" y="423" on="1"/>
        <pt x="478" y="423" on="1"/>
        <pt x="517" y="490" on="0"/>
        <pt x="621" y="490" on="1"/>
        <pt x="663" y="490" on="0"/>
        <pt x="719" y="459" on="0"/>
        <pt x="731" y="438" on="1"/>
        <pt x="748" y="462" on="0"/>
        <pt x="796" y="489" on="0"/>
        <pt x="836" y="489" on="1"/>
        <pt x="870" y="489" on="0"/>
        <pt x="891" y="482" on="1"/>
        <pt x="891" y="566" on="1"/>
        <pt x="423" y="566" on="1"/>
        <pt x="423" y="665" on="1"/>
      </contour>
      <contour>
        <pt x="250" y="323" on="1"/>
        <pt x="201" y="323" on="1"/>
        <pt x="172" y="323" on="0"/>
        <pt x="152" y="301" on="0"/>
        <pt x="152" y="277" on="1"/>
        <pt x="152" y="203" on="1"/>
        <pt x="152" y="180" on="0"/>
        <pt x="172" y="157" on="0"/>
        <pt x="201" y="157" on="1"/>
        <pt x="230" y="157" on="0"/>
        <pt x="250" y="180" on="0"/>
        <pt x="250" y="203" on="1"/>
      </contour>
    </TTGlyph>
    <TTGlyph name="dvBH_NA" xMin="38" yMin="0" xMax="1050" yMax="670">
      <contour>
        <pt x="1050" y="665" on="1"/>
        <pt x="1050" y="566" on="1"/>
        <pt x="964" y="566" on="1"/>
        <pt x="964" y="0" on="1"/>
        <pt x="846" y="0" on="1"/>
        <pt x="846" y="379" on="1"/>
        <pt x="759" y="379" on="1"/>
        <pt x="761" y="374" on="0"/>
        <pt x="767" y="337" on="0"/>
        <pt x="767" y="319" on="1"/>
        <pt x="767" y="206" on="1"/>
        <pt x="767" y="131" on="0"/>
        <pt x="693" y="55" on="0"/>
        <pt x="610" y="55" on="1"/>
        <pt x="527" y="55" on="0"/>
        <pt x="452" y="131" on="0"/>
        <pt x="452" y="206" on="1"/>
        <pt x="452" y="323" on="1"/>
        <pt x="363" y="323" on="1"/>
        <pt x="363" y="200" on="1"/>
        <pt x="363" y="56" on="0"/>
        <pt x="201" y="56" on="1"/>
        <pt x="38" y="56" on="0"/>
        <pt x="38" y="200" on="1"/>
        <pt x="38" y="281" on="1"/>
        <pt x="38" y="423" on="0"/>
        <pt x="201" y="423" on="1"/>
        <pt x="250" y="423" on="1"/>
        <pt x="250" y="514" on="1"/>
        <pt x="250" y="538" on="0"/>
        <pt x="232" y="561" on="0"/>
        <pt x="204" y="561" on="1"/>
        <pt x="176" y="561" on="0"/>
        <pt x="158" y="538" on="0"/>
        <pt x="158" y="514" on="1"/>
        <pt x="158" y="502" on="0"/>
        <pt x="161" y="479" on="0"/>
        <pt x="162" y="476" on="1"/>
        <pt x="44" y="476" on="1"/>
        <pt x="43" y="479" on="0"/>
        <pt x="40" y="503" on="0"/>
        <pt x="40" y="517" on="1"/>
        <pt x="40" y="670" on="0"/>
        <pt x="204" y="670" on="1"/>
        <pt x="368" y="670" on="0"/>
        <pt x="368" y="517" on="1"/>
        <pt x="368" y="423" on="1"/>
        <pt x="470" y="423" on="1"/>
        <pt x="504" y="488" on="0"/>
        <pt x="610" y="488" on="1"/>
        <pt x="846" y="488" on="1"/>
        <pt x="846" y="566" on="1"/>
        <pt x="429" y="566" on="1"/>
        <pt x="429" y="665" on="1"/>
      </contour>
      <contour>
        <pt x="656" y="315" on="1"/>
        <pt x="656" y="336" on="0"/>
        <pt x="650" y="371" on="0"/>
        <pt x="647" y="379" on="1"/>
        <pt x="610" y="379" on="1"/>
        <pt x="583" y="379" on="0"/>
        <pt x="564" y="356" on="0"/>
        <pt x="564" y="333" on="1"/>
        <pt x="564" y="207" on="1"/>
        <pt x="564" y="184" on="0"/>
        <pt x="583" y="160" on="0"/>
        <pt x="610" y="160" on="1"/>
        <pt x="637" y="160" on="0"/>
        <pt x="656" y="184" on="0"/>
        <pt x="656" y="207" on="1"/>
      </contour>
      <contour>
        <pt x="250" y="323" on="1"/>
        <pt x="201" y="323" on="1"/>
        <pt x="172" y="323" on="0"/>
        <pt x="152" y="301" on="0"/>
        <pt x="152" y="277" on="1"/>
        <pt x="152" y="203" on="1"/>
        <pt x="152" y="180" on="0"/>
        <pt x="172" y="157" on="0"/>
        <pt x="201" y="157" on="1"/>
        <pt x="230" y="157" on="0"/>
        <pt x="250" y="180" on="0"/>
        <pt x="250" y="203" on="1"/>
      </contour>
    </TTGlyph>
    <TTGlyph name="dvBH_R" xMin="40" yMin="-55" xMax="512" yMax="670">
      <contour>
        <pt x="366" y="344" on="1"/>
        <pt x="366" y="267" on="1"/>
        <pt x="366" y="198" on="0"/>
        <pt x="286" y="123" on="0"/>
        <pt x="203" y="123" on="1"/>
        <pt x="40" y="123" on="0"/>
        <pt x="40" y="267" on="1"/>
        <pt x="40" y="301" on="1"/>
        <pt x="40" y="444" on="0"/>
        <pt x="203" y="444" on="1"/>
        <pt x="252" y="444" on="1"/>
        <pt x="252" y="514" on="1"/>
        <pt x="252" y="538" on="0"/>
        <pt x="234" y="561" on="0"/>
        <pt x="206" y="561" on="1"/>
        <pt x="178" y="561" on="0"/>
        <pt x="160" y="537" on="0"/>
        <pt x="160" y="514" on="1"/>
        <pt x="160" y="505" on="0"/>
        <pt x="162" y="490" on="0"/>
        <pt x="163" y="488" on="1"/>
        <pt x="45" y="488" on="1"/>
        <pt x="44" y="490" on="0"/>
        <pt x="42" y="506" on="0"/>
        <pt x="42" y="517" on="1"/>
        <pt x="42" y="670" on="0"/>
        <pt x="206" y="670" on="1"/>
        <pt x="370" y="670" on="0"/>
        <pt x="370" y="517" on="1"/>
        <pt x="370" y="444" on="1"/>
        <pt x="512" y="444" on="1"/>
        <pt x="512" y="344" on="1"/>
      </contour>
      <contour>
        <pt x="203" y="344" on="1"/>
        <pt x="174" y="344" on="0"/>
        <pt x="154" y="321" on="0"/>
        <pt x="154" y="298" on="1"/>
        <pt x="154" y="270" on="1"/>
        <pt x="154" y="247" on="0"/>
        <pt x="174" y="224" on="0"/>
        <pt x="203" y="224" on="1"/>
        <pt x="232" y="224" on="0"/>
        <pt x="252" y="247" on="0"/>
        <pt x="252" y="270" on="1"/>
        <pt x="252" y="344" on="1"/>
      </contour>
      <contour>
        <pt x="503" y="159" on="0"/>
        <pt x="443" y="64" on="0"/>
        <pt x="411" y="27" on="1"/>
        <pt x="340" y="-55" on="1"/>
        <pt x="201" y="-55" on="1"/>
        <pt x="512" y="310" on="1"/>
        <pt x="512" y="184" on="1"/>
      </contour>
    </TTGlyph>
    <TTGlyph name="dvBH_RA" xMin="40" yMin="-55" xMax="668" yMax="670">
      <contour>
        <pt x="366" y="344" on="1"/>
        <pt x="366" y="267" on="1"/>
        <pt x="366" y="198" on="0"/>
        <pt x="286" y="123" on="0"/>
        <pt x="203" y="123" on="1"/>
        <pt x="40" y="123" on="0"/>
        <pt x="40" y="267" on="1"/>
        <pt x="40" y="301" on="1"/>
        <pt x="40" y="444" on="0"/>
        <pt x="203" y="444" on="1"/>
        <pt x="252" y="444" on="1"/>
        <pt x="252" y="514" on="1"/>
        <pt x="252" y="538" on="0"/>
        <pt x="234" y="561" on="0"/>
        <pt x="206" y="561" on="1"/>
        <pt x="178" y="561" on="0"/>
        <pt x="160" y="537" on="0"/>
        <pt x="160" y="514" on="1"/>
        <pt x="160" y="505" on="0"/>
        <pt x="162" y="490" on="0"/>
        <pt x="163" y="488" on="1"/>
        <pt x="45" y="488" on="1"/>
        <pt x="44" y="490" on="0"/>
        <pt x="42" y="506" on="0"/>
        <pt x="42" y="517" on="1"/>
        <pt x="42" y="670" on="0"/>
        <pt x="206" y="670" on="1"/>
        <pt x="370" y="670" on="0"/>
        <pt x="370" y="517" on="1"/>
        <pt x="370" y="444" on="1"/>
        <pt x="464" y="444" on="1"/>
        <pt x="464" y="665" on="1"/>
        <pt x="668" y="665" on="1"/>
        <pt x="668" y="566" on="1"/>
        <pt x="582" y="566" on="1"/>
        <pt x="582" y="-6" on="1"/>
        <pt x="471" y="-6" on="1"/>
        <pt x="471" y="6" on="1"/>
        <pt x="471" y="74" on="0"/>
        <pt x="481" y="135" on="1"/>
        <pt x="479" y="135" on="1"/>
        <pt x="473" y="116" on="0"/>
        <pt x="432" y="50" on="0"/>
        <pt x="406" y="20" on="1"/>
        <pt x="340" y="-55" on="1"/>
        <pt x="201" y="-55" on="1"/>
        <pt x="464" y="253" on="1"/>
        <pt x="464" y="344" on="1"/>
      </contour>
      <contour>
        <pt x="203" y="344" on="1"/>
        <pt x="174" y="344" on="0"/>
        <pt x="154" y="321" on="0"/>
        <pt x="154" y="298" on="1"/>
        <pt x="154" y="270" on="1"/>
        <pt x="154" y="247" on="0"/>
        <pt x="174" y="224" on="0"/>
        <pt x="203" y="224" on="1"/>
        <pt x="232" y="224" on="0"/>
        <pt x="252" y="247" on="0"/>
        <pt x="252" y="270" on="1"/>
        <pt x="252" y="344" on="1"/>
      </contour>
    </TTGlyph>
    <TTGlyph name="dvBH_R_YA" xMin="39" yMin="-55" xMax="974" yMax="670">
      <contour>
        <pt x="974" y="665" on="1"/>
        <pt x="974" y="566" on="1"/>
        <pt x="887" y="566" on="1"/>
        <pt x="887" y="0" on="1"/>
        <pt x="769" y="0" on="1"/>
        <pt x="769" y="104" on="1"/>
        <pt x="739" y="86" on="0"/>
        <pt x="675" y="86" on="1"/>
        <pt x="569" y="86" on="0"/>
        <pt x="511" y="135" on="1"/>
        <pt x="478" y="77" on="0"/>
        <pt x="435" y="27" on="1"/>
        <pt x="364" y="-55" on="1"/>
        <pt x="225" y="-55" on="1"/>
        <pt x="461" y="221" on="1"/>
        <pt x="456" y="244" on="0"/>
        <pt x="456" y="266" on="1"/>
        <pt x="456" y="335" on="1"/>
        <pt x="445" y="340" on="0"/>
        <pt x="418" y="340" on="1"/>
        <pt x="364" y="340" on="1"/>
        <pt x="364" y="265" on="1"/>
        <pt x="364" y="121" on="0"/>
        <pt x="202" y="121" on="1"/>
        <pt x="39" y="121" on="0"/>
        <pt x="39" y="265" on="1"/>
        <pt x="39" y="298" on="1"/>
        <pt x="39" y="440" on="0"/>
        <pt x="202" y="440" on="1"/>
        <pt x="251" y="440" on="1"/>
        <pt x="251" y="514" on="1"/>
        <pt x="251" y="538" on="0"/>
        <pt x="233" y="561" on="0"/>
        <pt x="205" y="561" on="1"/>
        <pt x="177" y="561" on="0"/>
        <pt x="159" y="538" on="0"/>
        <pt x="159" y="514" on="1"/>
        <pt x="159" y="503" on="0"/>
        <pt x="161" y="482" on="0"/>
        <pt x="161" y="479" on="1"/>
        <pt x="43" y="479" on="1"/>
        <pt x="43" y="483" on="0"/>
        <pt x="41" y="505" on="0"/>
        <pt x="41" y="517" on="1"/>
        <pt x="41" y="670" on="0"/>
        <pt x="205" y="670" on="1"/>
        <pt x="369" y="670" on="0"/>
        <pt x="369" y="517" on="1"/>
        <pt x="369" y="440" on="1"/>
        <pt x="425" y="440" on="1"/>
        <pt x="470" y="440" on="0"/>
        <pt x="526" y="421" on="0"/>
        <pt x="541" y="401" on="1"/>
        <pt x="559" y="407" on="0"/>
        <pt x="574" y="435" on="0"/>
        <pt x="574" y="459" on="1"/>
        <pt x="574" y="512" on="1"/>
        <pt x="574" y="566" on="0"/>
        <pt x="549" y="566" on="1"/>
        <pt x="423" y="566" on="1"/>
        <pt x="423" y="665" on="1"/>
      </contour>
      <contour>
        <pt x="769" y="566" on="1"/>
        <pt x="677" y="566" on="1"/>
        <pt x="681" y="563" on="0"/>
        <pt x="689" y="533" on="0"/>
        <pt x="689" y="512" on="1"/>
        <pt x="689" y="437" on="1"/>
        <pt x="689" y="321" on="0"/>
        <pt x="572" y="316" on="1"/>
        <pt x="572" y="281" on="1"/>
        <pt x="572" y="239" on="0"/>
        <pt x="624" y="196" on="0"/>
        <pt x="681" y="196" on="1"/>
        <pt x="715" y="196" on="0"/>
        <pt x="756" y="212" on="0"/>
        <pt x="769" y="231" on="1"/>
      </contour>
      <contour>
        <pt x="251" y="342" on="1"/>
        <pt x="202" y="342" on="1"/>
        <pt x="173" y="342" on="0"/>
        <pt x="153" y="320" on="0"/>
        <pt x="153" y="296" on="1"/>
        <pt x="153" y="270" on="1"/>
        <pt x="153" y="247" on="0"/>
        <pt x="173" y="224" on="0"/>
        <pt x="202" y="224" on="1"/>
        <pt x="231" y="224" on="0"/>
        <pt x="251" y="247" on="0"/>
        <pt x="251" y="270" on="1"/>
      </contour>
    </TTGlyph>
    <TTGlyph name="dvBH_VA" xMin="38" yMin="0" xMax="896" yMax="670">
      <contour>
        <pt x="896" y="665" on="1"/>
        <pt x="896" y="566" on="1"/>
        <pt x="809" y="566" on="1"/>
        <pt x="809" y="0" on="1"/>
        <pt x="691" y="0" on="1"/>
        <pt x="691" y="66" on="1"/>
        <pt x="662" y="57" on="0"/>
        <pt x="618" y="57" on="1"/>
        <pt x="533" y="57" on="0"/>
        <pt x="458" y="133" on="0"/>
        <pt x="458" y="208" on="1"/>
        <pt x="458" y="323" on="1"/>
        <pt x="363" y="323" on="1"/>
        <pt x="363" y="200" on="1"/>
        <pt x="363" y="56" on="0"/>
        <pt x="201" y="56" on="1"/>
        <pt x="38" y="56" on="0"/>
        <pt x="38" y="200" on="1"/>
        <pt x="38" y="281" on="1"/>
        <pt x="38" y="423" on="0"/>
        <pt x="201" y="423" on="1"/>
        <pt x="250" y="423" on="1"/>
        <pt x="250" y="514" on="1"/>
        <pt x="250" y="538" on="0"/>
        <pt x="232" y="561" on="0"/>
        <pt x="204" y="561" on="1"/>
        <pt x="176" y="561" on="0"/>
        <pt x="158" y="538" on="0"/>
        <pt x="158" y="514" on="1"/>
        <pt x="158" y="502" on="0"/>
        <pt x="161" y="479" on="0"/>
        <pt x="162" y="476" on="1"/>
        <pt x="44" y="476" on="1"/>
        <pt x="43" y="479" on="0"/>
        <pt x="40" y="504" on="0"/>
        <pt x="40" y="517" on="1"/>
        <pt x="40" y="670" on="0"/>
        <pt x="204" y="670" on="1"/>
        <pt x="368" y="670" on="0"/>
        <pt x="368" y="517" on="1"/>
        <pt x="368" y="423" on="1"/>
        <pt x="469" y="423" on="1"/>
        <pt x="499" y="506" on="0"/>
        <pt x="618" y="506" on="1"/>
        <pt x="652" y="506" on="0"/>
        <pt x="691" y="497" on="1"/>
        <pt x="691" y="566" on="1"/>
        <pt x="429" y="566" on="1"/>
        <pt x="429" y="665" on="1"/>
      </contour>
      <contour>
        <pt x="697" y="398" on="1"/>
        <pt x="664" y="405" on="0"/>
        <pt x="637" y="405" on="1"/>
        <pt x="573" y="405" on="0"/>
        <pt x="573" y="353" on="1"/>
        <pt x="573" y="211" on="1"/>
        <pt x="573" y="158" on="0"/>
        <pt x="638" y="158" on="1"/>
        <pt x="675" y="158" on="0"/>
        <pt x="697" y="166" on="1"/>
      </contour>
      <contour>
        <pt x="250" y="323" on="1"/>
        <pt x="201" y="323" on="1"/>
        <pt x="172" y="323" on="0"/>
        <pt x="152" y="301" on="0"/>
        <pt x="152" y="277" on="1"/>
        <pt x="152" y="203" on="1"/>
        <pt x="152" y="180" on="0"/>
        <pt x="172" y="157" on="0"/>
        <pt x="201" y="157" on="1"/>
        <pt x="230" y="157" on="0"/>
        <pt x="250" y="180" on="0"/>
        <pt x="250" y="203" on="1"/>
      </contour>
    </TTGlyph>
    <TTGlyph name="dvBH_YA" xMin="39" yMin="0" xMax="974" yMax="670">
      <contour>
        <pt x="974" y="665" on="1"/>
        <pt x="974" y="566" on="1"/>
        <pt x="887" y="566" on="1"/>
        <pt x="887" y="0" on="1"/>
        <pt x="769" y="0" on="1"/>
        <pt x="769" y="95" on="1"/>
        <pt x="731" y="86" on="0"/>
        <pt x="678" y="86" on="1"/>
        <pt x="577" y="86" on="0"/>
        <pt x="456" y="178" on="0"/>
        <pt x="456" y="266" on="1"/>
        <pt x="456" y="321" on="1"/>
        <pt x="443" y="326" on="0"/>
        <pt x="417" y="326" on="1"/>
        <pt x="364" y="326" on="1"/>
        <pt x="364" y="200" on="1"/>
        <pt x="364" y="56" on="0"/>
        <pt x="202" y="56" on="1"/>
        <pt x="39" y="56" on="0"/>
        <pt x="39" y="200" on="1"/>
        <pt x="39" y="284" on="1"/>
        <pt x="39" y="426" on="0"/>
        <pt x="202" y="426" on="1"/>
        <pt x="251" y="426" on="1"/>
        <pt x="251" y="514" on="1"/>
        <pt x="251" y="538" on="0"/>
        <pt x="233" y="561" on="0"/>
        <pt x="205" y="561" on="1"/>
        <pt x="177" y="561" on="0"/>
        <pt x="159" y="538" on="0"/>
        <pt x="159" y="514" on="1"/>
        <pt x="159" y="500" on="0"/>
        <pt x="161" y="479" on="0"/>
        <pt x="162" y="476" on="1"/>
        <pt x="44" y="476" on="1"/>
        <pt x="43" y="479" on="0"/>
        <pt x="41" y="502" on="0"/>
        <pt x="41" y="517" on="1"/>
        <pt x="41" y="670" on="0"/>
        <pt x="205" y="670" on="1"/>
        <pt x="369" y="670" on="0"/>
        <pt x="369" y="517" on="1"/>
        <pt x="369" y="426" on="1"/>
        <pt x="425" y="426" on="1"/>
        <pt x="501" y="426" on="0"/>
        <pt x="531" y="397" on="1"/>
        <pt x="555" y="402" on="0"/>
        <pt x="574" y="431" on="0"/>
        <pt x="574" y="458" on="1"/>
        <pt x="574" y="512" on="1"/>
        <pt x="574" y="535" on="0"/>
        <pt x="568" y="563" on="0"/>
        <pt x="567" y="566" on="1"/>
        <pt x="423" y="566" on="1"/>
        <pt x="423" y="665" on="1"/>
      </contour>
      <contour>
        <pt x="769" y="566" on="1"/>
        <pt x="683" y="566" on="1"/>
        <pt x="684" y="562" on="0"/>
        <pt x="689" y="532" on="0"/>
        <pt x="689" y="512" on="1"/>
        <pt x="689" y="436" on="1"/>
        <pt x="689" y="320" on="0"/>
        <pt x="572" y="315" on="1"/>
        <pt x="572" y="281" on="1"/>
        <pt x="572" y="196" on="0"/>
        <pt x="684" y="196" on="1"/>
        <pt x="732" y="196" on="0"/>
        <pt x="769" y="204" on="1"/>
      </contour>
      <contour>
        <pt x="251" y="326" on="1"/>
        <pt x="202" y="326" on="1"/>
        <pt x="173" y="326" on="0"/>
        <pt x="153" y="304" on="0"/>
        <pt x="153" y="280" on="1"/>
        <pt x="153" y="203" on="1"/>
        <pt x="153" y="180" on="0"/>
        <pt x="173" y="157" on="0"/>
        <pt x="202" y="157" on="1"/>
        <pt x="231" y="157" on="0"/>
        <pt x="251" y="180" on="0"/>
        <pt x="251" y="203" on="1"/>
      </contour>
    </TTGlyph>
    <TTGlyph name="dvB_BA" xMin="-35" yMin="0" xMax="764" yMax="665">
      <contour>
        <pt x="764" y="566" on="1"/>
        <pt x="678" y="566" on="1"/>
        <pt x="678" y="0" on="1"/>
        <pt x="566" y="0" on="1"/>
        <pt x="566" y="67" on="1"/>
        <pt x="539" y="58" on="0"/>
        <pt x="490" y="58" on="1"/>
        <pt x="395" y="58" on="0"/>
        <pt x="351" y="96" on="1"/>
        <pt x="308" y="58" on="0"/>
        <pt x="226" y="58" on="1"/>
        <pt x="127" y="58" on="0"/>
        <pt x="35" y="141" on="0"/>
        <pt x="35" y="222" on="1"/>
        <pt x="35" y="342" on="1"/>
        <pt x="35" y="424" on="0"/>
        <pt x="119" y="506" on="0"/>
        <pt x="215" y="506" on="1"/>
        <pt x="231" y="506" on="0"/>
        <pt x="252" y="504" on="0"/>
        <pt x="255" y="503" on="1"/>
        <pt x="255" y="405" on="1"/>
        <pt x="253" y="406" on="0"/>
        <pt x="236" y="408" on="0"/>
        <pt x="224" y="408" on="1"/>
        <pt x="171" y="408" on="0"/>
        <pt x="156" y="379" on="1"/>
        <pt x="308" y="254" on="1"/>
        <pt x="308" y="349" on="1"/>
        <pt x="308" y="434" on="0"/>
        <pt x="395" y="506" on="0"/>
        <pt x="485" y="506" on="1"/>
        <pt x="534" y="506" on="0"/>
        <pt x="566" y="494" on="1"/>
        <pt x="566" y="566" on="1"/>
        <pt x="-35" y="566" on="1"/>
        <pt x="-35" y="665" on="1"/>
        <pt x="764" y="665" on="1"/>
      </contour>
      <contour>
        <pt x="449" y="408" on="0"/>
        <pt x="431" y="384" on="1"/>
        <pt x="566" y="260" on="1"/>
        <pt x="566" y="396" on="1"/>
        <pt x="530" y="408" on="0"/>
        <pt x="497" y="408" on="1"/>
      </contour>
      <contour>
        <pt x="525" y="156" on="0"/>
        <pt x="563" y="162" on="0"/>
        <pt x="566" y="163" on="1"/>
        <pt x="566" y="173" on="1"/>
        <pt x="420" y="310" on="1"/>
        <pt x="420" y="220" on="1"/>
        <pt x="420" y="156" on="0"/>
        <pt x="497" y="156" on="1"/>
      </contour>
      <contour>
        <pt x="281" y="156" on="0"/>
        <pt x="298" y="182" on="1"/>
        <pt x="147" y="306" on="1"/>
        <pt x="147" y="226" on="1"/>
        <pt x="147" y="191" on="0"/>
        <pt x="183" y="156" on="0"/>
        <pt x="228" y="156" on="1"/>
      </contour>
    </TTGlyph>
    <TTGlyph name="dvB_BHA" xMin="-35" yMin="0" xMax="928" yMax="670">
      <contour>
        <pt x="928" y="665" on="1"/>
        <pt x="928" y="566" on="1"/>
        <pt x="842" y="566" on="1"/>
        <pt x="842" y="0" on="1"/>
        <pt x="723" y="0" on="1"/>
        <pt x="723" y="323" on="1"/>
        <pt x="626" y="323" on="1"/>
        <pt x="626" y="200" on="1"/>
        <pt x="626" y="56" on="0"/>
        <pt x="464" y="56" on="1"/>
        <pt x="381" y="56" on="0"/>
        <pt x="341" y="93" on="1"/>
        <pt x="298" y="58" on="0"/>
        <pt x="222" y="58" on="1"/>
        <pt x="125" y="58" on="0"/>
        <pt x="35" y="141" on="0"/>
        <pt x="35" y="222" on="1"/>
        <pt x="35" y="342" on="1"/>
        <pt x="35" y="424" on="0"/>
        <pt x="119" y="506" on="0"/>
        <pt x="215" y="506" on="1"/>
        <pt x="231" y="506" on="0"/>
        <pt x="252" y="504" on="0"/>
        <pt x="255" y="503" on="1"/>
        <pt x="255" y="405" on="1"/>
        <pt x="253" y="406" on="0"/>
        <pt x="236" y="408" on="0"/>
        <pt x="224" y="408" on="1"/>
        <pt x="171" y="408" on="0"/>
        <pt x="156" y="379" on="1"/>
        <pt x="301" y="260" on="1"/>
        <pt x="301" y="281" on="1"/>
        <pt x="301" y="423" on="0"/>
        <pt x="464" y="423" on="1"/>
        <pt x="512" y="423" on="1"/>
        <pt x="512" y="514" on="1"/>
        <pt x="512" y="538" on="0"/>
        <pt x="495" y="561" on="0"/>
        <pt x="467" y="561" on="1"/>
        <pt x="439" y="561" on="0"/>
        <pt x="421" y="538" on="0"/>
        <pt x="421" y="514" on="1"/>
        <pt x="421" y="501" on="0"/>
        <pt x="423" y="480" on="0"/>
        <pt x="424" y="476" on="1"/>
        <pt x="306" y="476" on="1"/>
        <pt x="305" y="479" on="0"/>
        <pt x="303" y="502" on="0"/>
        <pt x="303" y="517" on="1"/>
        <pt x="303" y="670" on="0"/>
        <pt x="467" y="670" on="1"/>
        <pt x="631" y="670" on="0"/>
        <pt x="631" y="517" on="1"/>
        <pt x="631" y="423" on="1"/>
        <pt x="723" y="423" on="1"/>
        <pt x="723" y="665" on="1"/>
      </contour>
      <contour>
        <pt x="254" y="566" on="1"/>
        <pt x="-35" y="566" on="1"/>
        <pt x="-35" y="665" on="1"/>
        <pt x="254" y="665" on="1"/>
      </contour>
      <contour>
        <pt x="512" y="323" on="1"/>
        <pt x="464" y="323" on="1"/>
        <pt x="435" y="323" on="0"/>
        <pt x="415" y="301" on="0"/>
        <pt x="415" y="277" on="1"/>
        <pt x="415" y="203" on="1"/>
        <pt x="415" y="180" on="0"/>
        <pt x="435" y="157" on="0"/>
        <pt x="464" y="157" on="1"/>
        <pt x="493" y="157" on="0"/>
        <pt x="512" y="180" on="0"/>
        <pt x="512" y="203" on="1"/>
      </contour>
      <contour>
        <pt x="252" y="156" on="0"/>
        <pt x="285" y="171" on="0"/>
        <pt x="293" y="187" on="1"/>
        <pt x="147" y="306" on="1"/>
        <pt x="147" y="226" on="1"/>
        <pt x="147" y="191" on="0"/>
        <pt x="182" y="156" on="0"/>
        <pt x="224" y="156" on="1"/>
      </contour>
    </TTGlyph>
    <TTGlyph name="dvB_BH_RA" xMin="-35" yMin="-55" xMax="928" yMax="670">
      <contour>
        <pt x="928" y="665" on="1"/>
        <pt x="928" y="566" on="1"/>
        <pt x="842" y="566" on="1"/>
        <pt x="842" y="-6" on="1"/>
        <pt x="731" y="-6" on="1"/>
        <pt x="731" y="6" on="1"/>
        <pt x="731" y="74" on="0"/>
        <pt x="741" y="135" on="1"/>
        <pt x="739" y="135" on="1"/>
        <pt x="733" y="116" on="0"/>
        <pt x="692" y="50" on="0"/>
        <pt x="666" y="20" on="1"/>
        <pt x="600" y="-55" on="1"/>
        <pt x="461" y="-55" on="1"/>
        <pt x="724" y="253" on="1"/>
        <pt x="724" y="344" on="1"/>
        <pt x="626" y="344" on="1"/>
        <pt x="626" y="267" on="1"/>
        <pt x="626" y="198" on="0"/>
        <pt x="546" y="123" on="0"/>
        <pt x="463" y="123" on="1"/>
        <pt x="410" y="123" on="0"/>
        <pt x="374" y="138" on="1"/>
        <pt x="339" y="58" on="0"/>
        <pt x="222" y="58" on="1"/>
        <pt x="125" y="58" on="0"/>
        <pt x="35" y="141" on="0"/>
        <pt x="35" y="222" on="1"/>
        <pt x="35" y="342" on="1"/>
        <pt x="35" y="424" on="0"/>
        <pt x="119" y="506" on="0"/>
        <pt x="215" y="506" on="1"/>
        <pt x="231" y="506" on="0"/>
        <pt x="252" y="504" on="0"/>
        <pt x="255" y="503" on="1"/>
        <pt x="255" y="405" on="1"/>
        <pt x="253" y="406" on="0"/>
        <pt x="236" y="408" on="0"/>
        <pt x="224" y="408" on="1"/>
        <pt x="171" y="408" on="0"/>
        <pt x="156" y="379" on="1"/>
        <pt x="300" y="261" on="1"/>
        <pt x="300" y="267" on="1"/>
        <pt x="300" y="301" on="1"/>
        <pt x="300" y="444" on="0"/>
        <pt x="463" y="444" on="1"/>
        <pt x="512" y="444" on="1"/>
        <pt x="512" y="514" on="1"/>
        <pt x="512" y="538" on="0"/>
        <pt x="494" y="561" on="0"/>
        <pt x="466" y="561" on="1"/>
        <pt x="438" y="561" on="0"/>
        <pt x="420" y="537" on="0"/>
        <pt x="420" y="514" on="1"/>
        <pt x="420" y="505" on="0"/>
        <pt x="422" y="490" on="0"/>
        <pt x="423" y="488" on="1"/>
        <pt x="305" y="488" on="1"/>
        <pt x="304" y="490" on="0"/>
        <pt x="302" y="506" on="0"/>
        <pt x="302" y="517" on="1"/>
        <pt x="302" y="670" on="0"/>
        <pt x="466" y="670" on="1"/>
        <pt x="630" y="670" on="0"/>
        <pt x="630" y="517" on="1"/>
        <pt x="630" y="444" on="1"/>
        <pt x="724" y="444" on="1"/>
        <pt x="724" y="665" on="1"/>
      </contour>
      <contour>
        <pt x="255" y="566" on="1"/>
        <pt x="-35" y="566" on="1"/>
        <pt x="-35" y="665" on="1"/>
        <pt x="255" y="665" on="1"/>
      </contour>
      <contour>
        <pt x="512" y="344" on="1"/>
        <pt x="463" y="344" on="1"/>
        <pt x="434" y="344" on="0"/>
        <pt x="414" y="321" on="0"/>
        <pt x="414" y="298" on="1"/>
        <pt x="414" y="270" on="1"/>
        <pt x="414" y="247" on="0"/>
        <pt x="434" y="224" on="0"/>
        <pt x="463" y="224" on="1"/>
        <pt x="492" y="224" on="0"/>
        <pt x="512" y="247" on="0"/>
        <pt x="512" y="270" on="1"/>
      </contour>
      <contour>
        <pt x="252" y="156" on="0"/>
        <pt x="285" y="171" on="0"/>
        <pt x="293" y="187" on="1"/>
        <pt x="147" y="306" on="1"/>
        <pt x="147" y="226" on="1"/>
        <pt x="147" y="191" on="0"/>
        <pt x="182" y="156" on="0"/>
        <pt x="224" y="156" on="1"/>
      </contour>
    </TTGlyph>
    <TTGlyph name="dvB_DA" xMin="-35" yMin="-2" xMax="724" yMax="665">
      <contour>
        <pt x="440" y="390" on="0"/>
        <pt x="418" y="368" on="0"/>
        <pt x="418" y="344" on="1"/>
        <pt x="418" y="218" on="1"/>
        <pt x="418" y="194" on="0"/>
        <pt x="444" y="169" on="0"/>
        <pt x="476" y="169" on="1"/>
        <pt x="501" y="169" on="0"/>
        <pt x="527" y="176" on="1"/>
        <pt x="527" y="267" on="1"/>
        <pt x="645" y="267" on="1"/>
        <pt x="645" y="-2" on="1"/>
        <pt x="527" y="-2" on="1"/>
        <pt x="527" y="72" on="1"/>
        <pt x="499" y="65" on="0"/>
        <pt x="459" y="65" on="1"/>
        <pt x="386" y="65" on="0"/>
        <pt x="347" y="95" on="1"/>
        <pt x="307" y="58" on="0"/>
        <pt x="226" y="58" on="1"/>
        <pt x="127" y="58" on="0"/>
        <pt x="35" y="141" on="0"/>
        <pt x="35" y="222" on="1"/>
        <pt x="35" y="342" on="1"/>
        <pt x="35" y="424" on="0"/>
        <pt x="119" y="506" on="0"/>
        <pt x="215" y="506" on="1"/>
        <pt x="231" y="506" on="0"/>
        <pt x="252" y="504" on="0"/>
        <pt x="255" y="503" on="1"/>
        <pt x="255" y="405" on="1"/>
        <pt x="253" y="406" on="0"/>
        <pt x="236" y="408" on="0"/>
        <pt x="224" y="408" on="1"/>
        <pt x="171" y="408" on="0"/>
        <pt x="156" y="379" on="1"/>
        <pt x="300" y="261" on="1"/>
        <pt x="300" y="348" on="1"/>
        <pt x="300" y="428" on="0"/>
        <pt x="382" y="497" on="0"/>
        <pt x="471" y="497" on="1"/>
        <pt x="516" y="497" on="1"/>
        <pt x="516" y="566" on="1"/>
        <pt x="-35" y="566" on="1"/>
        <pt x="-35" y="665" on="1"/>
        <pt x="724" y="665" on="1"/>
        <pt x="724" y="566" on="1"/>
        <pt x="634" y="566" on="1"/>
        <pt x="634" y="390" on="1"/>
        <pt x="471" y="390" on="1"/>
      </contour>
      <contour>
        <pt x="281" y="156" on="0"/>
        <pt x="298" y="182" on="1"/>
        <pt x="147" y="306" on="1"/>
        <pt x="147" y="226" on="1"/>
        <pt x="147" y="191" on="0"/>
        <pt x="183" y="156" on="0"/>
        <pt x="228" y="156" on="1"/>
      </contour>
    </TTGlyph>
    <TTGlyph name="dvB_DHA" xMin="-35" yMin="0" xMax="794" yMax="665">
      <contour>
        <pt x="794" y="665" on="1"/>
        <pt x="794" y="566" on="1"/>
        <pt x="708" y="566" on="1"/>
        <pt x="708" y="0" on="1"/>
        <pt x="589" y="0" on="1"/>
        <pt x="589" y="70" on="1"/>
        <pt x="549" y="59" on="0"/>
        <pt x="490" y="59" on="1"/>
        <pt x="397" y="59" on="0"/>
        <pt x="348" y="100" on="1"/>
        <pt x="306" y="58" on="0"/>
        <pt x="222" y="58" on="1"/>
        <pt x="125" y="58" on="0"/>
        <pt x="35" y="141" on="0"/>
        <pt x="35" y="222" on="1"/>
        <pt x="35" y="342" on="1"/>
        <pt x="35" y="424" on="0"/>
        <pt x="119" y="506" on="0"/>
        <pt x="215" y="506" on="1"/>
        <pt x="231" y="506" on="0"/>
        <pt x="252" y="504" on="0"/>
        <pt x="255" y="503" on="1"/>
        <pt x="255" y="405" on="1"/>
        <pt x="253" y="406" on="0"/>
        <pt x="236" y="408" on="0"/>
        <pt x="224" y="408" on="1"/>
        <pt x="171" y="408" on="0"/>
        <pt x="156" y="379" on="1"/>
        <pt x="300" y="261" on="1"/>
        <pt x="300" y="267" on="1"/>
        <pt x="300" y="345" on="0"/>
        <pt x="349" y="367" on="1"/>
        <pt x="326" y="381" on="0"/>
        <pt x="306" y="428" on="0"/>
        <pt x="306" y="463" on="1"/>
        <pt x="306" y="512" on="1"/>
        <pt x="306" y="528" on="0"/>
        <pt x="311" y="552" on="0"/>
        <pt x="316" y="564" on="0"/>
        <pt x="317" y="566" on="1"/>
        <pt x="-35" y="566" on="1"/>
        <pt x="-35" y="665" on="1"/>
        <pt x="507" y="665" on="1"/>
        <pt x="507" y="566" on="1"/>
        <pt x="439" y="566" on="1"/>
        <pt x="438" y="565" on="0"/>
        <pt x="431" y="552" on="0"/>
        <pt x="424" y="528" on="0"/>
        <pt x="424" y="512" on="1"/>
        <pt x="424" y="467" on="1"/>
        <pt x="424" y="444" on="0"/>
        <pt x="446" y="420" on="0"/>
        <pt x="475" y="420" on="1"/>
        <pt x="517" y="420" on="1"/>
        <pt x="517" y="311" on="1"/>
        <pt x="471" y="311" on="1"/>
        <pt x="441" y="311" on="0"/>
        <pt x="418" y="286" on="0"/>
        <pt x="418" y="263" on="1"/>
        <pt x="418" y="228" on="1"/>
        <pt x="418" y="194" on="0"/>
        <pt x="463" y="165" on="0"/>
        <pt x="506" y="165" on="1"/>
        <pt x="551" y="165" on="0"/>
        <pt x="589" y="176" on="1"/>
        <pt x="589" y="665" on="1"/>
      </contour>
      <contour>
        <pt x="252" y="156" on="0"/>
        <pt x="285" y="171" on="0"/>
        <pt x="293" y="187" on="1"/>
        <pt x="147" y="306" on="1"/>
        <pt x="147" y="226" on="1"/>
        <pt x="147" y="191" on="0"/>
        <pt x="182" y="156" on="0"/>
        <pt x="224" y="156" on="1"/>
      </contour>
    </TTGlyph>
    <TTGlyph name="dvB_DH_VA" xMin="-35" yMin="0" xMax="1040" yMax="665">
      <contour>
        <pt x="1040" y="665" on="1"/>
        <pt x="1040" y="566" on="1"/>
        <pt x="954" y="566" on="1"/>
        <pt x="954" y="0" on="1"/>
        <pt x="835" y="0" on="1"/>
        <pt x="835" y="66" on="1"/>
        <pt x="806" y="57" on="0"/>
        <pt x="762" y="57" on="1"/>
        <pt x="686" y="57" on="0"/>
        <pt x="646" y="89" on="1"/>
        <pt x="572" y="65" on="0"/>
        <pt x="504" y="65" on="1"/>
        <pt x="406" y="65" on="0"/>
        <pt x="352" y="105" on="1"/>
        <pt x="310" y="58" on="0"/>
        <pt x="222" y="58" on="1"/>
        <pt x="125" y="58" on="0"/>
        <pt x="34" y="141" on="0"/>
        <pt x="34" y="222" on="1"/>
        <pt x="34" y="342" on="1"/>
        <pt x="34" y="424" on="0"/>
        <pt x="118" y="506" on="0"/>
        <pt x="214" y="506" on="1"/>
        <pt x="230" y="506" on="0"/>
        <pt x="251" y="504" on="0"/>
        <pt x="254" y="503" on="1"/>
        <pt x="254" y="405" on="1"/>
        <pt x="252" y="406" on="0"/>
        <pt x="234" y="408" on="0"/>
        <pt x="223" y="408" on="1"/>
        <pt x="172" y="408" on="0"/>
        <pt x="155" y="379" on="1"/>
        <pt x="300" y="260" on="1"/>
        <pt x="300" y="272" on="1"/>
        <pt x="300" y="349" on="0"/>
        <pt x="349" y="372" on="1"/>
        <pt x="326" y="385" on="0"/>
        <pt x="306" y="432" on="0"/>
        <pt x="306" y="468" on="1"/>
        <pt x="306" y="512" on="1"/>
        <pt x="306" y="534" on="0"/>
        <pt x="312" y="563" on="0"/>
        <pt x="313" y="566" on="1"/>
        <pt x="-35" y="566" on="1"/>
        <pt x="-35" y="665" on="1"/>
        <pt x="481" y="665" on="1"/>
        <pt x="481" y="566" on="1"/>
        <pt x="434" y="566" on="1"/>
        <pt x="433" y="565" on="0"/>
        <pt x="428" y="552" on="0"/>
        <pt x="424" y="528" on="0"/>
        <pt x="424" y="512" on="1"/>
        <pt x="424" y="471" on="1"/>
        <pt x="424" y="448" on="0"/>
        <pt x="446" y="424" on="0"/>
        <pt x="475" y="424" on="1"/>
        <pt x="517" y="424" on="1"/>
        <pt x="517" y="315" on="1"/>
        <pt x="471" y="315" on="1"/>
        <pt x="441" y="315" on="0"/>
        <pt x="418" y="291" on="0"/>
        <pt x="418" y="268" on="1"/>
        <pt x="418" y="234" on="1"/>
        <pt x="418" y="199" on="0"/>
        <pt x="463" y="171" on="0"/>
        <pt x="510" y="171" on="1"/>
        <pt x="557" y="171" on="0"/>
        <pt x="603" y="182" on="1"/>
        <pt x="602" y="190" on="0"/>
        <pt x="602" y="208" on="1"/>
        <pt x="602" y="354" on="1"/>
        <pt x="602" y="428" on="0"/>
        <pt x="679" y="506" on="0"/>
        <pt x="762" y="506" on="1"/>
        <pt x="796" y="506" on="0"/>
        <pt x="835" y="497" on="1"/>
        <pt x="835" y="566" on="1"/>
        <pt x="588" y="566" on="1"/>
        <pt x="588" y="665" on="1"/>
      </contour>
      <contour>
        <pt x="841" y="398" on="1"/>
        <pt x="808" y="405" on="0"/>
        <pt x="781" y="405" on="1"/>
        <pt x="717" y="405" on="0"/>
        <pt x="717" y="353" on="1"/>
        <pt x="717" y="211" on="1"/>
        <pt x="717" y="158" on="0"/>
        <pt x="782" y="158" on="1"/>
        <pt x="819" y="158" on="0"/>
        <pt x="841" y="166" on="1"/>
      </contour>
      <contour>
        <pt x="277" y="156" on="0"/>
        <pt x="292" y="186" on="1"/>
        <pt x="147" y="306" on="1"/>
        <pt x="147" y="226" on="1"/>
        <pt x="147" y="191" on="0"/>
        <pt x="181" y="156" on="0"/>
        <pt x="223" y="156" on="1"/>
      </contour>
    </TTGlyph>
    <TTGlyph name="dvB_JA" xMin="-35" yMin="0" xMax="938" yMax="665">
      <contour>
        <pt x="938" y="566" on="1"/>
        <pt x="859" y="566" on="1"/>
        <pt x="859" y="0" on="1"/>
        <pt x="741" y="0" on="1"/>
        <pt x="741" y="390" on="1"/>
        <pt x="642" y="390" on="1"/>
        <pt x="643" y="388" on="0"/>
        <pt x="647" y="376" on="0"/>
        <pt x="651" y="352" on="0"/>
        <pt x="651" y="337" on="1"/>
        <pt x="651" y="215" on="1"/>
        <pt x="651" y="134" on="0"/>
        <pt x="555" y="52" on="0"/>
        <pt x="465" y="52" on="1"/>
        <pt x="400" y="52" on="0"/>
        <pt x="323" y="75" on="1"/>
        <pt x="281" y="58" on="0"/>
        <pt x="222" y="58" on="1"/>
        <pt x="125" y="58" on="0"/>
        <pt x="35" y="141" on="0"/>
        <pt x="35" y="222" on="1"/>
        <pt x="35" y="342" on="1"/>
        <pt x="35" y="424" on="0"/>
        <pt x="121" y="506" on="0"/>
        <pt x="222" y="506" on="1"/>
        <pt x="315" y="506" on="0"/>
        <pt x="405" y="424" on="0"/>
        <pt x="405" y="342" on="1"/>
        <pt x="405" y="222" on="1"/>
        <pt x="405" y="193" on="0"/>
        <pt x="399" y="169" on="1"/>
        <pt x="435" y="160" on="0"/>
        <pt x="461" y="160" on="1"/>
        <pt x="533" y="160" on="0"/>
        <pt x="533" y="219" on="1"/>
        <pt x="533" y="330" on="1"/>
        <pt x="533" y="346" on="0"/>
        <pt x="529" y="370" on="0"/>
        <pt x="524" y="382" on="0"/>
        <pt x="523" y="383" on="1"/>
        <pt x="463" y="383" on="1"/>
        <pt x="463" y="492" on="1"/>
        <pt x="741" y="492" on="1"/>
        <pt x="741" y="566" on="1"/>
        <pt x="-35" y="566" on="1"/>
        <pt x="-35" y="665" on="1"/>
        <pt x="938" y="665" on="1"/>
      </contour>
      <contour>
        <pt x="300" y="337" on="1"/>
        <pt x="300" y="372" on="0"/>
        <pt x="265" y="408" on="0"/>
        <pt x="224" y="408" on="1"/>
        <pt x="178" y="408" on="0"/>
        <pt x="161" y="385" on="1"/>
        <pt x="300" y="251" on="1"/>
      </contour>
      <contour>
        <pt x="270" y="156" on="0"/>
        <pt x="287" y="178" on="1"/>
        <pt x="147" y="313" on="1"/>
        <pt x="147" y="226" on="1"/>
        <pt x="147" y="191" on="0"/>
        <pt x="182" y="156" on="0"/>
        <pt x="224" y="156" on="1"/>
      </contour>
    </TTGlyph>
    <TTGlyph name="dvB_JHA" xMin="-35" yMin="-75" xMax="1060" yMax="665">
      <contour>
        <pt x="1060" y="566" on="1"/>
        <pt x="974" y="566" on="1"/>
        <pt x="974" y="0" on="1"/>
        <pt x="856" y="0" on="1"/>
        <pt x="856" y="231" on="1"/>
        <pt x="758" y="231" on="1"/>
        <pt x="766" y="222" on="0"/>
        <pt x="776" y="192" on="0"/>
        <pt x="776" y="175" on="1"/>
        <pt x="776" y="144" on="1"/>
        <pt x="776" y="67" on="0"/>
        <pt x="700" y="2" on="0"/>
        <pt x="623" y="2" on="1"/>
        <pt x="599" y="2" on="0"/>
        <pt x="556" y="7" on="0"/>
        <pt x="549" y="9" on="1"/>
        <pt x="549" y="-75" on="1"/>
        <pt x="433" y="-75" on="1"/>
        <pt x="433" y="166" on="1"/>
        <pt x="549" y="166" on="1"/>
        <pt x="549" y="110" on="1"/>
        <pt x="567" y="105" on="0"/>
        <pt x="603" y="105" on="1"/>
        <pt x="634" y="105" on="0"/>
        <pt x="660" y="129" on="0"/>
        <pt x="660" y="152" on="1"/>
        <pt x="660" y="175" on="1"/>
        <pt x="660" y="199" on="0"/>
        <pt x="636" y="224" on="0"/>
        <pt x="605" y="224" on="1"/>
        <pt x="395" y="224" on="1"/>
        <pt x="395" y="196" on="1"/>
        <pt x="395" y="126" on="0"/>
        <pt x="315" y="42" on="0"/>
        <pt x="222" y="42" on="1"/>
        <pt x="125" y="42" on="0"/>
        <pt x="35" y="125" on="0"/>
        <pt x="35" y="206" on="1"/>
        <pt x="35" y="326" on="1"/>
        <pt x="35" y="408" on="0"/>
        <pt x="119" y="490" on="0"/>
        <pt x="215" y="490" on="1"/>
        <pt x="233" y="490" on="0"/>
        <pt x="261" y="487" on="0"/>
        <pt x="265" y="486" on="1"/>
        <pt x="265" y="388" on="1"/>
        <pt x="262" y="389" on="0"/>
        <pt x="238" y="392" on="0"/>
        <pt x="224" y="392" on="1"/>
        <pt x="172" y="392" on="0"/>
        <pt x="155" y="363" on="1"/>
        <pt x="300" y="246" on="1"/>
        <pt x="300" y="324" on="1"/>
        <pt x="405" y="324" on="1"/>
        <pt x="402" y="341" on="0"/>
        <pt x="402" y="359" on="1"/>
        <pt x="402" y="368" on="1"/>
        <pt x="402" y="440" on="0"/>
        <pt x="482" y="504" on="0"/>
        <pt x="564" y="504" on="1"/>
        <pt x="646" y="504" on="1"/>
        <pt x="646" y="566" on="1"/>
        <pt x="-35" y="566" on="1"/>
        <pt x="-35" y="665" on="1"/>
        <pt x="1060" y="665" on="1"/>
      </contour>
      <contour>
        <pt x="856" y="566" on="1"/>
        <pt x="764" y="566" on="1"/>
        <pt x="764" y="402" on="1"/>
        <pt x="564" y="402" on="1"/>
        <pt x="539" y="402" on="0"/>
        <pt x="520" y="384" on="0"/>
        <pt x="520" y="365" on="1"/>
        <pt x="520" y="362" on="1"/>
        <pt x="520" y="342" on="0"/>
        <pt x="539" y="324" on="0"/>
        <pt x="564" y="324" on="1"/>
        <pt x="856" y="324" on="1"/>
      </contour>
      <contour>
        <pt x="252" y="141" on="0"/>
        <pt x="285" y="156" on="0"/>
        <pt x="293" y="172" on="1"/>
        <pt x="147" y="291" on="1"/>
        <pt x="147" y="211" on="1"/>
        <pt x="147" y="175" on="0"/>
        <pt x="182" y="141" on="0"/>
        <pt x="224" y="141" on="1"/>
      </contour>
    </TTGlyph>
    <TTGlyph name="dvB_J_YA" xMin="35" yMin="0" xMax="1258" yMax="665">
      <contour>
        <pt x="295" y="566" on="1"/>
        <pt x="45" y="566" on="1"/>
        <pt x="45" y="665" on="1"/>
        <pt x="295" y="665" on="1"/>
      </contour>
      <contour>
        <pt x="1258" y="566" on="1"/>
        <pt x="1172" y="566" on="1"/>
        <pt x="1172" y="0" on="1"/>
        <pt x="1053" y="0" on="1"/>
        <pt x="1053" y="95" on="1"/>
        <pt x="1015" y="86" on="0"/>
        <pt x="962" y="86" on="1"/>
        <pt x="861" y="86" on="0"/>
        <pt x="740" y="178" on="0"/>
        <pt x="740" y="266" on="1"/>
        <pt x="740" y="345" on="1"/>
        <pt x="740" y="372" on="0"/>
        <pt x="704" y="390" on="0"/>
        <pt x="657" y="390" on="1"/>
        <pt x="642" y="390" on="1"/>
        <pt x="643" y="388" on="0"/>
        <pt x="647" y="376" on="0"/>
        <pt x="651" y="352" on="0"/>
        <pt x="651" y="337" on="1"/>
        <pt x="651" y="215" on="1"/>
        <pt x="651" y="134" on="0"/>
        <pt x="555" y="52" on="0"/>
        <pt x="465" y="52" on="1"/>
        <pt x="395" y="52" on="0"/>
        <pt x="315" y="78" on="1"/>
        <pt x="364" y="179" on="1"/>
        <pt x="426" y="160" on="0"/>
        <pt x="461" y="160" on="1"/>
        <pt x="533" y="160" on="0"/>
        <pt x="533" y="219" on="1"/>
        <pt x="533" y="330" on="1"/>
        <pt x="533" y="346" on="0"/>
        <pt x="529" y="370" on="0"/>
        <pt x="524" y="382" on="0"/>
        <pt x="523" y="383" on="1"/>
        <pt x="463" y="383" on="1"/>
        <pt x="463" y="492" on="1"/>
        <pt x="681" y="492" on="1"/>
        <pt x="819" y="492" on="0"/>
        <pt x="835" y="409" on="1"/>
        <pt x="847" y="416" on="0"/>
        <pt x="858" y="441" on="0"/>
        <pt x="858" y="463" on="1"/>
        <pt x="858" y="512" on="1"/>
        <pt x="858" y="535" on="0"/>
        <pt x="852" y="563" on="0"/>
        <pt x="851" y="566" on="1"/>
        <pt x="340" y="566" on="1"/>
        <pt x="340" y="665" on="1"/>
        <pt x="1258" y="665" on="1"/>
      </contour>
      <contour>
        <pt x="1053" y="566" on="1"/>
        <pt x="967" y="566" on="1"/>
        <pt x="968" y="562" on="0"/>
        <pt x="973" y="532" on="0"/>
        <pt x="973" y="512" on="1"/>
        <pt x="973" y="441" on="1"/>
        <pt x="973" y="325" on="0"/>
        <pt x="856" y="320" on="1"/>
        <pt x="856" y="281" on="1"/>
        <pt x="856" y="196" on="0"/>
        <pt x="968" y="196" on="1"/>
        <pt x="1016" y="196" on="0"/>
        <pt x="1053" y="204" on="1"/>
      </contour>
      <contour>
        <pt x="405" y="212" on="0"/>
        <pt x="316" y="157" on="0"/>
        <pt x="222" y="157" on="1"/>
        <pt x="35" y="157" on="0"/>
        <pt x="35" y="267" on="1"/>
        <pt x="35" y="296" on="1"/>
        <pt x="35" y="352" on="0"/>
        <pt x="121" y="407" on="0"/>
        <pt x="222" y="407" on="1"/>
        <pt x="316" y="407" on="0"/>
        <pt x="405" y="352" on="0"/>
        <pt x="405" y="296" on="1"/>
        <pt x="405" y="267" on="1"/>
      </contour>
      <contour>
        <pt x="300" y="295" on="1"/>
        <pt x="300" y="312" on="0"/>
        <pt x="269" y="363" on="0"/>
        <pt x="224" y="400" on="0"/>
        <pt x="205" y="400" on="1"/>
        <pt x="189" y="402" on="1"/>
        <pt x="179" y="402" on="0"/>
        <pt x="180" y="393" on="1"/>
        <pt x="188" y="393" on="0"/>
        <pt x="246" y="348" on="0"/>
        <pt x="300" y="298" on="0"/>
        <pt x="300" y="293" on="1"/>
      </contour>
      <contour>
        <pt x="253" y="161" on="0"/>
        <pt x="259" y="161" on="1"/>
        <pt x="270" y="161" on="0"/>
        <pt x="267" y="170" on="1"/>
        <pt x="259" y="170" on="0"/>
        <pt x="201" y="215" on="0"/>
        <pt x="147" y="265" on="0"/>
        <pt x="147" y="270" on="1"/>
        <pt x="147" y="253" on="0"/>
        <pt x="179" y="202" on="0"/>
        <pt x="225" y="164" on="0"/>
        <pt x="244" y="164" on="1"/>
      </contour>
    </TTGlyph>
    <TTGlyph name="dvB_JxA" xMin="-35" yMin="-111" xMax="945" yMax="665">
      <contour>
        <pt x="945" y="566" on="1"/>
        <pt x="859" y="566" on="1"/>
        <pt x="859" y="0" on="1"/>
        <pt x="741" y="0" on="1"/>
        <pt x="741" y="390" on="1"/>
        <pt x="642" y="390" on="1"/>
        <pt x="643" y="388" on="0"/>
        <pt x="647" y="376" on="0"/>
        <pt x="651" y="352" on="0"/>
        <pt x="651" y="337" on="1"/>
        <pt x="651" y="215" on="1"/>
        <pt x="651" y="134" on="0"/>
        <pt x="555" y="52" on="0"/>
        <pt x="465" y="52" on="1"/>
        <pt x="400" y="52" on="0"/>
        <pt x="323" y="75" on="1"/>
        <pt x="281" y="58" on="0"/>
        <pt x="222" y="58" on="1"/>
        <pt x="125" y="58" on="0"/>
        <pt x="35" y="141" on="0"/>
        <pt x="35" y="222" on="1"/>
        <pt x="35" y="342" on="1"/>
        <pt x="35" y="424" on="0"/>
        <pt x="121" y="506" on="0"/>
        <pt x="222" y="506" on="1"/>
        <pt x="315" y="506" on="0"/>
        <pt x="405" y="424" on="0"/>
        <pt x="405" y="342" on="1"/>
        <pt x="405" y="222" on="1"/>
        <pt x="405" y="193" on="0"/>
        <pt x="399" y="169" on="1"/>
        <pt x="435" y="160" on="0"/>
        <pt x="461" y="160" on="1"/>
        <pt x="533" y="160" on="0"/>
        <pt x="533" y="219" on="1"/>
        <pt x="533" y="330" on="1"/>
        <pt x="533" y="346" on="0"/>
        <pt x="529" y="370" on="0"/>
        <pt x="524" y="382" on="0"/>
        <pt x="523" y="383" on="1"/>
        <pt x="463" y="383" on="1"/>
        <pt x="463" y="492" on="1"/>
        <pt x="741" y="492" on="1"/>
        <pt x="741" y="566" on="1"/>
        <pt x="-35" y="566" on="1"/>
        <pt x="-35" y="665" on="1"/>
        <pt x="945" y="665" on="1"/>
      </contour>
      <contour>
        <pt x="300" y="337" on="1"/>
        <pt x="300" y="372" on="0"/>
        <pt x="265" y="408" on="0"/>
        <pt x="224" y="408" on="1"/>
        <pt x="178" y="408" on="0"/>
        <pt x="161" y="385" on="1"/>
        <pt x="300" y="251" on="1"/>
      </contour>
      <contour>
        <pt x="270" y="156" on="0"/>
        <pt x="287" y="178" on="1"/>
        <pt x="147" y="313" on="1"/>
        <pt x="147" y="226" on="1"/>
        <pt x="147" y="191" on="0"/>
        <pt x="182" y="156" on="0"/>
        <pt x="224" y="156" on="1"/>
      </contour>
      <contour>
        <pt x="398" y="20" on="0"/>
        <pt x="398" y="-45" on="1"/>
        <pt x="398" y="-111" on="0"/>
        <pt x="333" y="-111" on="1"/>
        <pt x="268" y="-111" on="0"/>
        <pt x="268" y="-45" on="1"/>
        <pt x="268" y="20" on="0"/>
        <pt x="334" y="20" on="1"/>
      </contour>
    </TTGlyph>
    <TTGlyph name="dvB_LA" xMin="-35" yMin="0" xMax="948" yMax="665">
      <contour>
        <pt x="948" y="566" on="1"/>
        <pt x="861" y="566" on="1"/>
        <pt x="861" y="0" on="1"/>
        <pt x="743" y="0" on="1"/>
        <pt x="743" y="373" on="1"/>
        <pt x="738" y="376" on="0"/>
        <pt x="713" y="381" on="0"/>
        <pt x="698" y="381" on="1"/>
        <pt x="644" y="381" on="0"/>
        <pt x="644" y="333" on="1"/>
        <pt x="644" y="211" on="1"/>
        <pt x="526" y="211" on="1"/>
        <pt x="526" y="333" on="1"/>
        <pt x="526" y="356" on="0"/>
        <pt x="505" y="381" on="0"/>
        <pt x="476" y="381" on="1"/>
        <pt x="447" y="381" on="0"/>
        <pt x="427" y="356" on="0"/>
        <pt x="427" y="332" on="1"/>
        <pt x="427" y="178" on="1"/>
        <pt x="427" y="144" on="0"/>
        <pt x="460" y="109" on="0"/>
        <pt x="507" y="109" on="1"/>
        <pt x="540" y="109" on="0"/>
        <pt x="565" y="112" on="1"/>
        <pt x="565" y="4" on="1"/>
        <pt x="533" y="0" on="0"/>
        <pt x="501" y="0" on="1"/>
        <pt x="432" y="0" on="0"/>
        <pt x="347" y="39" on="0"/>
        <pt x="327" y="79" on="1"/>
        <pt x="287" y="58" on="0"/>
        <pt x="226" y="58" on="1"/>
        <pt x="127" y="58" on="0"/>
        <pt x="35" y="141" on="0"/>
        <pt x="35" y="222" on="1"/>
        <pt x="35" y="342" on="1"/>
        <pt x="35" y="424" on="0"/>
        <pt x="119" y="506" on="0"/>
        <pt x="215" y="506" on="1"/>
        <pt x="231" y="506" on="0"/>
        <pt x="252" y="504" on="0"/>
        <pt x="255" y="503" on="1"/>
        <pt x="255" y="405" on="1"/>
        <pt x="253" y="406" on="0"/>
        <pt x="236" y="408" on="0"/>
        <pt x="224" y="408" on="1"/>
        <pt x="171" y="408" on="0"/>
        <pt x="156" y="379" on="1"/>
        <pt x="308" y="254" on="1"/>
        <pt x="309" y="254" on="1"/>
        <pt x="309" y="336" on="1"/>
        <pt x="309" y="410" on="0"/>
        <pt x="393" y="490" on="0"/>
        <pt x="472" y="490" on="1"/>
        <pt x="515" y="490" on="0"/>
        <pt x="571" y="459" on="0"/>
        <pt x="583" y="438" on="1"/>
        <pt x="600" y="462" on="0"/>
        <pt x="648" y="489" on="0"/>
        <pt x="688" y="489" on="1"/>
        <pt x="722" y="489" on="0"/>
        <pt x="743" y="482" on="1"/>
        <pt x="743" y="566" on="1"/>
        <pt x="-35" y="566" on="1"/>
        <pt x="-35" y="665" on="1"/>
        <pt x="948" y="665" on="1"/>
      </contour>
      <contour>
        <pt x="281" y="156" on="0"/>
        <pt x="298" y="182" on="1"/>
        <pt x="147" y="306" on="1"/>
        <pt x="147" y="226" on="1"/>
        <pt x="147" y="191" on="0"/>
        <pt x="183" y="156" on="0"/>
        <pt x="228" y="156" on="1"/>
      </contour>
    </TTGlyph>
    <TTGlyph name="dvB_L_YA" xMin="-35" yMin="0" xMax="1241" yMax="665">
      <contour>
        <pt x="1241" y="566" on="1"/>
        <pt x="1155" y="566" on="1"/>
        <pt x="1155" y="0" on="1"/>
        <pt x="1037" y="0" on="1"/>
        <pt x="1037" y="95" on="1"/>
        <pt x="997" y="86" on="0"/>
        <pt x="946" y="86" on="1"/>
        <pt x="845" y="86" on="0"/>
        <pt x="724" y="178" on="0"/>
        <pt x="724" y="266" on="1"/>
        <pt x="724" y="332" on="1"/>
        <pt x="724" y="357" on="0"/>
        <pt x="704" y="381" on="0"/>
        <pt x="675" y="381" on="1"/>
        <pt x="648" y="381" on="0"/>
        <pt x="628" y="356" on="0"/>
        <pt x="628" y="332" on="1"/>
        <pt x="628" y="211" on="1"/>
        <pt x="510" y="211" on="1"/>
        <pt x="510" y="332" on="1"/>
        <pt x="510" y="356" on="0"/>
        <pt x="489" y="381" on="0"/>
        <pt x="460" y="381" on="1"/>
        <pt x="431" y="381" on="0"/>
        <pt x="411" y="356" on="0"/>
        <pt x="411" y="332" on="1"/>
        <pt x="411" y="178" on="1"/>
        <pt x="411" y="144" on="0"/>
        <pt x="444" y="109" on="0"/>
        <pt x="491" y="109" on="1"/>
        <pt x="536" y="109" on="0"/>
        <pt x="550" y="111" on="1"/>
        <pt x="550" y="3" on="1"/>
        <pt x="514" y="0" on="0"/>
        <pt x="485" y="0" on="1"/>
        <pt x="418" y="0" on="0"/>
        <pt x="336" y="39" on="0"/>
        <pt x="317" y="78" on="1"/>
        <pt x="280" y="58" on="0"/>
        <pt x="222" y="58" on="1"/>
        <pt x="125" y="58" on="0"/>
        <pt x="34" y="141" on="0"/>
        <pt x="34" y="222" on="1"/>
        <pt x="34" y="342" on="1"/>
        <pt x="34" y="424" on="0"/>
        <pt x="118" y="506" on="0"/>
        <pt x="214" y="506" on="1"/>
        <pt x="230" y="506" on="0"/>
        <pt x="251" y="504" on="0"/>
        <pt x="254" y="503" on="1"/>
        <pt x="254" y="405" on="1"/>
        <pt x="252" y="406" on="0"/>
        <pt x="234" y="408" on="0"/>
        <pt x="223" y="408" on="1"/>
        <pt x="172" y="408" on="0"/>
        <pt x="155" y="379" on="1"/>
        <pt x="300" y="260" on="1"/>
        <pt x="300" y="336" on="1"/>
        <pt x="300" y="410" on="0"/>
        <pt x="378" y="490" on="0"/>
        <pt x="457" y="490" on="1"/>
        <pt x="499" y="490" on="0"/>
        <pt x="555" y="459" on="0"/>
        <pt x="567" y="438" on="1"/>
        <pt x="602" y="489" on="0"/>
        <pt x="672" y="489" on="1"/>
        <pt x="783" y="489" on="0"/>
        <pt x="815" y="402" on="1"/>
        <pt x="830" y="409" on="0"/>
        <pt x="842" y="436" on="0"/>
        <pt x="842" y="458" on="1"/>
        <pt x="842" y="512" on="1"/>
        <pt x="842" y="528" on="0"/>
        <pt x="838" y="553" on="0"/>
        <pt x="835" y="565" on="0"/>
        <pt x="834" y="566" on="1"/>
        <pt x="-35" y="566" on="1"/>
        <pt x="-35" y="665" on="1"/>
        <pt x="1241" y="665" on="1"/>
      </contour>
      <contour>
        <pt x="1037" y="566" on="1"/>
        <pt x="950" y="566" on="1"/>
        <pt x="951" y="562" on="0"/>
        <pt x="957" y="532" on="0"/>
        <pt x="957" y="512" on="1"/>
        <pt x="957" y="436" on="1"/>
        <pt x="957" y="320" on="0"/>
        <pt x="840" y="315" on="1"/>
        <pt x="840" y="281" on="1"/>
        <pt x="840" y="196" on="0"/>
        <pt x="952" y="196" on="1"/>
        <pt x="999" y="196" on="0"/>
        <pt x="1037" y="204" on="1"/>
      </contour>
      <contour>
        <pt x="277" y="156" on="0"/>
        <pt x="292" y="186" on="1"/>
        <pt x="147" y="306" on="1"/>
        <pt x="147" y="226" on="1"/>
        <pt x="147" y="191" on="0"/>
        <pt x="181" y="156" on="0"/>
        <pt x="223" y="156" on="1"/>
      </contour>
    </TTGlyph>
    <TTGlyph name="dvB_NA" xMin="-35" yMin="0" xMax="883" yMax="665">
      <contour>
        <pt x="883" y="566" on="1"/>
        <pt x="797" y="566" on="1"/>
        <pt x="797" y="0" on="1"/>
        <pt x="679" y="0" on="1"/>
        <pt x="679" y="379" on="1"/>
        <pt x="592" y="379" on="1"/>
        <pt x="594" y="374" on="0"/>
        <pt x="600" y="337" on="0"/>
        <pt x="600" y="319" on="1"/>
        <pt x="600" y="206" on="1"/>
        <pt x="600" y="131" on="0"/>
        <pt x="526" y="55" on="0"/>
        <pt x="443" y="55" on="1"/>
        <pt x="366" y="55" on="0"/>
        <pt x="328" y="88" on="1"/>
        <pt x="287" y="58" on="0"/>
        <pt x="215" y="58" on="1"/>
        <pt x="119" y="58" on="0"/>
        <pt x="35" y="140" on="0"/>
        <pt x="35" y="222" on="1"/>
        <pt x="35" y="330" on="1"/>
        <pt x="35" y="412" on="0"/>
        <pt x="119" y="494" on="0"/>
        <pt x="215" y="494" on="1"/>
        <pt x="293" y="494" on="0"/>
        <pt x="334" y="459" on="1"/>
        <pt x="372" y="488" on="0"/>
        <pt x="443" y="488" on="1"/>
        <pt x="679" y="488" on="1"/>
        <pt x="679" y="566" on="1"/>
        <pt x="-35" y="566" on="1"/>
        <pt x="-35" y="665" on="1"/>
        <pt x="883" y="665" on="1"/>
      </contour>
      <contour>
        <pt x="169" y="396" on="0"/>
        <pt x="155" y="368" on="1"/>
        <pt x="285" y="265" on="1"/>
        <pt x="285" y="326" on="1"/>
        <pt x="285" y="363" on="0"/>
        <pt x="257" y="396" on="0"/>
        <pt x="216" y="396" on="1"/>
      </contour>
      <contour>
        <pt x="489" y="315" on="1"/>
        <pt x="489" y="336" on="0"/>
        <pt x="483" y="371" on="0"/>
        <pt x="480" y="379" on="1"/>
        <pt x="443" y="379" on="1"/>
        <pt x="416" y="379" on="0"/>
        <pt x="397" y="356" on="0"/>
        <pt x="397" y="333" on="1"/>
        <pt x="397" y="207" on="1"/>
        <pt x="397" y="184" on="0"/>
        <pt x="416" y="160" on="0"/>
        <pt x="443" y="160" on="1"/>
        <pt x="470" y="160" on="0"/>
        <pt x="489" y="184" on="0"/>
        <pt x="489" y="207" on="1"/>
      </contour>
      <contour>
        <pt x="268" y="156" on="0"/>
        <pt x="280" y="191" on="1"/>
        <pt x="147" y="296" on="1"/>
        <pt x="147" y="226" on="1"/>
        <pt x="147" y="190" on="0"/>
        <pt x="177" y="156" on="0"/>
        <pt x="216" y="156" on="1"/>
      </contour>
    </TTGlyph>
    <TTGlyph name="dvB_R" xMin="-35" yMin="-81" xMax="429" yMax="665">
      <contour>
        <pt x="429" y="665" on="1"/>
        <pt x="429" y="566" on="1"/>
        <pt x="-35" y="566" on="1"/>
        <pt x="-35" y="665" on="1"/>
      </contour>
      <contour>
        <pt x="317" y="506" on="0"/>
        <pt x="407" y="424" on="0"/>
        <pt x="407" y="342" on="1"/>
        <pt x="407" y="239" on="1"/>
        <pt x="407" y="202" on="0"/>
        <pt x="383" y="146" on="0"/>
        <pt x="348" y="106" on="0"/>
        <pt x="305" y="62" on="1"/>
        <pt x="164" y="-81" on="1"/>
        <pt x="19" y="-81" on="1"/>
        <pt x="177" y="80" on="1"/>
        <pt x="105" y="90" on="0"/>
        <pt x="36" y="169" on="0"/>
        <pt x="36" y="239" on="1"/>
        <pt x="36" y="342" on="1"/>
        <pt x="36" y="424" on="0"/>
        <pt x="122" y="506" on="0"/>
        <pt x="223" y="506" on="1"/>
      </contour>
      <contour>
        <pt x="174" y="408" on="0"/>
        <pt x="158" y="380" on="1"/>
        <pt x="302" y="274" on="1"/>
        <pt x="302" y="337" on="1"/>
        <pt x="302" y="373" on="0"/>
        <pt x="267" y="408" on="0"/>
        <pt x="225" y="408" on="1"/>
      </contour>
      <contour>
        <pt x="277" y="174" on="0"/>
        <pt x="294" y="203" on="1"/>
        <pt x="149" y="310" on="1"/>
        <pt x="149" y="244" on="1"/>
        <pt x="149" y="208" on="0"/>
        <pt x="183" y="174" on="0"/>
        <pt x="225" y="174" on="1"/>
      </contour>
    </TTGlyph>
    <TTGlyph name="dvB_RA" xMin="-35" yMin="-41" xMax="493" yMax="665">
      <contour>
        <pt x="493" y="665" on="1"/>
        <pt x="493" y="566" on="1"/>
        <pt x="407" y="566" on="1"/>
        <pt x="407" y="0" on="1"/>
        <pt x="295" y="0" on="1"/>
        <pt x="295" y="98" on="1"/>
        <pt x="291" y="97" on="1"/>
        <pt x="171" y="-41" on="1"/>
        <pt x="38" y="-41" on="1"/>
        <pt x="154" y="91" on="1"/>
        <pt x="95" y="99" on="0"/>
        <pt x="37" y="161" on="0"/>
        <pt x="37" y="227" on="1"/>
        <pt x="37" y="349" on="1"/>
        <pt x="37" y="434" on="0"/>
        <pt x="124" y="506" on="0"/>
        <pt x="214" y="506" on="1"/>
        <pt x="263" y="506" on="0"/>
        <pt x="295" y="494" on="1"/>
        <pt x="295" y="566" on="1"/>
        <pt x="-35" y="566" on="1"/>
        <pt x="-35" y="665" on="1"/>
      </contour>
      <contour>
        <pt x="178" y="408" on="0"/>
        <pt x="160" y="384" on="1"/>
        <pt x="295" y="260" on="1"/>
        <pt x="295" y="396" on="1"/>
        <pt x="259" y="408" on="0"/>
        <pt x="226" y="408" on="1"/>
      </contour>
      <contour>
        <pt x="149" y="232" on="1"/>
        <pt x="149" y="168" on="0"/>
        <pt x="226" y="168" on="1"/>
        <pt x="253" y="168" on="0"/>
        <pt x="291" y="174" on="0"/>
        <pt x="294" y="175" on="1"/>
        <pt x="149" y="310" on="1"/>
      </contour>
    </TTGlyph>
    <TTGlyph name="dvB_SA" xMin="-35" yMin="-5" xMax="923" yMax="665">
      <contour>
        <pt x="923" y="566" on="1"/>
        <pt x="837" y="566" on="1"/>
        <pt x="837" y="0" on="1"/>
        <pt x="719" y="0" on="1"/>
        <pt x="719" y="269" on="1"/>
        <pt x="590" y="269" on="1"/>
        <pt x="554" y="231" on="0"/>
        <pt x="475" y="231" on="1"/>
        <pt x="443" y="231" on="0"/>
        <pt x="419" y="237" on="1"/>
        <pt x="419" y="168" on="1"/>
        <pt x="419" y="133" on="0"/>
        <pt x="467" y="102" on="0"/>
        <pt x="517" y="102" on="1"/>
        <pt x="552" y="102" on="0"/>
        <pt x="608" y="114" on="0"/>
        <pt x="638" y="125" on="1"/>
        <pt x="638" y="16" on="1"/>
        <pt x="579" y="-5" on="0"/>
        <pt x="499" y="-5" on="1"/>
        <pt x="434" y="-5" on="0"/>
        <pt x="344" y="38" on="0"/>
        <pt x="322" y="77" on="1"/>
        <pt x="282" y="58" on="0"/>
        <pt x="226" y="58" on="1"/>
        <pt x="127" y="58" on="0"/>
        <pt x="35" y="141" on="0"/>
        <pt x="35" y="222" on="1"/>
        <pt x="35" y="342" on="1"/>
        <pt x="35" y="424" on="0"/>
        <pt x="119" y="506" on="0"/>
        <pt x="215" y="506" on="1"/>
        <pt x="229" y="506" on="0"/>
        <pt x="248" y="504" on="0"/>
        <pt x="251" y="504" on="1"/>
        <pt x="251" y="405" on="1"/>
        <pt x="249" y="406" on="0"/>
        <pt x="235" y="408" on="0"/>
        <pt x="224" y="408" on="1"/>
        <pt x="171" y="408" on="0"/>
        <pt x="156" y="379" on="1"/>
        <pt x="301" y="260" on="1"/>
        <pt x="301" y="451" on="1"/>
        <pt x="419" y="451" on="1"/>
        <pt x="419" y="341" on="1"/>
        <pt x="443" y="335" on="0"/>
        <pt x="459" y="335" on="1"/>
        <pt x="489" y="335" on="0"/>
        <pt x="511" y="360" on="0"/>
        <pt x="511" y="384" on="1"/>
        <pt x="511" y="512" on="1"/>
        <pt x="511" y="528" on="0"/>
        <pt x="507" y="553" on="0"/>
        <pt x="503" y="565" on="0"/>
        <pt x="502" y="566" on="1"/>
        <pt x="-35" y="566" on="1"/>
        <pt x="-35" y="665" on="1"/>
        <pt x="923" y="665" on="1"/>
      </contour>
      <contour>
        <pt x="719" y="566" on="1"/>
        <pt x="620" y="566" on="1"/>
        <pt x="621" y="563" on="0"/>
        <pt x="627" y="534" on="0"/>
        <pt x="627" y="512" on="1"/>
        <pt x="627" y="382" on="1"/>
        <pt x="627" y="371" on="1"/>
        <pt x="719" y="371" on="1"/>
      </contour>
      <contour>
        <pt x="281" y="156" on="0"/>
        <pt x="298" y="182" on="1"/>
        <pt x="147" y="306" on="1"/>
        <pt x="147" y="226" on="1"/>
        <pt x="147" y="191" on="0"/>
        <pt x="183" y="156" on="0"/>
        <pt x="228" y="156" on="1"/>
      </contour>
    </TTGlyph>
    <TTGlyph name="dvB_SHA" xMin="-35" yMin="0" xMax="925" yMax="670">
      <contour>
        <pt x="563" y="670" on="0"/>
        <pt x="648" y="590" on="0"/>
        <pt x="648" y="516" on="1"/>
        <pt x="648" y="386" on="1"/>
        <pt x="648" y="312" on="0"/>
        <pt x="571" y="238" on="0"/>
        <pt x="490" y="238" on="1"/>
        <pt x="470" y="238" on="0"/>
        <pt x="432" y="244" on="0"/>
        <pt x="426" y="247" on="1"/>
        <pt x="426" y="182" on="1"/>
        <pt x="426" y="107" on="0"/>
        <pt x="516" y="107" on="1"/>
        <pt x="552" y="107" on="0"/>
        <pt x="604" y="119" on="0"/>
        <pt x="636" y="131" on="1"/>
        <pt x="636" y="21" on="1"/>
        <pt x="573" y="0" on="0"/>
        <pt x="499" y="0" on="1"/>
        <pt x="379" y="0" on="0"/>
        <pt x="331" y="82" on="1"/>
        <pt x="292" y="58" on="0"/>
        <pt x="226" y="58" on="1"/>
        <pt x="127" y="58" on="0"/>
        <pt x="35" y="141" on="0"/>
        <pt x="35" y="222" on="1"/>
        <pt x="35" y="342" on="1"/>
        <pt x="35" y="424" on="0"/>
        <pt x="119" y="506" on="0"/>
        <pt x="215" y="506" on="1"/>
        <pt x="231" y="506" on="0"/>
        <pt x="252" y="504" on="0"/>
        <pt x="255" y="503" on="1"/>
        <pt x="255" y="405" on="1"/>
        <pt x="253" y="406" on="0"/>
        <pt x="236" y="408" on="0"/>
        <pt x="224" y="408" on="1"/>
        <pt x="171" y="408" on="0"/>
        <pt x="156" y="379" on="1"/>
        <pt x="308" y="254" on="1"/>
        <pt x="308" y="403" on="1"/>
        <pt x="426" y="403" on="1"/>
        <pt x="426" y="350" on="1"/>
        <pt x="450" y="342" on="0"/>
        <pt x="478" y="342" on="1"/>
        <pt x="508" y="342" on="0"/>
        <pt x="530" y="367" on="0"/>
        <pt x="530" y="390" on="1"/>
        <pt x="530" y="512" on="1"/>
        <pt x="530" y="536" on="0"/>
        <pt x="508" y="561" on="0"/>
        <pt x="478" y="561" on="1"/>
        <pt x="448" y="561" on="0"/>
        <pt x="426" y="534" on="0"/>
        <pt x="426" y="510" on="1"/>
        <pt x="426" y="492" on="0"/>
        <pt x="430" y="472" on="1"/>
        <pt x="312" y="472" on="1"/>
        <pt x="308" y="494" on="0"/>
        <pt x="308" y="516" on="1"/>
        <pt x="308" y="590" on="0"/>
        <pt x="392" y="670" on="0"/>
        <pt x="478" y="670" on="1"/>
      </contour>
      <contour>
        <pt x="254" y="566" on="1"/>
        <pt x="-35" y="566" on="1"/>
        <pt x="-35" y="665" on="1"/>
        <pt x="254" y="665" on="1"/>
      </contour>
      <contour>
        <pt x="925" y="665" on="1"/>
        <pt x="925" y="566" on="1"/>
        <pt x="839" y="566" on="1"/>
        <pt x="839" y="0" on="1"/>
        <pt x="721" y="0" on="1"/>
        <pt x="721" y="665" on="1"/>
      </contour>
      <contour>
        <pt x="281" y="156" on="0"/>
        <pt x="298" y="182" on="1"/>
        <pt x="147" y="306" on="1"/>
        <pt x="147" y="226" on="1"/>
        <pt x="147" y="191" on="0"/>
        <pt x="183" y="156" on="0"/>
        <pt x="228" y="156" on="1"/>
      </contour>
    </TTGlyph>
    <TTGlyph name="dvB_TA" xMin="-35" yMin="-2" xMax="758" yMax="665">
      <contour>
        <pt x="758" y="566" on="1"/>
        <pt x="672" y="566" on="1"/>
        <pt x="672" y="0" on="1"/>
        <pt x="554" y="0" on="1"/>
        <pt x="554" y="382" on="1"/>
        <pt x="512" y="389" on="0"/>
        <pt x="492" y="389" on="1"/>
        <pt x="426" y="389" on="0"/>
        <pt x="426" y="333" on="1"/>
        <pt x="426" y="156" on="1"/>
        <pt x="426" y="129" on="0"/>
        <pt x="453" y="109" on="0"/>
        <pt x="486" y="110" on="1"/>
        <pt x="486" y="-2" on="1"/>
        <pt x="459" y="-2" on="1"/>
        <pt x="398" y="-2" on="0"/>
        <pt x="330" y="36" on="0"/>
        <pt x="317" y="75" on="1"/>
        <pt x="281" y="58" on="0"/>
        <pt x="226" y="58" on="1"/>
        <pt x="127" y="58" on="0"/>
        <pt x="35" y="141" on="0"/>
        <pt x="35" y="222" on="1"/>
        <pt x="35" y="342" on="1"/>
        <pt x="35" y="424" on="0"/>
        <pt x="119" y="506" on="0"/>
        <pt x="215" y="506" on="1"/>
        <pt x="231" y="506" on="0"/>
        <pt x="252" y="504" on="0"/>
        <pt x="255" y="503" on="1"/>
        <pt x="255" y="405" on="1"/>
        <pt x="253" y="406" on="0"/>
        <pt x="236" y="408" on="0"/>
        <pt x="224" y="408" on="1"/>
        <pt x="171" y="408" on="0"/>
        <pt x="156" y="379" on="1"/>
        <pt x="308" y="254" on="1"/>
        <pt x="308" y="337" on="1"/>
        <pt x="308" y="412" on="0"/>
        <pt x="392" y="498" on="0"/>
        <pt x="476" y="498" on="1"/>
        <pt x="505" y="498" on="0"/>
        <pt x="547" y="492" on="0"/>
        <pt x="554" y="490" on="1"/>
        <pt x="554" y="566" on="1"/>
        <pt x="-35" y="566" on="1"/>
        <pt x="-35" y="665" on="1"/>
        <pt x="758" y="665" on="1"/>
      </contour>
      <contour>
        <pt x="281" y="156" on="0"/>
        <pt x="298" y="182" on="1"/>
        <pt x="147" y="306" on="1"/>
        <pt x="147" y="226" on="1"/>
        <pt x="147" y="191" on="0"/>
        <pt x="183" y="156" on="0"/>
        <pt x="228" y="156" on="1"/>
      </contour>
    </TTGlyph>
    <TTGlyph name="dvB_VA" xMin="-35" yMin="0" xMax="738" yMax="665">
      <contour>
        <pt x="738" y="566" on="1"/>
        <pt x="652" y="566" on="1"/>
        <pt x="652" y="0" on="1"/>
        <pt x="534" y="0" on="1"/>
        <pt x="534" y="66" on="1"/>
        <pt x="502" y="57" on="0"/>
        <pt x="460" y="57" on="1"/>
        <pt x="380" y="57" on="0"/>
        <pt x="340" y="92" on="1"/>
        <pt x="300" y="58" on="0"/>
        <pt x="226" y="58" on="1"/>
        <pt x="127" y="58" on="0"/>
        <pt x="35" y="141" on="0"/>
        <pt x="35" y="222" on="1"/>
        <pt x="35" y="342" on="1"/>
        <pt x="35" y="424" on="0"/>
        <pt x="119" y="506" on="0"/>
        <pt x="215" y="506" on="1"/>
        <pt x="231" y="506" on="0"/>
        <pt x="252" y="504" on="0"/>
        <pt x="255" y="503" on="1"/>
        <pt x="255" y="405" on="1"/>
        <pt x="253" y="406" on="0"/>
        <pt x="236" y="408" on="0"/>
        <pt x="224" y="408" on="1"/>
        <pt x="171" y="408" on="0"/>
        <pt x="156" y="379" on="1"/>
        <pt x="300" y="261" on="1"/>
        <pt x="300" y="354" on="1"/>
        <pt x="300" y="506" on="0"/>
        <pt x="460" y="506" on="1"/>
        <pt x="492" y="506" on="0"/>
        <pt x="534" y="497" on="1"/>
        <pt x="534" y="566" on="1"/>
        <pt x="-35" y="566" on="1"/>
        <pt x="-35" y="665" on="1"/>
        <pt x="738" y="665" on="1"/>
      </contour>
      <contour>
        <pt x="539" y="398" on="1"/>
        <pt x="509" y="405" on="0"/>
        <pt x="480" y="405" on="1"/>
        <pt x="416" y="405" on="0"/>
        <pt x="416" y="353" on="1"/>
        <pt x="416" y="211" on="1"/>
        <pt x="416" y="158" on="0"/>
        <pt x="480" y="158" on="1"/>
        <pt x="519" y="158" on="0"/>
        <pt x="539" y="166" on="1"/>
      </contour>
      <contour>
        <pt x="278" y="156" on="0"/>
        <pt x="293" y="187" on="1"/>
        <pt x="147" y="306" on="1"/>
        <pt x="147" y="226" on="1"/>
        <pt x="147" y="191" on="0"/>
        <pt x="183" y="156" on="0"/>
        <pt x="228" y="156" on="1"/>
      </contour>
    </TTGlyph>
    <TTGlyph name="dvB_YA" xMin="-35" yMin="0" xMax="818" yMax="665">
      <contour>
        <pt x="818" y="566" on="1"/>
        <pt x="732" y="566" on="1"/>
        <pt x="732" y="0" on="1"/>
        <pt x="614" y="0" on="1"/>
        <pt x="614" y="95" on="1"/>
        <pt x="574" y="86" on="0"/>
        <pt x="523" y="86" on="1"/>
        <pt x="432" y="86" on="0"/>
        <pt x="374" y="123" on="1"/>
        <pt x="333" y="58" on="0"/>
        <pt x="226" y="58" on="1"/>
        <pt x="127" y="58" on="0"/>
        <pt x="35" y="141" on="0"/>
        <pt x="35" y="222" on="1"/>
        <pt x="35" y="342" on="1"/>
        <pt x="35" y="424" on="0"/>
        <pt x="119" y="506" on="0"/>
        <pt x="215" y="506" on="1"/>
        <pt x="231" y="506" on="0"/>
        <pt x="252" y="504" on="0"/>
        <pt x="255" y="503" on="1"/>
        <pt x="255" y="405" on="1"/>
        <pt x="253" y="406" on="0"/>
        <pt x="236" y="408" on="0"/>
        <pt x="224" y="408" on="1"/>
        <pt x="171" y="408" on="0"/>
        <pt x="156" y="379" on="1"/>
        <pt x="301" y="260" on="1"/>
        <pt x="301" y="266" on="1"/>
        <pt x="301" y="393" on="1"/>
        <pt x="324" y="393" on="1"/>
        <pt x="379" y="393" on="0"/>
        <pt x="419" y="420" on="0"/>
        <pt x="419" y="458" on="1"/>
        <pt x="419" y="512" on="1"/>
        <pt x="419" y="535" on="0"/>
        <pt x="413" y="563" on="0"/>
        <pt x="412" y="566" on="1"/>
        <pt x="-35" y="566" on="1"/>
        <pt x="-35" y="665" on="1"/>
        <pt x="818" y="665" on="1"/>
      </contour>
      <contour>
        <pt x="614" y="566" on="1"/>
        <pt x="527" y="566" on="1"/>
        <pt x="528" y="562" on="0"/>
        <pt x="534" y="532" on="0"/>
        <pt x="534" y="512" on="1"/>
        <pt x="534" y="436" on="1"/>
        <pt x="534" y="320" on="0"/>
        <pt x="417" y="315" on="1"/>
        <pt x="417" y="281" on="1"/>
        <pt x="417" y="196" on="0"/>
        <pt x="529" y="196" on="1"/>
        <pt x="576" y="196" on="0"/>
        <pt x="614" y="204" on="1"/>
      </contour>
      <contour>
        <pt x="281" y="156" on="0"/>
        <pt x="298" y="182" on="1"/>
        <pt x="147" y="306" on="1"/>
        <pt x="147" y="226" on="1"/>
        <pt x="147" y="191" on="0"/>
        <pt x="183" y="156" on="0"/>
        <pt x="228" y="156" on="1"/>
      </contour>
    </TTGlyph>
    <TTGlyph name="dvC" xMin="-38" yMin="56" xMax="325" yMax="665">
      <contour>
        <pt x="-38" y="566" on="1"/>
        <pt x="-38" y="665" on="1"/>
        <pt x="318" y="665" on="1"/>
        <pt x="318" y="566" on="1"/>
      </contour>
      <contour>
        <pt x="310" y="62" on="0"/>
        <pt x="257" y="56" on="0"/>
        <pt x="235" y="56" on="1"/>
        <pt x="152" y="56" on="0"/>
        <pt x="71" y="133" on="0"/>
        <pt x="71" y="212" on="1"/>
        <pt x="71" y="322" on="1"/>
        <pt x="71" y="346" on="0"/>
        <pt x="77" y="378" on="0"/>
        <pt x="78" y="382" on="1"/>
        <pt x="10" y="382" on="1"/>
        <pt x="10" y="488" on="1"/>
        <pt x="269" y="488" on="1"/>
        <pt x="269" y="387" on="1"/>
        <pt x="200" y="387" on="1"/>
        <pt x="199" y="385" on="0"/>
        <pt x="194" y="371" on="0"/>
        <pt x="189" y="342" on="0"/>
        <pt x="189" y="322" on="1"/>
        <pt x="189" y="215" on="1"/>
        <pt x="189" y="160" on="0"/>
        <pt x="256" y="160" on="1"/>
        <pt x="273" y="160" on="0"/>
        <pt x="313" y="165" on="0"/>
        <pt x="325" y="169" on="1"/>
        <pt x="325" y="66" on="1"/>
      </contour>
    </TTGlyph>
    <TTGlyph name="dvCA" xMin="-35" yMin="0" xMax="516" yMax="665">
      <contour>
        <pt x="192" y="160" on="0"/>
        <pt x="255" y="160" on="1"/>
        <pt x="287" y="160" on="0"/>
        <pt x="312" y="169" on="1"/>
        <pt x="312" y="566" on="1"/>
        <pt x="-35" y="566" on="1"/>
        <pt x="-35" y="665" on="1"/>
        <pt x="516" y="665" on="1"/>
        <pt x="516" y="566" on="1"/>
        <pt x="430" y="566" on="1"/>
        <pt x="430" y="0" on="1"/>
        <pt x="312" y="0" on="1"/>
        <pt x="312" y="65" on="1"/>
        <pt x="281" y="56" on="0"/>
        <pt x="235" y="56" on="1"/>
        <pt x="152" y="56" on="0"/>
        <pt x="73" y="133" on="0"/>
        <pt x="73" y="212" on="1"/>
        <pt x="73" y="322" on="1"/>
        <pt x="73" y="346" on="0"/>
        <pt x="79" y="378" on="0"/>
        <pt x="80" y="382" on="1"/>
        <pt x="13" y="382" on="1"/>
        <pt x="13" y="488" on="1"/>
        <pt x="271" y="488" on="1"/>
        <pt x="271" y="387" on="1"/>
        <pt x="202" y="387" on="1"/>
        <pt x="201" y="385" on="0"/>
        <pt x="196" y="371" on="0"/>
        <pt x="192" y="342" on="0"/>
        <pt x="192" y="322" on="1"/>
        <pt x="192" y="215" on="1"/>
      </contour>
    </TTGlyph>
    <TTGlyph name="dvCH" xMin="-35" yMin="4" xMax="576" yMax="665">
      <contour>
        <pt x="416" y="499" on="0"/>
        <pt x="500" y="426" on="0"/>
        <pt x="500" y="354" on="1"/>
        <pt x="500" y="173" on="1"/>
        <pt x="500" y="112" on="0"/>
        <pt x="457" y="39" on="0"/>
        <pt x="359" y="4" on="0"/>
        <pt x="275" y="4" on="1"/>
        <pt x="152" y="4" on="0"/>
        <pt x="46" y="78" on="0"/>
        <pt x="46" y="162" on="1"/>
        <pt x="46" y="188" on="1"/>
        <pt x="46" y="255" on="0"/>
        <pt x="94" y="280" on="1"/>
        <pt x="71" y="292" on="0"/>
        <pt x="51" y="339" on="0"/>
        <pt x="51" y="375" on="1"/>
        <pt x="51" y="505" on="1"/>
        <pt x="51" y="543" on="0"/>
        <pt x="71" y="566" on="1"/>
        <pt x="-35" y="566" on="1"/>
        <pt x="-35" y="665" on="1"/>
        <pt x="576" y="665" on="1"/>
        <pt x="576" y="566" on="1"/>
        <pt x="226" y="566" on="1"/>
        <pt x="192" y="566" on="0"/>
        <pt x="169" y="536" on="0"/>
        <pt x="169" y="503" on="1"/>
        <pt x="169" y="379" on="1"/>
        <pt x="169" y="355" on="0"/>
        <pt x="190" y="332" on="0"/>
        <pt x="220" y="332" on="1"/>
        <pt x="290" y="332" on="1"/>
        <pt x="290" y="228" on="1"/>
        <pt x="224" y="228" on="1"/>
        <pt x="191" y="228" on="0"/>
        <pt x="165" y="208" on="0"/>
        <pt x="165" y="179" on="1"/>
        <pt x="165" y="169" on="1"/>
        <pt x="165" y="145" on="0"/>
        <pt x="181" y="120" on="0"/>
        <pt x="227" y="110" on="0"/>
        <pt x="275" y="110" on="1"/>
        <pt x="321" y="110" on="0"/>
        <pt x="368" y="124" on="0"/>
        <pt x="385" y="153" on="0"/>
        <pt x="385" y="179" on="1"/>
        <pt x="385" y="334" on="1"/>
        <pt x="385" y="370" on="0"/>
        <pt x="354" y="401" on="0"/>
        <pt x="317" y="401" on="1"/>
        <pt x="299" y="401" on="0"/>
        <pt x="268" y="392" on="0"/>
        <pt x="268" y="391" on="1"/>
        <pt x="268" y="489" on="1"/>
        <pt x="274" y="491" on="0"/>
        <pt x="315" y="499" on="0"/>
        <pt x="339" y="499" on="1"/>
      </contour>
    </TTGlyph>
    <TTGlyph name="dvCHA" xMin="-35" yMin="4" xMax="576" yMax="665">
      <contour>
        <pt x="47" y="528" on="0"/>
        <pt x="52" y="552" on="0"/>
        <pt x="57" y="564" on="0"/>
        <pt x="58" y="566" on="1"/>
        <pt x="-35" y="566" on="1"/>
        <pt x="-35" y="665" on="1"/>
        <pt x="576" y="665" on="1"/>
        <pt x="576" y="566" on="1"/>
        <pt x="437" y="566" on="1"/>
        <pt x="437" y="481" on="1"/>
        <pt x="469" y="467" on="0"/>
        <pt x="496" y="405" on="0"/>
        <pt x="496" y="354" on="1"/>
        <pt x="496" y="173" on="1"/>
        <pt x="496" y="112" on="0"/>
        <pt x="454" y="39" on="0"/>
        <pt x="356" y="4" on="0"/>
        <pt x="271" y="4" on="1"/>
        <pt x="148" y="4" on="0"/>
        <pt x="42" y="78" on="0"/>
        <pt x="42" y="162" on="1"/>
        <pt x="42" y="188" on="1"/>
        <pt x="42" y="256" on="0"/>
        <pt x="91" y="280" on="1"/>
        <pt x="68" y="292" on="0"/>
        <pt x="47" y="339" on="0"/>
        <pt x="47" y="375" on="1"/>
        <pt x="47" y="512" on="1"/>
      </contour>
      <contour>
        <pt x="165" y="356" on="0"/>
        <pt x="187" y="332" on="0"/>
        <pt x="216" y="332" on="1"/>
        <pt x="286" y="332" on="1"/>
        <pt x="286" y="228" on="1"/>
        <pt x="220" y="228" on="1"/>
        <pt x="187" y="228" on="0"/>
        <pt x="161" y="208" on="0"/>
        <pt x="161" y="179" on="1"/>
        <pt x="161" y="168" on="1"/>
        <pt x="161" y="144" on="0"/>
        <pt x="177" y="120" on="0"/>
        <pt x="223" y="110" on="0"/>
        <pt x="271" y="110" on="1"/>
        <pt x="317" y="110" on="0"/>
        <pt x="364" y="124" on="0"/>
        <pt x="381" y="153" on="0"/>
        <pt x="381" y="179" on="1"/>
        <pt x="381" y="334" on="1"/>
        <pt x="381" y="370" on="0"/>
        <pt x="351" y="401" on="0"/>
        <pt x="317" y="401" on="1"/>
        <pt x="296" y="401" on="0"/>
        <pt x="264" y="393" on="0"/>
        <pt x="264" y="392" on="1"/>
        <pt x="264" y="490" on="1"/>
        <pt x="269" y="492" on="0"/>
        <pt x="304" y="499" on="0"/>
        <pt x="327" y="499" on="1"/>
        <pt x="327" y="566" on="1"/>
        <pt x="176" y="566" on="1"/>
        <pt x="175" y="565" on="0"/>
        <pt x="170" y="552" on="0"/>
        <pt x="165" y="528" on="0"/>
        <pt x="165" y="512" on="1"/>
        <pt x="165" y="379" on="1"/>
      </contour>
    </TTGlyph>
    <TTGlyph name="dvCH_R" xMin="-35" yMin="-307" xMax="576" yMax="665">
      <component glyphName="dvCHA" x="0" y="0" flags="0x0"/>
      <component glyphName="dvRashtrasign" x="486" y="5" flags="0x4"/>
      <component glyphName="dvVirama" x="378" y="-84" flags="0x4"/>
    </TTGlyph>
    <TTGlyph name="dvCH_RA" xMin="-35" yMin="-107" xMax="576" yMax="665">
      <component glyphName="dvCHA" x="0" y="0" flags="0x0"/>
      <component glyphName="dvRashtrasign" x="486" y="5" flags="0x4"/>
    </TTGlyph>
    <TTGlyph name="dvCH_R_YA" xMin="-35" yMin="-107" xMax="1100" yMax="665">
      <contour>
        <pt x="1100" y="566" on="1"/>
        <pt x="1014" y="566" on="1"/>
        <pt x="1014" y="0" on="1"/>
        <pt x="896" y="0" on="1"/>
        <pt x="896" y="50" on="1"/>
        <pt x="846" y="40" on="0"/>
        <pt x="789" y="40" on="1"/>
        <pt x="691" y="40" on="0"/>
        <pt x="583" y="132" on="0"/>
        <pt x="583" y="220" on="1"/>
        <pt x="583" y="299" on="1"/>
        <pt x="649" y="299" on="1"/>
        <pt x="679" y="299" on="0"/>
        <pt x="701" y="316" on="0"/>
        <pt x="701" y="339" on="1"/>
        <pt x="701" y="352" on="1"/>
        <pt x="701" y="374" on="0"/>
        <pt x="683" y="393" on="0"/>
        <pt x="657" y="393" on="1"/>
        <pt x="494" y="393" on="1"/>
        <pt x="496" y="369" on="0"/>
        <pt x="496" y="354" on="1"/>
        <pt x="496" y="173" on="1"/>
        <pt x="496" y="106" on="0"/>
        <pt x="444" y="30" on="0"/>
        <pt x="383" y="15" on="1"/>
        <pt x="442" y="-107" on="1"/>
        <pt x="321" y="-107" on="1"/>
        <pt x="274" y="4" on="1"/>
        <pt x="271" y="4" on="1"/>
        <pt x="270" y="4" on="1"/>
        <pt x="223" y="-107" on="1"/>
        <pt x="102" y="-107" on="1"/>
        <pt x="161" y="14" on="1"/>
        <pt x="99" y="28" on="0"/>
        <pt x="42" y="100" on="0"/>
        <pt x="42" y="162" on="1"/>
        <pt x="42" y="188" on="1"/>
        <pt x="42" y="256" on="0"/>
        <pt x="91" y="280" on="1"/>
        <pt x="68" y="292" on="0"/>
        <pt x="47" y="339" on="0"/>
        <pt x="47" y="375" on="1"/>
        <pt x="47" y="512" on="1"/>
        <pt x="47" y="528" on="0"/>
        <pt x="52" y="552" on="0"/>
        <pt x="57" y="564" on="0"/>
        <pt x="58" y="566" on="1"/>
        <pt x="-35" y="566" on="1"/>
        <pt x="-35" y="665" on="1"/>
        <pt x="1100" y="665" on="1"/>
      </contour>
      <contour>
        <pt x="161" y="168" on="1"/>
        <pt x="161" y="144" on="0"/>
        <pt x="177" y="120" on="0"/>
        <pt x="223" y="110" on="0"/>
        <pt x="271" y="110" on="1"/>
        <pt x="317" y="110" on="0"/>
        <pt x="364" y="124" on="0"/>
        <pt x="381" y="153" on="0"/>
        <pt x="381" y="179" on="1"/>
        <pt x="381" y="334" on="1"/>
        <pt x="381" y="370" on="0"/>
        <pt x="351" y="401" on="0"/>
        <pt x="317" y="401" on="1"/>
        <pt x="296" y="401" on="0"/>
        <pt x="264" y="393" on="0"/>
        <pt x="264" y="392" on="1"/>
        <pt x="264" y="490" on="1"/>
        <pt x="269" y="492" on="0"/>
        <pt x="304" y="499" on="0"/>
        <pt x="327" y="499" on="1"/>
        <pt x="327" y="566" on="1"/>
        <pt x="176" y="566" on="1"/>
        <pt x="175" y="565" on="0"/>
        <pt x="170" y="552" on="0"/>
        <pt x="165" y="528" on="0"/>
        <pt x="165" y="512" on="1"/>
        <pt x="165" y="379" on="1"/>
        <pt x="165" y="356" on="0"/>
        <pt x="187" y="332" on="0"/>
        <pt x="216" y="332" on="1"/>
        <pt x="286" y="332" on="1"/>
        <pt x="286" y="228" on="1"/>
        <pt x="220" y="228" on="1"/>
        <pt x="187" y="228" on="0"/>
        <pt x="161" y="208" on="0"/>
        <pt x="161" y="179" on="1"/>
      </contour>
      <contour>
        <pt x="896" y="566" on="1"/>
        <pt x="437" y="566" on="1"/>
        <pt x="437" y="500" on="1"/>
        <pt x="653" y="500" on="1"/>
        <pt x="738" y="500" on="0"/>
        <pt x="816" y="435" on="0"/>
        <pt x="816" y="363" on="1"/>
        <pt x="816" y="333" on="1"/>
        <pt x="816" y="218" on="0"/>
        <pt x="699" y="218" on="1"/>
        <pt x="699" y="217" on="1"/>
        <pt x="699" y="182" on="0"/>
        <pt x="743" y="149" on="0"/>
        <pt x="798" y="149" on="1"/>
        <pt x="847" y="149" on="0"/>
        <pt x="896" y="160" on="1"/>
      </contour>
    </TTGlyph>
</ttFont>
